<mxfile host="65bd71144e">
    <diagram id="UIA_rbLbL0JpzuK9HDc2" name="Page-1">
        <mxGraphModel dx="831" dy="764" grid="1" gridSize="10" guides="1" tooltips="1" connect="1" arrows="1" fold="1" page="1" pageScale="1" pageWidth="1169" pageHeight="827" math="0" shadow="0">
            <root>
                <mxCell id="0"/>
                <mxCell id="1" parent="0"/>
                <mxCell id="2" value="" style="endArrow=none;html=1;" parent="1" edge="1">
                    <mxGeometry width="50" height="50" relative="1" as="geometry">
                        <mxPoint x="230" y="320" as="sourcePoint"/>
                        <mxPoint x="650" y="320" as="targetPoint"/>
                    </mxGeometry>
                </mxCell>
                <mxCell id="3" value="" style="endArrow=none;html=1;" parent="1" edge="1">
                    <mxGeometry width="50" height="50" relative="1" as="geometry">
                        <mxPoint x="230" y="440" as="sourcePoint"/>
                        <mxPoint x="650" y="440" as="targetPoint"/>
                    </mxGeometry>
                </mxCell>
                <mxCell id="4" value="" style="rounded=0;whiteSpace=wrap;html=1;" parent="1" vertex="1">
                    <mxGeometry x="130" y="150" width="80" height="100" as="geometry"/>
                </mxCell>
                <mxCell id="8" value="" style="endArrow=classic;html=1;" parent="1" edge="1">
                    <mxGeometry width="50" height="50" relative="1" as="geometry">
                        <mxPoint x="240" y="380" as="sourcePoint"/>
                        <mxPoint x="140" y="380" as="targetPoint"/>
                    </mxGeometry>
                </mxCell>
                <mxCell id="9" value="" style="endArrow=classic;html=1;" parent="1" edge="1">
                    <mxGeometry width="50" height="50" relative="1" as="geometry">
                        <mxPoint x="740" y="379.5" as="sourcePoint"/>
                        <mxPoint x="650" y="380" as="targetPoint"/>
                    </mxGeometry>
                </mxCell>
                <mxCell id="10" value="" style="endArrow=classic;html=1;" parent="1" edge="1">
                    <mxGeometry width="50" height="50" relative="1" as="geometry">
                        <mxPoint x="310" y="490" as="sourcePoint"/>
                        <mxPoint x="310" y="450" as="targetPoint"/>
                    </mxGeometry>
                </mxCell>
                <mxCell id="11" value="front" style="text;html=1;align=center;verticalAlign=middle;resizable=0;points=[];autosize=1;strokeColor=none;" parent="1" vertex="1">
                    <mxGeometry x="290" y="490" width="40" height="20" as="geometry"/>
                </mxCell>
                <mxCell id="12" value="" style="endArrow=classic;html=1;" parent="1" edge="1">
                    <mxGeometry width="50" height="50" relative="1" as="geometry">
                        <mxPoint x="585" y="490" as="sourcePoint"/>
                        <mxPoint x="585" y="450" as="targetPoint"/>
                    </mxGeometry>
                </mxCell>
                <mxCell id="13" value="rear" style="text;html=1;align=center;verticalAlign=middle;resizable=0;points=[];autosize=1;strokeColor=none;" parent="1" vertex="1">
                    <mxGeometry x="565" y="490" width="40" height="20" as="geometry"/>
                </mxCell>
                <mxCell id="14" value="arr[0]" style="text;html=1;align=center;verticalAlign=middle;resizable=0;points=[];autosize=1;strokeColor=none;" parent="1" vertex="1">
                    <mxGeometry x="290" y="290" width="40" height="20" as="geometry"/>
                </mxCell>
                <mxCell id="15" value="arr[1]" style="text;html=1;align=center;verticalAlign=middle;resizable=0;points=[];autosize=1;strokeColor=none;" parent="1" vertex="1">
                    <mxGeometry x="381" y="290" width="40" height="20" as="geometry"/>
                </mxCell>
                <mxCell id="16" value="arr[2]" style="text;html=1;align=center;verticalAlign=middle;resizable=0;points=[];autosize=1;strokeColor=none;" parent="1" vertex="1">
                    <mxGeometry x="469" y="290" width="40" height="20" as="geometry"/>
                </mxCell>
                <mxCell id="17" value="arr[3]" style="text;html=1;align=center;verticalAlign=middle;resizable=0;points=[];autosize=1;strokeColor=none;" parent="1" vertex="1">
                    <mxGeometry x="560" y="290" width="40" height="20" as="geometry"/>
                </mxCell>
                <mxCell id="18" value="" style="shape=image;verticalLabelPosition=bottom;labelBackgroundColor=#ffffff;verticalAlign=top;aspect=fixed;imageAspect=0;image=data:image/png,iVBORw0KGgoAAAANSUhEUgAAAZgAAADPCAIAAABHpVD5AAAgAElEQVR4Ae2d/1NaV/7/33+OZRPCGHMbkbqIRkn9gqIGvwS/B4kamhjaqNkW3RHNJPbd8rbqaHZRsxomao2j24ZMxK2SboKTwY+txS2rtaslhbAO2P4QJz+Ez9wLF+7lm6CggK8ZxkG493x5nHOe53Ve53Bf/xNHQeAFBIAAEIhqAv8T1aWHwgMBIAAE4igICBkYpEAACEQ9ARCyqG9CmJCBABAAIQMhAwJAIOoJgJBFfRPCbAwEgAAIGQgZEAACUU8AhCzqmxBmYyAABEDIQMiAABCIegIgZFHfhDAbAwEgAEIGQgYEgEDUEwAhi/omhNkYCAABEDIQMiAABKKeAAhZ1DchzMZAAAiAkIGQAQEgEPUEQMiivglhNgYCQCDShCyVRy/KpYK4EAmwEytE77EY0FkPmwAiutA3lJlDbAt4H6EEIkzIEiTrdTNf0ekBdNnMjqKZV2Vd12jeyNIuPama3SkSsSL1sZGnrvzjs5c7zZLCvWtKE32gf3urr3LvKyO1smEuOTPn/QeK94tPeqk+I+2vht6f/8Uv2Nc0wO5u23790ZV93eulMFhHRZofmcxL/bxgmKQ0Kg3GOQndV5r+Pj9Xnj95L40TTHZeB5Swg6dU1y+vVLWl+svO272Hcn1kCdkZZv9u3b0Or9pExnGGIXslfKirUL7KLaKSv0LbLEGyLpx/xa1keH4VGZ+cuv7t/22/bpOW7t3DQMj8Nlly2gPt1WcK1vveSDLYD8wDLw01JfsSozAIGbV0WGfVj5QmeSutDxWgCUfWzUv9/CBucRFLyuEoV64s9CUx93W7vUjvf1i2rL80WJfISaYdJB0fFXSVdv8XRJaQ8XMe2qpu8feuWLKkaPaXnAIGs3+3RORDrQIx6/YP7gDdAs+UFtjoAiHz0x8S2mau6NSF1af9XBPAvOi9NcMgZMwOtcWkbETwPuCn2M6vOL1LVv1YbTDa57wXffP+1bIX+ssjl/bNgSL8S71OnVfsnRIpr2DqFdIbQyhkqR0l87aqW/XIJUXR+CvB7K5gRlfQyHc5vFD1sZVJcgkVOJ9+3ybouXbCXn80hd2iOlZCHZqCcHZX8FDHFfEc3xIYUS8tCMaHEDo/56G7RUbN4CFFNXR+PT3zDCEjYhtQ4ysHCu79Yi/hBUl94A3M+vTjl6/bpMT1ICPtb+YB/eM0VyKcNOnjtpWd3u23vT8bPn7QncYilBwtEjtR0JJ5BX0x2d60jN1SM/WvOz+/Hnj5+rPnj7kFLUEvLd8TJ/f8mKfa5T3b5U6+YNWUvuNCwaCJ/pk5+GVSjSJ9ZIO7sFsw831qOfECJI7Col2eOT/538IFW6HKkCn74sz1F7xn3yedxSpy9ovMZ7ZMEXG1Upo8aePKxETIlLwvzo0YuAu2woXfOCOPk7LYrm/L/1n4bCM5g4Dl7KeZz2zsGpbrGgrrFKEMWbKh0/bcXRXBhujFZf3lwXJXHyOkiZSmYZAzr4gQd+FgvCf99uPZiQvN9z9a+Omzl6//b+W7+uulf3AlzmBP7QxsvyW/gl9mIvymUZVmdcNo2tA9VTRyUhqmNyyLvdmujBB6oVjSPTw2PSHvEGXQkgSjKzqlNMN+QeHdJavZQnyZphtcPc1e2ZTsWqlscGJqXCET8xJo1X2LenU3n7RMif/TzBWdprDa2+qbQIxQKkJDIHEUTkeVbuXiDX+zhc97A0k/BNeEUMiKJmvmd0r6dTXjC+y6a4xLHTnyV3XzOwWXcIupaLJqfqegkoCYfq1AaSu7gUsbf7Jm/lVRv67q/hMsha7cezt1869y+W6SRGXIdqpu1SQ0LgnGFQjJ8uKl9+vKxl8J53cvXHK7y942Z5AbS4L53ap+RZqoI6v/Vd387sXG84E2A+fCwuvehW7EeT0ibvz57Z2/ifCGZ7MfGAa2dz7+aye7RJh2/X6z/u3AymM2g9BUtMrir/91a8Xcu/32YwlheNvTZLU16t8O6L+rl7axr7QV/+27z342f/YyGB/ZaXHqzG7Bg8eMcvHp0k5Gz0bhs9/YNU7dYZzu+i/v2W6h8vtzfx5K7vwmS2njPTOk5jlFhHHq+o+Fz3Y5PYrEcvGZmqH0yd8KF2y8Zy/OnsZqEYCQvZOlyFnY5fQMnS0Vnyn/IvXBb7yF75Oc+xUBCNlJ0fcFC/89/+fOMxfEyOUvM5W2wkkFzU2w3v187qpO+b6zagTIFCSO3dn4/Kdb+p2B7Z/47g57RtoD88D26179dx/0DfH/+o+2n98ObBvqK5wQkFMFYnbz41vbr9v6WtgCsf31nvucRM7R2Svsb9jNU6sG47pK3tHcUCvpU64Yl6cfrZrXxoX4EEgv71atmQxry6qpaaVm3bA5d3dk0WxUNifYU6BlZXD4EuWGZXlYwOFlc3jZ7HT8XixrhC+ZXjFaN5aeKqem1TqTQdM/rDKZ1R1ZeIe0lzCpvPCZ/srkVXcR9Ft+QnVy8hb09YPlniYF4RpyjoGmHKq7QidktMalunmb4N4AkowXjl7PnbEJ+yX2/oddoEvPwL9F4iiZA2UEaYu/oaubt9X0dyQ4tSm56YLSJpDhJpuDDi9rfKeofbJMuZ5T5EWtTlxaEMwupaUSMsKxnuB/VTVvq+iqdwyJ1K6SeVudvMNthPhunnjJd73b/ypmOxL8w5V//N+2Qeh0wZRM3NlGdc01t+d0t718e+evQvfC0Fo+eukpZIz3/moYePldcY7TUmMgzd9+th2EkJ28/mOh6p9nXfYLJ3FwlzepoDkqhQnZwvcMp6y89+l5la1wsJNiv+B0G1tly5OJHf9SkDiqMPnBbjBChuZYOPKFa/4/fTNdaeN2iR2G4Z5CRr15TmXj/Nm1v/FO3pecZ7vsGpLuo6PrqvJmPN64XlutYuaOLyEjcmZ/2vzz297ZzlPERA60tORKnhosqwqBcw6j8fuUK2tWg6ol3d4ZMlpUm1b9o1a+Q7YYopFV1P4iu8N4skXz5riIpF+OQqY3jOstW2pZpSPBhNK7GpPZYtWPVLqvQ08mDWiuLn+Zfs69HxLr6/v9adaDvVH7vn1/mQZ1V8iEjErvelU3s5BMkg9qcs9u3fhAAtrVqPSunbqZSTqh2524tCCcd0obamfVPZykO3UQvZLBknsITWpHyaytTrmeW+l1UxJL5/6At/6dy75vQ7NwCiX9/Fk+PyHVixr6ahV0dfkWX12yOV+/HtDeT8Qvfq/vp4Htn2oKCHWkcC4svB1YmXjPbTL0LmSl/Odve79uc+kgBYmjiYNZWnKSRmwFPTcJa0mEcvlFoXNhSMGEbFJBGLGM+M7/8lTfnLGr+YXH3GcGZpZTSdG6UC6/CELIqG3sBVvmZaKhxEB6UDF1ZLqnkF2Y4bqtPSki1gwqhYTOfe7DCp2+tqcAh0/4isDfj5Bp77/nupfB/Jt54Od/sInNdAAho1Yq1qwr8soUYqnoook1q7avECse5sJfGxcR9yLprSqL1fBITLgL2+VUt7pZWFgK6MJz41EL8asUwbjeYlVLPC1HaqPiik7LE7pmF1fdCbh8fJjMntFfnfmQCMfHlcT6Hub7kAkZK+2ey/jCK4lpyr0urP6oO4xs+1CR9l/QwxYOjrnscVtNVz1+r50CKmTC/iaXTZvMT+v5RTijSS/wpT7YjkG7tx2D3KGKeTcnXfCs0dXlwHNsdYmJWrvMufPIyJx6PbD9gkvyyDDYD3YGXn6b6dYJvAoZTVSv9zDfgnP2i1hKW56sMz5P6Hpd/77wmYGZYdcmTyFDToi+5z37PhEz4t6peVH47EWifRWJt0VwQsYaynm2e/66yFWAPFFiz2885ePTdq3cS8gol7/nPfuReYFQhby21Blb4UAbQaDLZLU6fUVbMl5I700ZqJAh8dLvBra/u+A0oNDF6b6PXyShgkL2hcVRkPx+rWVrWoD1BGrtxKZVI+OQRAT7EFc6rF7YLueK3MsuZ1Lx4IplVVFM6ldJ+YMrlnVFOelDexbVfZd1+oo/nfWPy+Pbk/HVV9kDynqdpqQx2Hu9t4hHFiG5LGRChq4iK9p55FKi4lUjq0dliF7PVbrtSJIPW9CbLszaShrdjKya3Bmn9DDoEk3ZQ93F8V2PxSaBBbZc5RI9cXhfoYo0dfO/5BR4s9Lxa8jlJyTrugBfXTLipd/1vnQtM+Modg+xh5BN7Qy8/EdgQiYUrrz9zOVxwzINSsio4nMqG++Z58tpZPkUMrsv/x1UZX5kvOeqr4dFhjrm/Tn7s77keCmAjaciCRnTt7P/5PUfvVXBTciwkVl2Y4/RFbiQSTAhI9oy+xcynmzZvDbq9IXZYaY3zRksT6VMrI+houahOBkdGnRPkyBDvnc5syRPzcZpMbkzoyfOnFmQe28xqvvBnwJLfV+pv6rT1z74MMF9uUpOn9RhDv+rUAlZRtdFdMORbCXlDpXN7hRUYh/SJUXu1pD9sEWNQzsKFFXzHluQlU9q5tfZuXYu1ISimng6iyXfvXjDp3v+RN2CcN67gwzzwXn/KgD9crWNfXUpE6PLwIVP4wn3Jsp+GiC6zNCvCoufvx0grWLs8uTVR8bmzr4eeD7kXKuimQYlZBRRqtLG6RS9Q2W8Q2XEURlxFNIiMc7L0tJhkTk2JTMUnt4okkVGvZmusuV1Er1+5F1L1CL7Lb2U7SiDewGQuKwv8579dq6UUDDyriVqkS28SDzL8lEF+5jBRmZAFtm/vDv7yY0S7ylkLNQia77u2gFw9QFCo3v5kFYtX/UQMppobN2sG6zGpCepfFRvWR3OJ2hWHCVJML5hWSbuado/uUvc5cSz4/cte/jOaHwv+TqKatf9oC2yOErS6QShrGpZf+nzHP+1PtJvQyVk/K9q5m01PU0ur3lyTc79XeF9u4PMYZEJ5RK85c4gEp1gfrcIPwVGFWmE87aydtdhixOZkgszthrZNVeaaA/mZY07FZMaX9fFIHnl0KOwdbMLTLsXjM5jiWqcy1JqnUY4/0uOtwO0wbUBtrrUmz/bft3cTHI/xxXcb99++9lUi9MD9YeS+7e8uurtS0u32ynIqeYXvdvmj5oJJzxyhtqC2LVkIT2/8WZm4glrw3dYovj3nKqxh0UWR6lMnrTxJmdOu1JgnZH91+Ujo7DPDuzylN8g+H4CtkdJOH5BxfxZPW2u7QIK40Se6JSzHanic0pb4eCnuL+GcUr0fQHx+EUGtji9TIBAYdMuVBISROIo5z4sC9BHtl8ho7XYt6QdLkt2Z/3UEJtosvnsNqi5ZFkddq37aLymjmmN1TAlctg12f1ai0ktwXeNUCdy4W31lpuRlYRaWIu99tMY1EJpXwsXFzIsi+W7BClMymhRrlnN6laH7x+/EtN9auOXB/CRnU6b1F+d2WNfxScN+8QT3r8hEjJaI7rhWDe/W9GvSBd1pLc/uThjq5tZYGY4TV/0LH7d/M7Fri5m5TXWraWyh69QWXEs9LC9AjSFnYtdA2miLnaXpmLWJrg3dJbk+4+jIOfT79mE9yfTRF05PbqK/g43pz56xGx+92JXF+uG4sL9ddfhDySOknytYMYmfKjJaZQw6yTp7V+VjGvSiLuogbLGVpdvB15+yyG6VNCGZKX99afe7dftD7o5AnGmZKbt57e92pk0l9eMcYpViOSUIjmfNr982yYTou/ZhadwfY+jlV6Y3RnYNrc9uF8s+bS473GbHj3NFMRPlFjYLuTMP1miTqT8U0bni7wFG9clK3sKGYJuES7YCmdesD7+NPHyEGvAUIguFfHjFxQkDj1dYSuc/Ca55uaZGsX5SUOeiiBkFORE+Td5z3bzBmcYl9uQy18wBzYKn+1milzChJ6ueGbLG/wysfwmcv2bnJn/colCRmGd7kRPjWTJhhJr2s6KFOnoAY6NZIebz9FMORyV7600Vjy7FMkpTbz+j8+2fxIK0PcIm4PvomDHL/a0yCgMJtqa5o//NoQ1xGv0JI2rKf31Frp4es1q3lyc6OuQSvsnVMsbm1sbRuuKvDTFMSI4vRqTeXNR0VTJy+BUN3Qo1FvolqWmm/jrpSR0BWpdedQtlQ5Oa1ZVROFjtqqMVsPStFTA4WaUiiWDqjX0xJn3nw2cTBpEdy3T9rtriQlZ7Dv7Maf++CSr8auLM7vC2Z2q8aULtzpc5zDsTZ5cw+5Hj6HW3NdwJdcQ0ULNzJNkxwYii9W/IxhfyO1aqlLuCmdfVdzXcG/Uxzu3FwmdhspXXJzZrZt9VdbT5SFzcRQklynT1czuCme8HKY9kdmU079eo7TVze5UyL9iX8p12mtBzSesT5v1O3cetOADg1A8Cpspffwx4UAskyR2pXyt2zHLtwPbrxuJP+hDSjl//bZd/7r35evPVr77QDrUuLLT3kdcyhGz8/b+vZv2A7HoYdQHL85dv3nSaQ1RGPGdBu7IkNNmxFxg/+SqXiQR/GKUvC9SBw3chd1ClSFncIbR9SNJyCjIiQsK9gNDwcJu3oNvGHkixshveaQtReRE3hfn0BTQI7VZg98w3c/csuNF32TO/Fa48FvOgOJM1qds1W/k0xVs/FDubsHMRmbPl4nEI7X2xsLOkc29X0AyPexfMT792P0461t0H8bRFuhvMD8jL+Hjm7/97OcXFwgmEposjZMms7fFzq3ZiUyvB5i995yUbPHwo8WVza2NtWX1o/7m8pYJ3daGbu52vuP6pGzxxBImXuiRV9OKaly5tK4dcTvBzxDK5lY2TYbNZaXzmAVe36yGQc0mflzWuK4eU2rWVqcbSf3N3j2SynkHOUeWVM57ob88sMcGsXcO3vpnGK4MjUWGOvWFzgP6h1R0vDkhu7ATIPnIwtAL99uU5+ouYj++ccl02FHst6g+CkZLzy4Vlhdy6U6TPEi8VAa3uFJYzMlyHEbzentCm/KKTp1fhq/lfRTG673oh+gG8b6PboSYmI9ChkTIsB1J8m+PDqf0kMvhEIhUIUPi4v80U6/TFAoj+dczh9NGvnPhfIj+1tLHD7l86AI5teq/XNap88rIHwarhuG9PiRCljFwkXBAPyA04a1VJBOPxrJFrpBRkGTWiObqiy8P/qSa2Oy3zII81coVlSzxIE+tYKIr0/qZLlZZTsK5/Zp14R3yIREyOoOWytifsyk2e0942+wIpPA05+R7bMJh1IiqYNJ59si99ILIHGBH0FikMcUsyXvQ5/0ZR8E04omCuvzJudpnmjJ4HhmJbzAQ4UYgAASAgF8CIbHIQJWAABAAAkdJAITsKOkf9boD6g4EYoQACFmMNCRoIhA4zgRAyEDIgAAQiHoCoRGyyqpq5F3CQ5T8uuWO87wBdQcCQCAcBEDIon4uCke3gDSBQHQRACEDIQMCQCDqCYCQRX0TRtfMCaUFAuEgAEIGQgYEfBBAhJL+3gby06jDMQghzYMTiEkhyx24qNytuuV6pKL75gM9N/mWpgJ94tCrsv4ht0czul/so5dTkLhkSfXo1+cSfV8QeFJw5X4IJJUPrhi3NLLC/T6FmcaXLW4YV70+5B6JY9/WWA2P8EchHnywhSmFP1TXcq3/WziV4y39HNbnGkFtibevgum3ydcLBn64qf69/aHcFQtxP00WTKbBpB+TQlYwVDGLxwrwAo7F7N+pm12/0D6QLpksGt8VEuMqebneeydIuML/++/tfx9jYDGivF8TTEtACsETwGJ8mLzG5gisHWnVfcsGy/qEwOvjEiNfyJBUpLeRa/3fkte+hIzFaPuh/fl/KorIjzIOrmcW5Iz93vn468zsktOJwT/4O7i8Ams4jzRjUsjQWCfOJ9N6DA8snrkrykkyL7nuWoL7c2g97nLjy2b1/Nr5fCkv1fkIabcLHP8msPjFldX5rPCdTUlicqrLK/kZXoeiR3vvVS/vtTjKuxBufiHXz8O2qPt9khdeqSSfXSXChYx2Pm0LlbAL/68xe8uXkCFxlIKc0e3Oudn9Lx1OXReo39y8U4sTi7xOQkFiTciotIJrjEr0Rc/FI5y7cc8dKpvf4ZJjygc54Cn5Uze1v3/4kReLHXs2MRbmflU5gkaBxt6TAn+l5LcoVMt6o8ls3FrRTPeWkx8DTy+VypXqpXWD0bShW5zuE3HJIw17WDuW7OacYmx5A32+qNVs8bU+CrJqoeqszMrbY0/RR5sat/RLyuGmUtKD5KlskXRUqUYhGDZX1WPdQiZBj9BgQlatvOX22OLKJhpx1mxZV8vdOCC8cpG4AX0Js72KOMJrHFRhGA1rq+qpblEGIQv0Gfnsaux2cUMtjxhcEiOQJJjGweKPYEUjTjqXmWi4SQM53CQaOcny9Lb9+fqhwug3naT4j4vfrU55h5b6R50fIUPiUmWNz9988vl1ctADt3Hh59+Sgr+/aR+VRvLzRWJNyM4wbunKxn8RzNqqbuHxmdxa6OBCxmYP/t6pnj3nbVFJZXDzC6vRMPdWs3FVKe+QNLb2yjuETpsiu1W9adKr+iUNtaKG1mH1utm4fNcZpSKhUqGzmjeXp9EbW27LlStG64aqlUfUsgQ2P7+0eQyNSm1Ye6qQtjQ3dQzLRMRArW5VPux/0VqgD6SfkLVKmjqGH60aLCatvBbXMoZ4at1s2dKM9d9uEkuko+o1q3ltutkeJy2OgmBCZthc14y0VGcw0pmF4r6nGxaTto8Y3pEtmVrULq1vWKxat+iQ2ODnSuY2LKaVR4O3m1qksnH0kdBrc9JsgpYliBSaZa1uy+AZli2OgtALRQ0tEzqrQd0vFtSK7K9815STJZkzGJXNLgVkSdUmtyfuHxr2vYSMwsIWEJqcffpzGYw7/+lUz7JOHVqNgs4o1oTMPoOhEcXDJ2QJ0obnb9p6mn3Pb1iwL5PKS8BnRDy1ZV4adNmDWARWwyMxPshpvIZWMcF2SCkfXbFsKT0exM7rWzajIWAJI9Pv7E3sGal8xqVryUG9KvlBZMSTLWIxhJyGEqN5an1jaVSMD/uUYrGEaIcy0VAdeufj6jEhWxmrJazHETSW2ua02Dkf2CuLBfT2ImQJoulN64bKFYU7Kb9fs7muknpsC2R3e4kv6SDpd2lJb1EZTaomXNroaCgQ94C7AbcIsXX28X5PIUMoRV9/ov39gwavGwJ750ip1XRqf8hL3vvKw6qye0lAyNyJ7N0SaJ9480GDH+8pJmSkAIWOXOwDr4+4o08Tjqyb18ZFRJuLVAZO75J1wxlGDP8KFTKPELCB1eVEnQYLeWUL4u/MJB4QHi+A77w4vRqreYkUDcj3xfaVLwYBj/mIWWRb0w0k6cT8+sQAa9iNPoQsqWF6w7I13eBUUt/r630LWRw6JxnUHfb4bFjw3cXDXFcSke4tZHF7z77EBN3f06790Kld2q9B557a3l3Id3v5uvd4CRkjoaieIXpSNb9TJKmn8+0vHmnA7A39ZIOmU7tdXeTHze9TyOitaotV01dbXVyKvyrRRaJR2UwUsgS2sKHltmxweGRUMTKOrrxULbjJ5mhju5DZo73uXWZfzR+Oz6m105tWwyPxHkciqAxeuVgq7R+WjypGRqc1W6jBZYeAWmTuQoagirM1ISA3lg8h46Im4fJdPF6RPz77FzIKIcguS6oyOUXNX3Yk4LTcers/1/W3aF9hvQIQMsqV6rk3nWMyWpAaQUm9nvnR143qN58MSoK9l1TZIPMN9t5jJWRYkBQPMwSP5hto/6NdW+rU/lqRvx8hwxZNdvc/6a9R2exYNCHVUtQvZt5c12qeqlRzKtWcdjO6hEykNFo3xtzCmpH6cbqgX72G7XUsLaqxOqp1hNi03oQsqXhwxdOZ5UPI7OvugOyjAwgZEsfpXTLpx2pTMjrURq+eBFKt3TsYNbln1703jg95c7zuNaoDEbJa/uM3nQ/lwUZpOf3RD53aN51zCzlBhMJzr+le5Q/B9bEsZHzv3eigzv6DWmSoYyWFSktyvEiFxIarSd1H3ONDJKrQCtmJSwtCNBZyMC/lV3RvMUZJhXd0R0xcDG4mZAKLy0QcNhq1dmIN3cHgExxeqA1l9GeRcaWLZuNTKe5lI+bl6ZlKdw/0jUaoTM9gpxPNXvvosguZc7OFNORYt9WoaUlw1bnXN6tpzmCcuytfNG8SHf/ul4VgoJIK5p5+IEJmt8juBG9VMU6mNlc8/L3z8Viie77hrlcQ6YOQBQHL0ZmKpvbtI0PncKtB1eoMfI/EUdKLK/n4+ExqVBrc1kSYIzy0S8uMmuRLTcG9KnmBx47ENjSMxI0IpFq+anbaU0x0fa0m7oRQOVKVm0VmJe1RYhAMqlb3nVlMND2FDMnu1lis+jGRS4OYLWhcbs8UUCFbVXgXMhq6M6MbFTrkjy0Zme4V4N59e2fAdhXMFtQCdeXlV3SC7297y0cAQob7yPZXNmzyBmf/3i0RotY9kXo+PjM3PrM+Z9xWI2tKQN+fpyWT5+GDWmRxCRJfu5ZURlYGh5fN4TVO6y3LwwL0PTeDQfQWpZQPao3WDc14r0Tc3NRxd2oRO1iA76YxW5Sb1g31oERQWi0Q3+6b1qBHsQgWWQKLm40mKxpZRY8sYO+5zAC82vvrwfu6Kym7Q40ed3iqkLU0N7b2ji1uWKz6Ry24fHNua0zmtbm7jZXV5bUS6aByacuAnqojWmRWs2VLOzV4W9J6uw/zEm4+vZ3vcpClMNko52x0u1Mrr8XeswlBahkoH4tJO9UvRU94DCp1JrNxebjYCQrJysBSEIyuWNYnGrFWy2ClkLtKUjHaWHr1aK+sf0K9brCsevwGANumsHjsQuyLW9Cj4J3UFGpuCjU3J239fy+oeKfQ9yknnHUkjDt819LPDpW/3DEhW4JdS3+MQtjk3pwO8zb3yMEHFjIKmz247fUcGTq9u85POrxgzvGJ1zS9uNV+INawua5VT7sdFrUfl0WPklpMG7qnCknL3UeLarnDuMAWTR5ZuK3j8IwOCbu37FLyW4bxQ7963dMJaS3pWC+9VGq4iSEAABZpSURBVDo2p13bMlhMhrVllbxFKp/TqPodtg/qIzOp5N0T6mU9quPrWtWgJJ84PhlSlQcEi1UlYRCqzBLJptXoMTGrYXNV82hQkk/4liqaxs8qE5yVnhvNtCxBt9J+OHlpbriBTZyTsLzQcyEGTVBbtAR98YaOUIU9rjz7rupOyWv0cD/xxbnt+TMVFqtnu/O5JnOf58iw2+em/rhHeQIveeivjM2lpd/+cXAhQyjZY03a3z9sq/CbUehb65hk583ZH6EwUQuacJosQhsoVd74/M3Nz6/4PvnoH++Virk3bQN+Dk76v/0wvgUh2x9lFuvz/3Q+/yEvsrdyInRc7TWxR4eQocdH7qrWzbpB3Im2V72OqDlK8sZ+R39ruZ/9UGx0nLpeDb+1PKLG8yNPIbDI0Eqdqi15+Hv736f+uO/+EaH93g+6Q/oqKoQso1W1tq5VjTbv68cVh0QyjsJidPy7/fm/+fkHeWoF9gsn9RK/6gojNWe/Zl14q3wMLbJkHqNOcjYjBAqb2FwxOMXap98hvO0agtodnc6ieybufnfAtT8C7D/eWaiuKjhofzhVkXlH0/T4109GZcGeRDto1oH1w2MoZPvrEHAXEAACkUsAhCxy2+ZwpjLIBQjEAAEQMhAyIAAEop4ACFnUN2EMTKdQBSBwQAKxI2QQ7fyAXQFuBwLRSwCEDCwyIAAEop4ACFnUN2H0zqJQciAQKgIgZCBkQAAIRD0BELIIbMLU+nRJFz0UR3YDO0wYqlkR0gECR0UAhCwChaxAUTH/KreI/EiZCCwnFAkIRAoBELJIaQnCVAZCFoGNAkWKaAIgZOFtnjO0XP7ZIh4t0OdEY3IWWiFLPo8U1SCZPsIVh7f6BHWGjIBAGAmAkIUYLi9r3PEs/KqeyYKHeHSJ+wOuh2Qk81i3NBUzu8L5XcFDXcGNGteDT5EzTLnno/SJy8x67oytposYexh7nOS9Lmcirkfyzy5xby3VOJ7Nv1NQadcyXnrPUtGtDmb7k5LxV8LZnap7k8xMWMaC5kY1ARCyEAsZlZrBQ4o6LihtdfO7Vf2KtLom1g1FetEZ3O+emybfET7UZImu0fnX0lCh2S1r55/Ai0ErqGc0LtTM7xTduMaorMdeNQmuZ37uLWQUOishl8+4tY6GF1HquDc6mHVdWZKmeEcWaAp1s7s1977KujGQI9OhSvdw0jO2CCIaWTVsPu0NJKhaVI8BKHwMEAAhwxUEF5qQNGpN7oxNIO9wWknOxE9UPqmZX88qcFpA1LO3fqmbXWC6pCqO4m9pGYCQYTWiiZbq5n/JcQmos15oCsJ7XbiFSI0XaQTzu0Ui97UnIp5aNxuX7xKelB8WVs6CwRsgsG8CIGRhGZyokLnHCkAzotK7XtW5xS4smqyaf8XlO6UtdEI2+yTZi28OFbIKCc+prRQ6Jruya06r0PVVEqFUYQG1744LNwIBIgEQsrCMT19CxmDJbXX3huhF/LPO16WvquZ3L1wiSEaoLLIAhQxhpd2z1ck7Ag/45lK6sNAjdlB4DwQCIQBCFpah6EvIzqff9/Tlo960ojqnE82/RYamXNNVT5ASd2e//St0aRmUkBG2CwiJB9KH4BogcOQEQMgOVcgYaXKbUC6h0aknsBcFIRhizpLkDlXM75AWm86vEFQKhXIJwXoCITvyUQQFOHICIGQujQhhY/iyyOISJOt1Sk0a8edHqXx6LtnRniwpmnW52E7kdnG7us46dgOoSPsvdbM6di6ugKlNF2ZsdR72FFhkYFceJwIgZKEUMio1wx7qvKlgxlZxqx4Le36eSvS4J9fkjO+ipyIkHcxLkjTJkzKlTXh/iBh9loKcYche1c3+UnRrIL39yUWlTTg+hDgTSUUTr1Mu5TY2MSo7uPd/qSIKGZ2FZZp7VqKrm9Wk5eai/6YS1q2Ih7Pf7iPzkELH8Yvb2cdpPIRwMoOkDpMACFkohSyX7cUFtltQiVtP9ryS+axbmrKZXfQw6vhSwS0JQjx7Yb+Gfj65HTs0O/uqrGeAnkrqEydyJbny9ZrZXcFDTc4lXrLslUDeZT8mdqLyidBxApbgjLs/gB8ii6MgNTnjOxdv5BLkicXq33Gm4PwcaX5kMltW4fhFKHsIqR2dqOHNgQmAkEE39U6AWjqss26oWrkw9oBA5BMAIfM+jCO/5cJcwvRG5cbmnDTjwFNlmMsJzQcEUAIgZNAPvBJIyagV5ZM9dyBJQCBiCYCQeR3G8CEQAALRRACELJpaK2LnQygYEDhaAiBkIGRAAAhEPQEQsqhvwqOdCSF3IBAJBEDIQMiAABCIegKxI2SRMC1AGYAAEDgSAiBkUT8XHUm/gUyBQEQRACEDIQMCQCDqCYCQRX0TRtTECIUBAkdCIOaE7BSLcopxJCghUyAABI6KQKwJ2emPfujUvmmf+6G6toQCvxMEAkDgeBCINSGLozAoCQWsjh/an/9QkArLRiAABI4FgdgTMqzZ2CNN2t8FfFhjHotOfFTLGcg3cgjEppBRahfatf8uYcMwBgJA4FgQiEkhY/zx8187H0+RH4R/LJozcmZIKAkQOEwCMSlkOTmjbzpH75w8Hm7Ow+wukBcQiEwCMSlkrMzR3zsfyk+DkAEBIHA8CMSkkCEnq2Y/0W5/2CPPLIJDGLCmBgKxTyA2hSzuVEnm4H/atW86/z6CHI8ZKTINfigVEDgcArEpZIlt/+58/u+KqpKTp2J/LjqcjgK5AIFIJhCTQsYGZ38k9zkoGxAIOYHYFLLM0TedY3dosKgEAkDgeBCISSFjMO78p1M9ey4B1pVAAAgcCwIxKWQIpejrT7S/VhfBT5SORScO+ToFEow6ArEpZHHoby234beWUdcdocBAYH8EYk3IKIkljHxJyeg2LC331yHgLiAQjQRiTchOX1v6ZO7XptGpzGxWNLYHlBkIAIF9EIg1IdsHArgFCACBaCcAQgbucCAABKKeAAhZ1DdhtM+lUH4gcHACIGQgZEAACEQ9ARCyqG/Cg89mkAIQiHYCIGQgZEAACEQ9ARCyqG/CaJ9LofxA4OAEQMhAyIAAEIh6AiBkUd+EB5/NIAUgEO0EQMhAyIAAEIh6AiBkUd+E0T6XQvmBwMEJgJCBkAEBIBD1BGJayGjpGYXV5aU8Oi1c7ZTA4hdXVuezUg4+pUAKQAAI7JtAbAkZrfmRyWyxmi1Wg3pcod6yvzdvTovp+AN/6aW3x56ubJrMFtOG7umEpDSdxA7hNXRPqBZXNk0G47pWNSotZpBEML9fi6VvtqwqR6ZXjGheZotVI+OQLiOliWcNHwIBIBAmArElZJQUJodfXDu8hIrLhma8VyKWSPvvNuIqQy29u2Qy6KZ7m0Qigfj22OKGxaSWcpJwuFzJ3IbFpFeP9krEzZLuCc2W2biqEBC0jMrg5hdWS5QbFqvZuKqUd0gaW3vlHcIET7WiXRriSuq9G4O5HbmyrrN0PF8vIpjdod406cdEZJ31zAU+AQJAgILEmJBhisCSqq1m3ainuGQ1zRmMT29nOBueIZ5aN6+Ni6j4J/RKSRPBRqOypWqTeamfT1acpPJRvcWkkrC8CJDzSirS/ovw/kC812sqnwhmNaxk58Web7K7NUbrxpQYhMwrQPgQCJAIxKqQGaZETjsLrzCCLjzVrVkE1UhqmDZYlu/m40JG+Mp+Vwp6wWKvS/vQKzEhW+7N9nkXeu8BhQxNgeZRBb85ehQerzjcBQRincBxEjJO75LVoOoQFpdW4y8hukjcmhAQF4C0rPzaZkn3XfmgYmRU8WjZYFkdLiZesIeQpXZdnLfVBfwS9jSdAMUBAkDgQASOkZBRS4d1Dt+8YxPA4bYnCFmGSKHZwvYBFtXqOZVKqdKsGiyrimCEjH6efqkp+VITu/9V3cMn6dj7ZPJfZvuScH6dK0IvSy5gxfpsCaYiEAg3gWMkZHGoRbYxJUpPoCVRHS/yJMCQPDKZddPNGS77K6l4cCVIIXOkefClZbjbHtIHAjFD4DgJGU04sm5em252HsWIoyQxK4XZCC5nhXeXrIZHYsKhMKS6bzFYiwxPDZHoBPe6fDj7v6pRLjD9OftjpodBRYDAIRCIJSFLYbK52RxeduldjdWgauWh79lZCS7zCmGKpteshrWnCllLc2PLbblSa7Qa1K1cB2hatXzZbFydloqExZXipm6FatVgNJmdFhmVkZXBQZNtnNZblocF6HtuBiMsLvnsVtWmaWVMRFBVWIECASDgg0AMCRlNPOU4DUt0gbkfVWVWOg7EGrdWNHPTfWIe8QgYlSWSTat16xtGq2FzXfOoXyIdVWuUt+3bmtnd+GlYgq/NOC12nt4I3cyTlD+4YkHNQzh+gVu4Pnpw6JhDRlFMIIaELKY6OnrkzbKqKCeYkzBigQAQ8EUAhCwSZyFq4d0lk1ZeCevKSGwdX2MJPj9CAiBkETlUGNWCSm4YVqwRWdmYMqWB8NEQACE7Gu5HOHdB1kAg9giAkIGQAQEgEPUEQMiivgljb3aFGgGBYAmAkIGQAQEgEPUEQMiivgmDnbvgeiAQewRAyEDIgAAQiHoCIGRR34SxN7tCjYBAsARAyEDIgAAQiHoCIGRR34TBzl1wPRCIPQIgZCBkexOgsrGoesEcwacWSvr6m/Odj0gK5t7YG2ZQo3ATOH5ClnDnA+2bTsfr1+oiRrgRB5/+leo5ZwnffHAtJ/gU9tamoNJktqotJmVjML9gTxArLVa1//gsQZUBLgYCfggcUyG72XPnXFXzuarriYkhHvN+WAf8FTuxqBktXsPXTVoQsghsIChSxBE4pkL24UclgcgKFeHmlwqLOenh+/22v1jlybJGEDJYkwKBAAjEmJCl5LcMT81pdFsG45Z+STncWOjxJBxsaelLyKiVijXHQxO1U4OqNTxuucoVRC4lv0WhWtYbTWb00YzTveXk6JZUtkg6qlSjFxg2V9Vj3UImeUUWRKzyIxOy9OJWrI5WtI6qflF+B3lp6T8eO61avkp8tqX9PWmZuSelQKYZuAYIOAnEkpAl5aNBbQ065bCspbmp9e7UssFi0shKyY+i9itkcbSs7MLq8m610Wq2bGmn+qVNLdK+QWk+LkbZrWgAcFW/pKFW1NA6rF43G5fvumIsYRF/LVuasf7bTWL06bJrVjRKAJMwpQQRq/xohMyBcWn6bpNI3NByd2p5Y219g+Aj2zMee0p2pahhUGOxakfEYkGtCHtVuwQ9AEr2DmqPDL80KAyfRewcCfAmqgnEkpAhcSyRhPjoahq/b5kcWpyCxPkXMkxxqCKl0aqfEnk8ZhoRT22Zlwb5znGFhZgjPpA6pVgsIdpoTPH0mlU/UksWU3tkzL1ilcftU8gy+MmXrpFelTXx9EC7KUOiMpl14yLXE8CRajk6Jbic/YHEY/fr7A+QEkKtRCP4rY2CkEWcTyrQ7kSYwsN6S2wJmQc1bLtN1cQg9INAhUwlId5lFzh04ant4xBSs0dmGhc5pc29tbALdIPV5AsCilW+TyGLv6HzCA+sS89wL5gHK/sFVNH0plXbV0ioIwVhui0t3e/1Eo/dr5CREkfz9U4JuwzCrbvT9qAHF1CQ2BOylIxScVNHbx8WJ3xkbsViJccfOYCQ0VvVFqumr9YZqLy6uLJ5bNVsVDYTdYrK4JWLpdL+YfmoYmR0WrNl3nQPUBJOITtYt8bqqGoin//ycvxir3jsewpZAJRgxAKBQAnElJBRORLUL2Y1rK1q1E9VqjmValEfQiHL6NA4gpMToihZrKiQ4QuxdEG/eg3bB1haVKMFmFPrtswekZYiV8gSWlSe57/chCyQeOx+hSxASoF24gCNTbgshgnEkpBxpYsG47JCwHI5pLCFUkgtMpOqiZWCBypPIhpicRSEWjuxZt1QtfJxXUPiKFzZ4uEKGa1xycvSMjPATox5/TamyPE0SUIWWDx2qlhptKqlbC9iFDAlL/cGWAu47LgRiCEhs7urSI7h9PJRbQgtsjhO7xIa+hcP6Isu4tKLK/nO0OXogCcfZ6dypKpDtshOZNYnX2oiv4Jw9mOHJ4yLd4tdq8v0hnG9y9kfWDx2hyDicTmZouGpweZsbPM3YEogZEAgUAIxJGSUFAE63rRjreLyUmFja+/YU/QwVxBCRkvPYGPxyTtURqtGVoq+z2ATT8OmlA9qjdYNzXivRNzc1HF3anHDYtL2FeI2IOe2xmRem7vbWFldXiuRDiqXttBY5c6lZXCxyve5axlo2/uatOm1Cp3JbFxVyrulTa29cuUKehjFuWu5Vzx2PFme9KkBO4nSKxtV6UzmTSV+DGUvSngKCHr8Ysuw5L5VctAKOtOHNzFDIJaEDImj8Rr6lZpVx2lV9XRvU/e0ZnGiibjA8e3sJ5yGJZznXFW4jonZTTD7YVGTYXNdq54ebiolndKgl0rH5rRrWwaLybC2rJK3SOVzGlW/4wBBcLHKj0jI4igIKR67clgyqN7cmm7EbTT/8dhdY4NRLR23H05eUY9K7OaY/Vv/lJwpUGsnNq3mNT+bwgfb2XBmBG+inUBsCVkg3dq3kEVcWx6dkEUIiuxujdGkkTkN3kDaF645lgRAyCJ4nXLMhQwRjqwaNN2u48cRIq9QjAgkcEyF7GbPHRb/Oot/BUmIQCFjI/nX0eLVRsrTL46m49KyymurnRspR1OGY2ndRCPqYypk8DyyaOysUGYg4IvA8RMymGOBABCIOQIgZBG4tIQiAQEgEBwBELLgePmybOFzIAAEjpAACBkIGRAAAlFPAIQs6pvwCKdByBoIRAiB0AhZhFQGigEEgMDxJABCBhYZEAACUU8AhCzqm/B4zsBQayBAJABCBkIGBIBA1BMIsZCdPJF0MubO2hGFH94DASAQgQRCK2TCv9Tr9FdfzJXcKaFGvcZHYGtBkYAAEPBKILRChpw8kXT23Rv3Luu0PCGYZl6Jw4dAAAiEnECIhQwrX9KlkmV91Z1UWGMCASAABA6FQDiErKDrkm6l5MrpQ6lAyKUdEgQCQCDqCIRByGh/mrm6/GXauahjAQUGAkAgSgmEQcgSBzRXF2SJ4OwHAkAACBwSgTAI2bs96qsv/vIeHlgIFphAAAgAgTATCIOQUQo6qpZXaie70hsLsDiGUWqsQrGBABCIFgLhEDLkbNLnSvRA2fK9P4JddkimdbR0OCgnEAgHgTAIGfXKvXqd5mJbAQ1UDFQMCACBwyAQBiFDnf3P+sDZH2anQDimNUgTCEQpgXAIWY/66rO+pMOQ4SiFDsUGAkAgtATCIGTUxi+v6ObeLwhtQSE1IAAEgIAvAmEQMsr7H1bo9BV/OgtrKyAABIDAoRAIh5DZf2vZBr+19DV7wOdAAAiElkBohYyZ/G5Zefrg3JVlWFqGtp0gNSAABPwQCK2QVffVvtDUKu+9L0w+FHvST8XgKyAABI4PgdAKGexUAgEgAASOgAAI2RFAPz7zJNQUCBwOARAyEDIgAASingAIWdQ34eHMeJALEIhkAiBkIGRAAAhEPQEQsqhvwkieJ6FsQOBwCICQgZABASAQ9QRAyKK+CQ9nxoNcgEAkEwAhAyEDAkAg6gmAkEV9E0byPAllAwKHQwCEDIQMCACBqCcAQhb1TXg4Mx7kAgQimQAIGQgZEAACUU8AhCzqmzCS50koGxA4HAL/Hwhix8JpeQvIAAAAAElFTkSuQmCC;" vertex="1" parent="1">
                    <mxGeometry x="130" y="720" width="408" height="207" as="geometry"/>
                </mxCell>
                <mxCell id="23" value="" style="endArrow=classic;html=1;" edge="1" parent="1">
                    <mxGeometry width="50" height="50" relative="1" as="geometry">
                        <mxPoint x="349" y="1089" as="sourcePoint"/>
                        <mxPoint x="279" y="1088.75" as="targetPoint"/>
                    </mxGeometry>
                </mxCell>
                <mxCell id="24" value="" style="endArrow=classic;html=1;" edge="1" parent="1">
                    <mxGeometry width="50" height="50" relative="1" as="geometry">
                        <mxPoint x="850" y="1090" as="sourcePoint"/>
                        <mxPoint x="790" y="1090" as="targetPoint"/>
                    </mxGeometry>
                </mxCell>
                <mxCell id="25" value="" style="endArrow=classic;html=1;" edge="1" parent="1">
                    <mxGeometry width="50" height="50" relative="1" as="geometry">
                        <mxPoint x="401" y="1210" as="sourcePoint"/>
                        <mxPoint x="401" y="1170" as="targetPoint"/>
                    </mxGeometry>
                </mxCell>
                <mxCell id="26" value="rear" style="text;html=1;align=center;verticalAlign=middle;resizable=0;points=[];autosize=1;strokeColor=none;" vertex="1" parent="1">
                    <mxGeometry x="381" y="1210" width="40" height="20" as="geometry"/>
                </mxCell>
                <mxCell id="27" value="" style="endArrow=classic;html=1;" edge="1" parent="1">
                    <mxGeometry width="50" height="50" relative="1" as="geometry">
                        <mxPoint x="350" y="1370" as="sourcePoint"/>
                        <mxPoint x="350" y="1330" as="targetPoint"/>
                    </mxGeometry>
                </mxCell>
                <mxCell id="28" value="front" style="text;html=1;align=center;verticalAlign=middle;resizable=0;points=[];autosize=1;strokeColor=none;" vertex="1" parent="1">
                    <mxGeometry x="330" y="1370" width="40" height="20" as="geometry"/>
                </mxCell>
                <mxCell id="29" value="&lt;font color=&quot;#000000&quot;&gt;-1&lt;/font&gt;" style="rounded=0;whiteSpace=wrap;html=1;gradientColor=#ffd966;fillColor=#fff2cc;strokeColor=#d6b656;" vertex="1" parent="1">
                    <mxGeometry x="361" y="1030" width="80" height="120" as="geometry"/>
                </mxCell>
                <mxCell id="41" value="" style="edgeStyle=none;html=1;" edge="1" parent="1" source="31">
                    <mxGeometry relative="1" as="geometry">
                        <mxPoint x="790" y="1090" as="targetPoint"/>
                    </mxGeometry>
                </mxCell>
                <mxCell id="31" value="enqueue" style="text;html=1;align=center;verticalAlign=middle;resizable=0;points=[];autosize=1;strokeColor=none;" vertex="1" parent="1">
                    <mxGeometry x="840" y="1080" width="60" height="20" as="geometry"/>
                </mxCell>
                <mxCell id="32" value="dequeue" style="text;html=1;align=center;verticalAlign=middle;resizable=0;points=[];autosize=1;strokeColor=none;" vertex="1" parent="1">
                    <mxGeometry x="220" y="1080" width="60" height="20" as="geometry"/>
                </mxCell>
                <mxCell id="33" value="data" style="rounded=0;whiteSpace=wrap;html=1;gradientColor=#ea6b66;fillColor=#f8cecc;strokeColor=#b85450;" vertex="1" parent="1">
                    <mxGeometry x="441" y="1030" width="80" height="120" as="geometry"/>
                </mxCell>
                <mxCell id="34" value="data" style="rounded=0;whiteSpace=wrap;html=1;gradientColor=#ffd966;fillColor=#fff2cc;strokeColor=#d6b656;" vertex="1" parent="1">
                    <mxGeometry x="520" y="1030" width="80" height="120" as="geometry"/>
                </mxCell>
                <mxCell id="35" value="" style="rounded=0;whiteSpace=wrap;html=1;gradientColor=#ea6b66;fillColor=#f8cecc;strokeColor=#b85450;" vertex="1" parent="1">
                    <mxGeometry x="600" y="1030" width="80" height="120" as="geometry"/>
                </mxCell>
                <mxCell id="39" value="" style="rounded=0;whiteSpace=wrap;html=1;fillColor=#d5e8d4;strokeColor=#82b366;gradientColor=#97d077;" vertex="1" parent="1">
                    <mxGeometry x="680" y="1030" width="80" height="120" as="geometry"/>
                </mxCell>
                <mxCell id="40" value="" style="shape=image;verticalLabelPosition=bottom;labelBackgroundColor=#ffffff;verticalAlign=top;aspect=fixed;imageAspect=0;image=data:image/png,iVBORw0KGgoAAAANSUhEUgAAApcAAAGzCAIAAAD126t7AAAgAElEQVR4Aeyd+3MTR7r33z9HlrEkhDLWXWKQZSmyrGGs22g80oxkjGPACY6TGPJmDSfYpgJJ1psFCuddQxIuBWSBwgnrVGxybO/Z4FTKHHZZZ48XH5IQZwEvhUl+wMUP+K0e3WZ0ly9YgqdKRQ1ST0/3p3v628/TT7f/j0SKwQcIAAEgAASAABAoRwL/pxwLDWUGAkAACAABIAAEJFIMVBxcEUAACAABIAAEypUAqHi5thxMQoEAEAACQAAIgIqDigMBIAAEgAAQKFcCoOLl2nIwAwUCQAAIAAEgACoOKg4EgAAQAAJAoFwJgIqXa8vBDBQIAAEgAASAAKg4qDgQAAJAAAgAgXIlACperi0HM1AgAASAABAAAqDioOJAAAgAASAABMqVQLmr+Caf1k/IypV+gbNIbMfxpq42+YqdlWuTb25TqPUFPh2SAQEgAASAQMkSKHMVV3XNtA5+rtUWwNfR4x+8Fzy4U5FJ8hVbvgwPP/S34SumlOKn2N7d9f2j9y/uXZIS621nHvZPntKsWNnaNg0t1r/FFQBNXIsVK8DqZqs2HPpj4I1NqaWtCTWc/9jiWm6tFS09vqHxbddvhPemPWJ167XckqcCgdICASDwLBAobxV/wXx0ofXjnozCLB6zXtD33Wu5MMUO3SP8MvFPaHBUdc20jN4jOX36Tyvyje2DvT8/+d3lXuVScgMVL+JNq6reO7htatzTok5Frat3Dd3YMXZEZ16GHL74WvD69JZjrRqXUbGcfIqo0TJKC08BAkDg2SdQ3irO1F9YDO9nUsfr9GYzdvmHf6p3681HFwJtWaS6EIM+PeeCv1Es2YMNKl4w5HXBg1umboR/W78u4y0vvhL8dvqlE1sKmPZl0c6W/7dtanwzleXXjA+FL4EAEAACq0hgDVV8U09gdDG8fxu25bT/3L3m4YXmwSl3O5Nc5EbSuxjsIgQibbeeWmw+tDM2RqMcFvytuKoV5dAyvNB8YYps86WP4LItY83njmNapv5Cqi0uq/Vh/iYts03reEHwIOEwLVNy/e6Pf4qW0Nu1rUgNULo7bDt2O3bstrnT3Ln63dvG/tre10t98u2+Gw8P/zy37/Jxi17Q3rbj++4/6U/5FOtdN7xpPPQ/m0cWfGMLm898oal7M9WjbuiIJfh6gTz/Ld5EV4hRSDf/vubELDm26Bv7xXVsUB06Xf/1gi3Ez0vUv3d8vehoE1aNNp5fJPs6hAwTOXjGfnGd+EJXZ0v+WlAOuPylQfv5f3vGFj0js3V9xzeoBZTipbW/OHTjlbE+jS6Zefyn2DfK/zu4Y2rCE6lK+b7Q/7p6wlM3Gt/YUGj6DIXMWjbIEwgAASBQPIE1VHH/+abRh4GjU03nxmytO/VbeuoH7rWOPnRvidvK/vPh0YduTuAA1+50Dy0G34jrOnO+afSe/+hU+NSXfA4HiY8fto7eI5gUPZbp+x6G9zep2q81nzuNiWxun/XoVPDcvZbRBe+WlLuio+0L2BvXmkcXwkdPW9p66o7eax1daGy3FwFabzny132Ts+///OTwxd2VKTfiH+y9/+Twzw/3X/6U6Tu1bXj28P0nvxt7F0skU3jMzbuZ4Uf9N77y7uiwNfOfgCc1n0T69Av1XuvQom/ob3jb3hfovbrev20e+Tc5JlgX39CxaXDBfeYLfahjA92rP3TL8/UvtqakKlds/qNrbBElaHrzhdC75v5Zz9iC5+tfrHShKl5Rd7p+bMF16Lia7ngh9PtNZ37xjf1Nh8edEwWoeFXb39xj/7b/R+8L3g7spT86hhY9508rkhM+XizXRf7fS1M3gm+k+dKFUqoLeb6e3nH+lSKnYgnprd88Nr3tWCh9pphOHr4BAkAACKw+gbVTcUX7tdbRxeaP+zFjfIjUbiMHF1uOdkVHZz7BlLU2/ismkTr6gwJdV74x1Tq62HS0R5UQZmOnd2ixuS9urMeGb1/duYf+feeDQzP1/gxSvW7LWPPwNcsmwYPi4/465vPw6CJ7cFtMMDYdDIwutg70pOhH/naykWNZVfzAmY541Btu/sNs//3ZlkBc4VDOy/Go6xX/MSuSTKl+XdNfyK+TKl716v94Rv6iTpq2Ls2xBd/504pYpTy6Ewu+838USKZtw8FZ39e/1BSq4ihDz4nfJ83fDW9ahxbJgx0xiz+visverBlZdP1HMhwPTSy+XrA1CQx6KVZlODb5yvU/WvIsV1fp+ideuf5Ha02G5s7fjtgG/Mz0K0NvKuM9pIBblvYguAsIAAEgUAiBNVNxmfbgvdbBMaNIO2XGQwut5/pVaIiUaQ8+bB08rxUMl+u2jLWMJnQdWditF85rE5MAlFKPD6Sp7KaewPBi69AMwWUMQefzOdWfaVwmbKcW0SMSswStXc0wqk0ZpgJ5RvMcKv7o9VcFmo2/+9bPT/b1eQSNtxwVp/VnFj39e8Ue8g6BR92lO7HoPvSmMIH0pW89X/9NF9X1DXttY4t1rwrLg0nw4/WFq7gM5eB4KWncS6R67BCaKMTmLnlV3DtIfn3LWCvoCdI2fBDNAwSUMLtrZPqVoR6+8wi/T72WtZ/eMTXpa0nOKvK0nfC5mNE2OP3K4GtLNeVTC1PMo+FeIAAEgEA6gTVTcdzycdLsjo9lvKB+fJAfItESuNjqlWH7fkL7ymKjKmE7t9h0cFv83mjdkIq3HO1MOjyNjOXQTy2DE1Z3NunlQ+T2ZQqRI46zoykL8+kEC/umYBVXdLw8/eT9T9oE2S5HxdGmMtd/tAhywyRS4U6zNnxocXNfr3JzS/Lz6t88X8+aa/m5heH3dV8vxJznCdRFqThKvGB/tS2Z/+Y2zaFffENfbIi6NPKpuPSlv/m+/h+zV1DCzXs3DabMTnQh37fTr5xpTTa9SH0FBCJHXpqaZv9vTsd7hnurlJFXbP1D26YmAu3F3it4eoac4VcgAASAwJIJrJmKI+c5u8+XEAb+Ail3U982NBBrt5FDKfHn4n1l2k7v8GKgPcW8biIGE7qr13ZNBC9MNZ5bSPOxC3jxXnpSuPoeH2dlbROtoz/VuwUL8/GfxMUW5JYtQeEq3oZU/IzQylyOireYkc0qnBOIVVzWUTOy6Ps6/TNrruNVXP2u4+sFexMuqqNIxd/NE91W90dXhvwXfSMJFc+TQ9Wr/5OphKkqviVwfXrHiS35VZzq2zo1Xfxu700vDk2/MjW99cxrquzRc0V3jGwdBr4HAkAACBREYK1UvPZgIwovF9vHxPHg8EM3x3+p7fKn2sHRfWVNsYHSfTo8mhZwzn3ZNDpjI6KSI1P5m5RaHB9YaHwjazzautaxltHMi+L8unvmn4oerJel4pYzc/03ThmW4sW1qfsXfGeOi73HIlscGeu9bRUyfYVML5HpJVKBex9VEyUm++Jr2NGKC1Vc9qZ1ZHFzr9DcF8eo84mttC32iNT8MUm+HJAtPvatRo1nKWG0oxdpiweLtsUlUt0GVUtf+Pr0lt/WF90BCnobRVMleAQQAAJAoAACa6XizOdNo4tNhzqTYWLGpvpTCy2nooviMVu8ZaArLl0vYF1TzaML/vhub1nbRMvoYnBfcl/ZOkeXd3CxqW9nMk80dPrqziWmCzJl60G9aCUenffSOjxmjq58a314W1PCmJO1TrSM/lSf6ZSYAsiKR+TlqDiG9f2j/+e/evGoEuCWI19t28UVGKYubfrW/fW/bU2ChW38eF0yRh3HDv3iGxxUbkjKTAXepjQktFy/4eC/fWP/Y6xLmuPrmv7iTqyLS/mJwtB/YvH4OD4iXbDTTMavYR/aK01C06/b3CZPNlO+HGp5n/xLgipIbQovJ8gQFZ5fFx8pZF38j8tYF99gOT/9yiBEt4m7d7LzwPdAAAg8ZQJrpOKKdhRe3jq6wB49bW3rse77snFwsXVwzFybcF+j09ZaRx82Hjxo5nbi+68FL9xDmhrzb/PBcSiHh40H+y1tB20HJ9jhxeaPj6tFwW5ocLd+vNhy6ryl7WD9oSn2aE9KFBvaSj660HjwIP7Gae+pmeQ+N0wiNe50Dy62XJiob+8yt3ZZ930eODdhEcbM5x+8KvUerJ7G6luYq08OX35Xg649mD6ukWinmTi6TZHuUcckeO+u758cnvyqqe94y+X//d39R3u76YI7Cq079ovv63/X9Z3WvfSu7q0v6oaQ/zx5Aiv+rn1k0TP4F7ytFwu9q+/9dvPYIikUXfWbNYOLvrFbtt7jmpfeNR782+axxWSMuhSToI1ki57z/2lsevOFptP287ObRwQqLsXWhf5z89cLm48N6l/ai730e3P/Lc/XC442gSrnyQHf0Iv2v9X1Hdc07VW3nbaivWq3jNGV+/jkoEp3DAWf549RjyZbaow6r+IQ3VZw98v/jkBWQAAILIfA2qg4H8V27jze/nnj4ELL8MPwuWve/T3JLWfRN9/YZDuKzlppOjVBdu3E2saaBr80xsLFcfzow+ZzY8TBa+GhhZbhe+ypCfKNbcpEMLlg7JAxpxsHF1qH7wUPHUzTeIkUI8x9U03DCy2DGU6MWeforD860zS02Dr8kB343LaFSFjqcfHISV9v/mQu9cyW+08OfBL3P+Pv7vp+rn1HXNSlmETR1jL58MAnwnVxVJdKd++2sdnf/fzod9P/aO9qie9ME1QzR3lkNPYff6kfWvCMLZDn/1bTdrxm8Jf6t+JlkGKS+LEw6EiWM9/WvPpmVdJQ5h9h6ND3oXNjPGO/bD7zF/ytL1xJWxwlWOc9bTsz60anyvynfnOb/sQvm8UB5Os2/77mGDo3Bp3Zcuw/zaHUg2Xy5WBTxE59WXAP3nIc+qNGeG5MtO7rUNjajeAbxhwopLqQbzn7xXm//Uv97lyPKKxRIAcgAASAwEoQWBsVR1FsLYkj2GDUKzcCwnXxleiFOWdCRcDZZMt3dptq79COqfGGoDhQoPBHBPu2Ln2X2kpVE/IBAkAACCQIrImK8/Hn4qNVEwWCizIgUKoqLllHHQxfv7HlkDuzy8T1GjpH/VgoxdNQxEQEHQ83vjlYBm1URKUKn8RASiAABEqOwJqoeG1/o+AINhhuyo5Ayaq4FKtS/d8/bpua8O1I29Jtdm8eubFjpE+T53C3nAptRg75bYMH8WC9qmapBn3JjQI5qwylBQJAoKQJrImKa/WKTfrM1lJJw4LBLkZAZltncEmXbtGubitv0P32tKc9bXXcHNh85gj+4nIbcZ27teH8la1fTwTh74uvbjsut6XKbnIMBQYCSyKwJioOLz8QAAJAAAgAASCwAgRAxVcAIhgNQAAIAAEgAATWhACoOKg4EAACQAAIAIFyJQAqXq4ttyaTPngoEAACQAAIlBQBUHFQcSAABIAAEAAC5UpgbVScC0ew6o0lNZ2BwgABIAAEgAAQKDsCoOLlOv8qu64GBQYCQAAIAIEVJwAqDioOBIAAEAACQKBcCYCKl2vLrfiEDjIEAkAACACBsiMAKg4qDgSAABAAAkCgXAmAimMSKdHfOLQQ3t+U9VBYLWHcP8GiP6J6L3j0uH7TEidrxq7Iycs1mnLtK0usdeFnCm7aXHv7vcDM1vWKDIg2bB1++be7FIXnljGlPGDrGXvtyq/7rk44VBmesup1zFgq+BIIAAEgsFQCoOKYROo+zg4vNvVty6LiuPnow9bhGe++fmvXef+5hZYL57WZ/pB57jZQ7WA++3XfZ2f1IB7poBQ6+etNjtvvBR5lVfEq/8XOq7++tnerNP32gr/R7P1n79W/s2F2g7F+OfmA2AMBIAAESoQAqHjUINPKsirBpp7A6EKgHY8lMPqMrTtVxiLbz4Yf+lfv1WubN+lz36jCGYqLNOCrtw1PZ3ZFQhxTi5WOJarGLh8IPHrPf7vzxW/2Z7PFJVK9Zu/f903+wPrx3Ayz/4o7jj3uvTCwIWtblw4TKAkQAAJAoCACz7uKyxTunXoOfbSEPvPgThwPjj4kmewynx+0tOHim5O/vvZ6IF1gGo5OPpifQ5/vhk5cunEnej0/0edKZLuxYffpkevTd+7O3bl9Y+LS4RCe+AldaOnugaHxazOzd+7emvrm0pE2UlzUuq4/8/nPz/145fTZ67fijzsdyuS4Ti/hU/hmXSulfcW+ToEpz3ZnV3FMIt8a+Oxx72cnNHIRgYJLqDf99l+948P4Em9f2kPhLiAABIDAKhJ43lX8Bf3+qeC5n5qHF8P7m1ZLxW22Y7/2jg/XZPKly/RkgyfSNYTE9c53QwM9Xe17Dg/0tKjihXHuGf/x7vTI0a7tW9u27/lofGbuzvUPqbgAq7jTU/NzP16/hG7c/c7A0I0787dG9viEQq6yMQ30rrPfzT2Yn73559Pdu3d19nzU11ZXsPitYv9LKUMeFZdiVVvH9k3ebw4v0RyXMsN7J39gnHk8Iimlgv8CASAABEqWwPOu4tGGIWynVlHFVd3brz7ee2hX9oVYXejk9IO7I11iIxuVDeu4eHvu2rGkJ0BGfzQ1P/unDmusSyl82/d01MZFXSLdGDp548HtoXZ9ivT6jlyfe/DNYWcyZUqCHP+tZYxbdoo+XJOy+MiA+Lwkx8uQV8Ulqq6Xrj7e258DZo6KYBJjX/vkr9u3LnESkKPk8BMQAAJAYE0IgIqjQX91Vdx/+TeTj1/ebsvewLyKXz/sTNM5GXf65vzkkaR3HZMoWk7MzN081ya0tkU5uw5fm791sU0n+lKKVPzmyZasd6U9Onm78o2p1tFF8WfKWptMkOPeIn/Kr+JS9+YLj3u/OJtl+SOnhEsxie1E5+SvL4XBFs8HqsiGW43OAHkCASBQCAFQ8Vwqrlf5t+nbvgyPPvR3bdMy0Y+vSHO2avtE7+T9iD+HcmRVce2e8QfzE0e2Rig6/uGQb/zO0C6hHqtsLdt3v9N37KMTJ0+fODd+c35uZHfcWI8Nx1EVjwjvKqR/rEwaBbEtGnyQ/NdPZNoRUICK69HyxNUxW7Fr2yq2ZvuJ5s9+3ffFRTzT0sbK1BTEDwgAASDwdAmAiudQce02cijFBl1sHR0zF+dMVuy81jv5L7ZhKSpe2zMRC0aLRb3F4tTuDO2KLZxjkW60Fj7348zkxJ9HRq6MjFyZ/LHEVFxmPLQgNuUXW88dzySlhag4fuh+72Txu72dZ9+cfNx79YfmrW4QbCAABIDAM0MAVDyp4kzmCdRyY9SXa4vfHenEN8oUuthHVEgddezGg7vjR2iB5Y11jaysiivar6Vq8OiU1bEa70AhKr5EW1yKSTWs49APvVf/vnkT+JOBABAAAs8IAVBx1JDRdfFVUnGJ/+KS18UlaJF7dmQPKZBMK8Ux2piW69qHZh9c/7BBIO3mjksr7FFf59hm3NIp/qxZdNsy18U3DbwG0W2C3iLoV8/IiAY1AgLPG4HnW8XXbbIrHYTSsa3+3GJTX6cKXdsVRvHi8XJtcYmqK1uMukxfV+vyOV2+9kvTD65/1IyuyVq9MDBtY+jY5J35WxPnDnd17Ors+fDiN7ce3J084omlMe8e+nH+1vixrmY60tzxzpFLEz/enb0jsMVVOOlE2bad+G7u5qVd/DVpLqEjX3jxwIwyYqOM2KS53B2Y2VGNrjfKNqkzvI1RmEuOUY+q+FI3qmUoDygiEAACQGBNCTzXKp5pvXZ0MdhFiJpk2SoutdmO3c+4X9z5QfzIF8Gy951LHeJphJXaEz31ZfbHmcnxSx91Cv3n0uiZMDd+vDv74O6tqT+f7tr94Z++GR9oi57+Zk0c+SJcX0+LfVtjO2zd253o7FXxxz/irhA1BCqkYvsE2i/OLHGrWBW6/Z8B2xrXF2YDQAAIAIGVIvBcq3hhEJev4pjUebZz8tfX9rKFPRE0JgsB+VYmenZbmroXBlZf0/9r7xcXl7hLbYkPzVIXyA0IAAEgsBIEQMXzDrIroOISKY7/lo+rsuWIVM9bkuc8gV7T8899kz8wDUs0xCVSHEXGwTnqKzFwFDZtes57LFQfCDwNAqDieSmviIrzZ4Bf+HXfZxdNmXZYwZiYl4CCufzm5K/tr7PZj8DL25TIIb938l/b9+4yOQNVIGZAAAgAgfInACqed+g3+vStXeqVOKpMs4s9dhGHvy++pNdGEb68/cCry5Zem37n5Zc/+9dvrozZYDq1pIbIO9+CBEAACDxNAqDieVUcEgABIAAEgAAQKFECoOIl2jBPcyoHzwICQAAIAIEyJQAqDioOBIAAEAACQKBcCYCKl2vLlem0EYoNBIAAEAACK0jg+VVxLhzBqqNHo4CQAwEgAASAABAoSwKg4mXZbCs4j4OsgAAQAAJAoHwJgIqDigMBIAAEgAAQKFcCoOLl2nLlO3OEkgMBIAAEgMBKEQAVfwZUfNM2a9dB7UqcSwPHgAABIAAEgEBZEQAVfwZU3H2aHb1H+MV/Ca0M67Vpc+3t9wIzW9cryrDwZfXar5QRAPkAASCw5gRAxZ8BwSh/FVfo5K83OW7zf5wUVBwmBEAACACBggmAipeWir+gIBi136fQFjO/W1kVN9oxfxPmeIp/vlONXT4QePSe/3bni9/sB1u8mKYvrd4LJQcCQODpEwAVX+Nx0Fd3brF1FH3Ch867LyxEr1tP9Sf/VofRh++fYAcXWkYXmi9Mud9oEjicXzAPxG6P3YiyEnrXt5GDi00HmwTTOpnx0ELrxwcTmazbMtbCF6B1+Bq5/1pT9Hr0oZuLCrnPeuiaf3+Ped+XgXP3WoYfhj8+b3asrPd+XSulfcW+ToEpz3aDij/9UQCeCASAQPkSABVfYxWXyWp9mL/HO7TYOroQPnra0tqJv3Ha6n8hrruEZeBhy4WJuradWmanBansQnAfsy5ebIV7m759rGn0of+NnXpuG/9pUhkTPTK/iku1uIpg9Ptn0DxgaIp8o8fcerCuq1MZewTKoXV4oenjz+ve6K/vm0Iyf+G8tihvQby08UolipdykVvFZfSH1+7OXjvWsrJziJQywH+BABAAAmVEAFS8UIFZ1UZtIgYXmwd6EvZxQu3WcV82jc7UuRO6JVPv/6l1eMyc1GmJNJdHvQAV5wko2q61jv5Un5w9JOqLcmj5+GDcNyBTtk00jy7421bD5Z5HxbmPpubnbp4EFS+JTpvoIXABBIDAGhIAFS+JARGpeLCLSIh3/EKmPXiv9dzxuILyHcV/Pjx6j2QSur5yKj78pTGDhY1UnO3yxYskkWr5OUffzoQ/IPnTcmHmVnFUfYVuDd8WeDQQAAJAoNQIgIovV3hWpEWzqbgeH1hs/fi41s+oE58tn4dHF7xb1k7FMdzy8WLrQI+sYHQKYpue2yn6+IlMk4D8Kr5yM4YVaTjIBAgAASCwtgRAxQuWotXUj2wqbreeSg9eQyvo/tbEwnluWxzl3HRwm6DwqdFt0Z+QR71AWzyq4oL4OEHmGXsz/8RY0Fy8OikOhlgrgIpnBAhfAgEgAASyEQAVL2kV11sGFlsGuhRa2Tr+I8UEJnii5MRxdvShyMee+AlD84CWgS6B3fz0VTxb50v/HlQ8nQl8AwSAABDIQQBUPCl4OTCt9k/ZbHGJqmumdWjCIjxddROjJcSRZcYu/3ByWX0dcZA8eFAdC3+TYft+ah2eshFx+d/U6R1cFO40W31bvHB6oOKFs4KUQAAIAAGJFAMVX0sVl8lq7UoHoXR0ugcX2f3b+Gu7TBhiZmyqP7eANoB19Zi3dFm6vgwOLbacOo6Jiv2Cvu9e6/BP/v391n1fNg4ttpw7jiUy2YQybx26RrR36rke8tRPYaGKa3H+oYS6a6p1eMJCEOi/mwTueiwtuq1oj3r+Nw0zyoiNMmKT5nJ3YGZHNbreKNukTrkR7TS7PXvtWCQ+IxFBSEkM/wUCQAAIPA8EQMXXUgkIW4Zl7wU3J1YpI4PvnwgOLqATV85dc+/vwoTbzKLl19qN+/iTYYbvBQ/1azeJ+u46oosYmGkaXmi+MFG/xWfsu9c8cDC6HXwd92XsyBfhuvWp/vhmcYkUa6o/97DxDWH8PI4ffZjIId+iuKgkWRKve7sz8Ig/flXwr3/EXSFOL9v66Y/zczfPtYn5rGULFlI7SAMEgAAQWD0CoOKgAWVDwPnBxJ27E30e2GxWNk22eiMX5AwEgECUAKg4DIhlQgBrOfHd7MQHwo3yZVJysUcBhh4gAASAwAoSABUHJSgTAoq60NaIFhQRCAABIAAEBARAxctEwwRttoKTOMgKCAABIAAEypoAqDioOBAAAkAACACBciUAKl6uLVfWk0coPBAAAkAACKwIAVBxUHEgAASAABAAAuVKAFS8XFtuRSZxkAkQAAJAAAiUNQFQcVBxIAAEgAAQAALlSuD5VfGynnxB4YEAEAACQAAIPNfnqEPzAwEgAASAABAodwJgi5erF6Xcex6UHwgAASAABJZPAFQcVBwIAAEgAASAQLkSeO5VXI5L5frlz4YgByAABIAAEAACT5/A867iG17/e+/k431X/h7ZGpDCKadAAAgAASAABMqKwPOu4hKpXqpy4z1/33f17+5N5epRefqzP3giEAACQAAIlAIBUHFeuW0nOid/bWbAtQ7zGCAABIAAECgnAqDiqLWkW8f2Tf4zYCunliuFOSCUAQgAASAABNaWAKg4JpHqTb/9V+8XF/VltRaytv0Gng4EgAAQAAKlQABUHJNI6+tPPu49eaAKVBwIAAEgAASAQFkRABXHJFLccfLX3gsDG8qq5UphDghlAAJAAAgAgbUlACqO1sKrwsO/mbz/2qEBhx/2m0FwABAAAkAACJQNAVBxvqnkAcexH/ZNPu797AQGFjkQAAJAAAgAgTIhACqOVFyz95+9V//JhgNV8rKZf62tDweeDgSAABAAAqVAAFQck0htEN1WCn0RygAEgAAQAALFEgAVRyruOPm49+wBRZn4T4ptY0gPBIAAEAACzyoBUHG0X1x/4Ife8eEaFbjTgQAQAJdj/4gAACAASURBVAJAAAiUEwFQcdRaUv/l30z+K+KHE1jLqe8+qzNrqBcQAAJAoHACoOK8bqFz1O/DOeqF9xtICQSAABAAAqVA4HlXcakmoG/oCpy8Dx71UuiOUAYgAASAABAoisDzruIbdl77zZV/dZ686HDiRYGDxEAACAABIAAE1pzA867ia94AUAAgAASAABAAAksmACoO8VxAAAgAASAABMqVAKh4ubbckiducCMQAAJAAAg8MwRAxUHFgQAQAAJAAAiUKwFQ8XJtuWdmIgkVAQJAAAgAgSUTABUHFQcCQAAIAAEgUK4EQMXLteWWPHGDG4EAEAACQOCZIQAqDioOBIAAEAACQKBcCYCKp7Vcpcnq9pqUad8n/uKZ0k64narK7AkSKeECCAABIAAEgMBqEgAVTxVjZW0gRLmyi7TO5GbperxyFVqlQu3yNjIEbqxYhcxXwH2kcvrDjA1LJVZ4zlU4xQUb1E9tAqQm6HDQrl56gQuv2gqmrFC7/EHWbTGsYJ5FZrXR0RjxWnRF3rVqnCstLjbiLRKI0kIx7LK6a6lUP/doILc4aNZfXyPPlOxpv3GZylAeGMu55KDi4qFHaXcHGYe6OlvPqzJ5mUa3Ti6+a2V6gM7s4WhfgA76TKuS/3LLXGX2hVi3ZukaXK2pZ0NuW9XK4MpfHTk/aVhGgfM/Ils/Wc73iHOYJUza5WSyrHuVDm9JzX4wFxVm7MVNH6s1BMuxlDmHU+1p9cNltUWeQlar7HSIDngbWZdOnfagp/3GpRVgbd6g560YoOLCfha1sy1Z7ewqi7Nx1YZXlcsf9BrkRitV7IAlrMLqXaMRgfMsR4NNdjrirzU+rXesWkdwyyvw6sEs6Zyj0zXd0qdrK1y7KjPFse7SKc/T6sAFYKzEHY1Bp0atdgYz+U6e8htXQIHzTEogh6UQABVPUqsy5Laz1Wonw7htGT1XOV/sarnO4SQDVJBjaMqJmzLOEpS1NEPUVMqtRAZbPGsOyGPG+ux2imY5mrSp1E6SZhk6fV1fi+Ek4WEYlqV8bqtGYOfx7kraiVcpa+xummE5hnKbMeG8vlpDcFw4IvxkGjKSJNNoIA+t8HYuzbSqWG+x1vu8NBtiOZry2U1FLyugHAjK38iFgozbaVVWmWx0hLKbBIXJDiE2uGhVBrvVQTocTgOmlVTiNrfPHjVxKnFnMCU3tY7kOLdV1JpVJpPD7aaCoWDQTxI6ZVanjqBUSW4VcoMSM2FqHFMJ+ScTRO9S1tJcmHXpistc+MRsOSC9FDd0agWlWJXa7iB5zixLeUhxV8EklTpMbUBLQvKNZqePCkY4liFTFolyU6o06OxeN+oJLOUmNOur1fUs53MU/N5VVymNSmwjpsGVmXxaCkSPMq/XqvAGbyMbYoNuh6XgzKNtoVaoTfJKVFmNpcHdyHFhliKs4kzydjZMUlVDBCMc5VSkaFuBnU2KVahJupHEKnVmT0p/yP/GCfsDXJc1AVDx+BCZz86uUBMUS+FFO+iq+fU52mmpUatxg91HhznSnL7iiN5DwqTDHAxD1Ih9zrlywJxBLsxRJGGtp0NhLhSknRa7w8eJTV6dgQyGaK/VhGPqGpxgODZgVcUrrnT6w6zTbHXRDGG3GcwuojHC0QQmMMUq5QaF2ukNc4TZqFAaFEpdleDXAl6A6qr1BiXuC4UpHDNEcxCKXwXmdAcjIarBrNuoVG3U2SkGuZTTKcXLnDLqSbFKtcsbjNAewmzA1Tq7k2Kp+gZ3mBNIXU4IUkyy3mL3sVyQcRMNTpJmWMZhIalEHAByMnOEQSiuabMEtELJ0R7CpNuIoTJwKRjzgdLq6gNeH8OEI6RZMM1KqWxldIBexrJLjhyqdAqlxUFH6PoavpkMcrlwrlCtMPuYMEcRTp3GpMQsOBnkWApP9CUpxicIOi2oOTiW8bp9bk+DYb2g4XJTklucNBeivTZzjVpTg5MM42tw0RHauTEfvfgjKnG7J+ClWS5MWzO8rfyU1OfU1QZoH4mbbXh9IJT5lYxnmMJfilWonF424nU6HBSv3x4f6aMcOmGT5etsfJ5ynAqFI7QjrWqFdDY+B5Wdoetxua6BbiTF4SZ53rhCYabVHW4sQQKg4tF3lbezPXbxbFrwGleabBTnrS3eQMRcfpZxaBKjv9rgzuTmraxxBQOOWi/d6BUNeVKsIlcOWrMnEvLY0VxebnOHYyVUORihDaqwUCHhWj4/00/IfIXOHQozbk/AGR+G0AQ/zNgEQ7NEilVoGhhkwQiYFPmGq+wMR7uU6XdVIjnkaFJdlchciyhlTJx+uxSTVFlcjRG63pKc/ay3EXRQWODcECSVJivFhXyEOm69yc1eJhxJOHJ5SnRy6oMeaiVFuq41kCzj5tsiWki0mht0FBtbhyLyAjkmi3K0ah7hcqbJPdDkyaHKSrAp85V4uygdXjYimmVWWpzBCOPEk/GY6+1uxI1x4aZkcyRbLTcltKTFUQSW6AmVRitBU2GOMCXeoHhhknlm+AYZ3DShypDGYKUijI9yux3K2EyUf4nIGuG0MjdAidSIemyY8yKXT6an53zjYplXInc3F44w9ZYkPb7ABXS26EO1Jg9LOpxko3CESZYn6xuXAUvyrnx1h5QlRwBUHDVJXjtbackduJ6tXbUGkkN+8vhrU7G+xtWY4b2VYAQVjoQavWaV0PTBJNLcOURjiflgZsxFsQEcqaxaR7JuPG4ZIM3m3HjSrq3SEH5kfMQS8A7GCOUURN3L7W42dW0eJWvMOCxmq3vK91qTO8IQqQMWgq9rYATliQ4ivMvXZ8g0RKaPMnzZGjSixNVyNJISWJR8PghI2FIjodBwz/kcUW8nKk9KZB+SW4GuI80W/FeqVtVSoeK1Fj2IdmWSH55nFe5sjFD1TmejWE3jHSwdTuo3eXNAc7jM0wiVg0mbPWhNHkQpOf1Ft2ePHclJqQIhZWyY6BWo1JAIbAarOqWDCf+rM3siTL1gbpHgw68foag3wXwUcwZDKSsjifQZLyprXGwk60aVfJ0t2iJoWslSNjsVQo4xUZXzd7ZoqfgpFMcyzsxeq6xvXGqXyFhH+LJ8CICKYxLezvbnsLPzBa5nfSvkVpKNeB1WnclmriWcZIBmI4yP1AhGECRj6y02DxuikoZgMsPcOcjt7jDn5NdHK03eUGwTl8lOs05NbFDjNZJx4jUGsx23k4QnGEIeUasiZojwDkZW7J7FCJr1ihVUbSC5UHH2inBUxSS8A0A4mUjUUeUIIm0QM1HaGS5coIobrVTKijWa/ZjckUSB80HQmX0RWmhQohdYqAT8Enhc0aMlTwm5QgrX6MUNVhPusDndbuTRDRK4KcXMStQ6ywX/0NSSJEhqNfVBrrFBXYVVGdx0mHUZ4nO1Qkec/DnILQEumOKejRbAgPsiaTMMVODEXEcixfhAjawbGXJSqkbLQ8IJAV8pRW2g6N2JudwJTm8Y9RZBu2hNbk7ou8rSNIlWwCRoy2XWHYz5OhvKp0LlcLMc2kxYabT6OI5yxh0D0Vk4J0SKqKbH91UadM4AE6Ss6ixeiuxvXP4KFtqdBEzglrUjACqO5bOz8wWu52g8DcmEWT/pdhFuVz1pr7Xr1DrB8IFJpAaDk/JTPncjlzleLHcOArMJjY8+fkVgvd3NUua4ZxjJIcuQBCqD00lYcataKXzt0dCcYrUoLIFQ6uLCRntjxF+7jB3MaPU948DHR5IHG9QijGhg5RrJmCUt+ilt4OA924L1bz4BP4QldhjngVBVQ7CcyyCyhyS8oRN3aSAPagoltROFXMXjkpCYhWgKNTTR4HC4cFPm0Ko8A2gO+ZFWK3EfEw66YgsfyDWdpqlpcEToCsmBn9Vl3g3Ir8eT4mg+nlKIqEn06iiWpGkuKkBuSqgrpi0So+kjl7k8WSubY/WHd1YHhIY439BBh0bc+qJipz6o0uANsVmnmHk6G1r8wh10JOSLKTdaMkNLBokJWd7OVq3E3V4q4PYFQynNISx21jcutTp5+qQwT7guSQLPvYqv5zeIJ9etU7t4lcG95A3iFQZ3KJwU1Exvi1alNlaiFbKgI249C5PlziE6Q+f3Q6Pl9qjMVOjcjGBFENk3lDPDanS0O/IORrGJjMZNb4pg80Z/qlIW06ErDN5Q2GcSOb2jqHnZSDkKRm4l2EzrDhmfuN7uFUWx8dnyIXsJpHkgrHd4w0nvRYy/yN7CHcEI5RCGu+v42U9igQD5A4qIwMpYESkmQZO2zN5sOQorEy988LuoCz+Ep7Ac+IqIapp4I9BMLiVkvUJDomjNpAIhr4ZomVxU09yUUHgEnfJoPhDPby9udyLySGdZ/VFEPQ3CUmEuKpjVeSB8GRPXudeb83S2yo12iuOCPsFG9qijKzE9ytvZMDmGK6rQzs8cZLK/cYkGhYtnhMBzruL57OxY4HpyUTnxJhd0oXLxgTmJWTYmqTTqdGkhcmiZLRFNpsbM1qTo5swhOl7w5qDJ3hiJirHSjnasJWwjdPKJWBgq1lt0CS8cioZlE2qHKlWJOxsThYn38mgce8xeUatr7cII9kJQVJl9XDjupa804Zbkpnzkwk2EgqPhFUUaogBj8WJh1qdEd8oJT9OT41Y3wwmspTwQqtDCRyLcj3+QzkAEBS59JD+cJ7n6Kzd76XDEm4w24F3utOjIvypNTSJWLmvhhXIixSpNPrQJKuZH0enMeDJAbH2N3WFFu5sSt6A4srTJR+LX9IuCckBSnXAvyw1OUzLIkTeLGwVH7yFvMB+WmChV1IsbD7lIFjVWmNyU0CIIJzo2UafDG1Adi9tTxx9skJi5ynGTIfH+8lNGsZ9JjlNMDos2HaMUzZiF7oeUaubpbNJqlYUUu8H5rXTJUuXtbNE+oDV5kvEuVTqbTrwmleONSykw/LfcCTzXKo7s7GCOg9jyBa5neMMFgyz6lY+5ZWlXrU1nqDHVku5GLiTexMV3IH72TToMZofdTXtFi3Y5ckCBRaFovJjcRsbEGA0xfodFnrB60UQkwtFeG27VGWy4w0uxETq+mY13MIoifSQql58NOCw2kQJV1biCEcbjMkVL6NiYmCUU+ALwce+c12k34C4XRSfi4dHtclTC6DYzTGO1EkwozKbuMM6FuhpDUVesn3CaTTbc4fY2chTFiBZ3c0LgF9E5jqWd5o0KuU6psdlIBm2bFgTJI/MuzPnrHTodrqv1emmGEc9+KtSEP4y2uuGmGp3JYSNoJsxm2lKY0kPE/0VLJJy/3m4wO50emkjfkbi+xmq363QWjcnh9KEjAsT7i8S5ZYSWJwedycNxjV6ryYY7KcrjSE4oo0Gg4QhNOnTqjWoDXwA2YBUeLYAmhalxkcIekptSpa6BDkcYD4mbraZakqBYpjEYCtMp8W7CDDNe843FuCxWk4UkKeFGOH79yIkL7kITC5p04Ya0uXVGeuhLFFueWKwRZBWHn6ezRZNVq3CX1Vyj0dWY+N2nQn9Y3s7GPxSVHL01JpvVSfk9icWdWDFyvXFZqxavAiQoKwLPsYrzdjaZObwT9eYKjEBR38UFx6a9BpVGg8Pnb+Q4dESG11lbk3lrisntD0ZCQYZMP4Aiaw4mGxV0W3hnI+byN/pMaDKuM5FBytNgEhiyKHqOCNAsOg7F626wmZJbgOS4j6bjgdzRjqtyehsZ0lETD3+L1UhuIN2NLDpQxVEjsggL7e5atd1HBblQY8BpTh0xK5Q1NpKOl5DENSnRA2lUUx+qVVsa3HSQCQb9HrfNZNLYA0yQcVuSQUw5IKAxUY7bPWz8wBOOcjeQdERkb1UaTfUBhj+RxllrURpIqtGbclBuldrhROfqcEwjTRKEWa0tdq4jkSYpuTKdDlSpcRI+9AjUlIRTvb6I1dyo3uTNoUJlc/qC6MQV0iWayfHM5RqnyxdEdaQDZL1TIz7WpkJDUo1uXWIGmdpMqB1zUqpWGFwuH8MEWYqiXLU1KgNJofNzbPH4g7w9gU9QZUIbzdH5RV7xAUe4gw4SIleBWlfP0L6G1LNrMpU8JthVNS60sysX+TydDWVuMNVTfnTmDH/GkdmY2MaCnlJAZ+MHKAdBo4HFTzqxeBxMrJDoEcm+lP7GCZIVhjQHEPhprQk8tyqez86uNFopdHZK8QMxvBXlSqByvVGFGeVV1RIp8o7ksrfW+r2FURgIAAEgECXwvKp4lcVJ5zqIDf1dKYrI/pfNylWooN8XRACtUETIIk8aKShnkH8gAASAwIoSeF5VfEUhwvD9rBHgo7QoR9Ih/6xVEPo/EAACzwoBUHGwqoFABgJVSkMyPvxZedthLgIEgMCzRwBUPMMI/uw1M9QICAABIAAEnkkCoOKg4kAACAABIAAEypUAqHi5ttwzOamESgEBIAAEgEBRBEDFQcWBABAAAkAACJQrAVDxcm25oiZrkBgIAAEgAASeSQKg4qDiQAAIAAEgAATKlQCoeLm23DM5qYRKAQEgAASAQFEEQMVBxYEAEAACQAAIlCsBUPFlt5y7t+nIXgO27HxK+WgRrKXr6OHtrme6jqXMH8oGBIAAEMhCAFQckyg45urDwzcGLYqlqFTlq//Vf/+vXnwp9xblNlm9xLV7hqZmpm/OTE/9+UMqIwTbOxPzs39qS/yd5lKsrJQZ3jf5uDf2GbOl/pUn9fq3Wp0z+/3z3cT4DkMr/7fgRG/FjsiVxO2PX95Zv3rAIWcgAASAwEoRABXHJIqWpslH/dNf2JZkTz8DKi7DfRTX1j00/WDmdKi8Vfz+9te7asK7apit4r9lqV5/eLf/0dsvvlMvJ6zVf+j0Pnrb9nqKkNs0/l3o3u2XOydBxUtxorZSox7kAwSeJQKg4tHRSr/kRl1ZFVfhDMVFGvCNSy7PUm/UUcdulL+K/8A4MzUl0eiaf4/4gzX2d2YN7hfvvRe4/TJmyKRVxr52UHGRlyITJUgABIBAaRB47lXc1mLbsduxY7etmZanNomHPPPXtz75wNX3xVuTc7/7+dH7V7/wuvGkTCpaWm486b+f8inOu95wdPLB/Bz6fDd04tKNO9Hr+Ym+5CL0xobdp0euT9+5O3fn9o2JS4dDKd57Bbn96NDEd9M/ogTTE0MfdXoSkwBd87lUC1vWNnRnfqLbljI0Z1NxXfOlW7ESxso29+Cpe9dltrbuk0PjCMLsj9+Nn/2gxZzmM+A96plVfP0nbwfmO7WbolVWr/9kj/92t+fRAcfbKeY4nwBUPPVFSOkq8F8gAARKiMDzruLyHYN7J//3wPeP+qfT18W5pskn/T8/en/yq5a+401n/nrg5yf901859In2wzVsh+MP/+i//7/bXt1ta+7gPy3KNIFJCn/a+CjTkw2eSNcQUso73w0N9HS17zk80NOiiqd07hn/8e70yNGu7Vvbtu/5aHxm7s514er1xuaT0w/uTo+cPNzVsat9z+GL1289uH1pe6yQy1dxTOtp277706n52fGjHc1b26KfhpSZRLy0OWq69J/0HRdn5h7cnjh79J3Ojq7uk+M35+duXtplFj80u4pvNPz3e4GpUGyW9iLlnH+75pXNtffe849sjlnnwqxyqXhd+9D0ndtDnalzoESXgAsgAASAwFMl8LyreFRaNH3/2z89mGbe8So++ak5vl4u3/HV+/ef7OujhYK0Eh51XQgp8UhXujRiHRdvz107xsjiMiOjP5qan/1ThzVWBkXb2dtzEx/4kkVSkJSnLv7fFVBxlNUyo9sU7p3GLeIP45MV3tE3Uh1dQg+EuePSzfnpE1tF0XZZVVxRjwR73M0Ltg673O0dp9YpNpmQtDelOWAwSU4V77xy68Hd8S5Q8XiHjPe0wlsTUgIBILCSBEDFEc0cKv7+mQ7BOEUzk08OD/cKh/4VU/Hrh51pI6OMO31zfvJI0ruOYvFOzMzdPNcW03UFM/Dd3I9//jCEiyQtXuaSUPEXzEcXW0fFn3On43OjeFGL6dY8hKljkcTkRiLFsqu4+8X59/yXN6MHMU3k/B6cwSRSo/6b9wIzWzM4TnKpOCaR6mTF+FqWUru0bgCZAAEgAASyEQAVL0rF9a7Lj/onj2sE4+yqqrh2z/iD+YkjWyMUHf9wu85+N3dnaFdCwLTch+O30Vr1zevjF09+2LXVl/DGS6QloeLZOl9R38v0vlBHd/fRjwZOnj5x8tLE7bkfL3UkIORU8c22+ff8474K6UbtN/s9lzdXouaLutmb1qdLch4VL2a2IegnRVUWEgMBIAAECiQAKr4EFT9lEIzOq6ritT0TaZFlKBTuztAugVRjEowM7T584tLItZnZB/NzN6+80xATJ95XP/Nps0Crioxu40VrmR51Aa4C+6U4mbX56PhNPrjv2jfjI1dGRq6MT92eu1Ogiks3maaQ81z5yg7P/FsGgq+Roq7mNpJ2XtHFwgwqvtz2EvOE3IAAEFhNAqDiaMQp2KMetcVTVfzw/b9Sy1oo5bU2k0cd2eJ3RzrxjTKFLvbJ0xt05rZPp+ZvnY2vGdd+MIFySEbkYUtRcfydcbQYnwh9L26YlpmPLqR61C+cVheaiWzrpzfnb43sYQQTF7Lvm8JVHFOe7Q48epucOdBwti4WzuZtIh6953onU41AxfP0sUIbTjwVg7uAABBYFQKg4ggrUvEbmaPbxOviGVRcEvj0wP2Hr79qi45Zyh2ftv9hLyawfQsYy7KquMR1+Nr87MgeUpCJleIYbWKc1bcMXBnqppNqJPN8eE2g4jLPh1PzsxNHE/Fxde0oHr7wnWZ8t1OgILupky0xD7at68Slw83psXiJUokvZEp/p3GL+MMQ6wrt0Ga0rDAuDP2TubpHirDFMYk3RDx6LzD/WnyzmVEz0h24166J7T0TlwRUXNx8gr4nBgXJgAAQKAECz7eKYy7MRmP1tO2T2f7pL1z16BrDEzvCUYx6fhWX0tTYo/7v//HykePMJ98e+PnJ7y7vVRbWtDJ9Xa3L53T52i9NP7j+UTO6Jmv1wji1jaFjk3fmb02cQxvJOns+vPjNrQd3J4944mnwjhPfzT64eyO606zzg08nbs/duf6R4CDVOpT5/K3xk++0t3V0nZuYmpkWqTgWK8P2czcezFxq58tTm3rsjI5CxZgeP3m47+in4zOzD777tHk54WmF8Ynph+udibtzN6982M5FQlu7uo8NXbs9i3bPF+pRxyRS9fo/vOV/1O38hKp+xWca2eN/1P3iW8mpj0iocqk4gnlnZqiz4BmMKOeiag2JgQAQAAIFEHiuVbxyx1eHU89seSIIXqOZqw/3/6FNMBDrHWfmfnf1lCHF1Na3eM/848D3jw5/P/vWJ72alF+zN4Pzg/iRL8kDVVLFSSK1Unuip77M/jgzOX7po046vs0smjPGdB4bujZz6848n+DcO8JNWajwGNN5cgQp3+0bI8d2NXR8evP2eOLUF9XukQxL73/uTpr70aco6po/GLo2M3vn7q1rVz7abotPI7LXTsBtuTaclu4+e2Xy5u3ZB3dnb14fGdjdPXBlYuRo3DfAlyFrjHqshLr1b+/gz1E/4Jl6DX8li4RLc+80I7u/mXtwN0lvBesIWQEBIAAElkDguVbxJfCCW0qWQD4VL3gmkcMWxzrOzszdvNSROsV5KlOZkiUPBQMCQGANCYCKFzy4w0hd2gSegorX7hm/M3NpO7jTS7snrOF4Co8GAk+fAKg4qPgzQoBX8X9tf30XzryK+1nx3zQrpI42rOFVdO/WrH/TTOVqC7me6lLC0x8R4IlAAAiUFwFQ8ULGd0hTBgR4FU/8gfD0vy+etwrw98XzIoIEQAAIlBwBUPGSa5LymgZCaYEAEAACQGANCYCKg4oDASAABIAAEChXAqDi5dpyazj1g0cDASAABIBAiRAAFQcVBwJAAAgAASBQrgRAxcu15UpkGgjFAAJAAAgAgTUkACoOKg4EgAAQAAJAoFwJgIqXa8ut4dQPHg0EgAAQAAIlQgBUHFQcCAABIAAEgEC5EgAVL9eWK5FpIBQDCAABIAAE1pAAqDioOBAAAkAACACBciUAKl6uLbeGUz94NBAAAkAACJQIAVBxUHEgAASAABAAAuVKAFS8XFuuRKaBUAwgAASAABBYQwKg4qDiQAAIAAEgAATKlQCoeLm23BpO/eDRQAAIAAEgUCIEQMVBxYEAEAACQAAIlCsBUPFybbkSmQZCMYAAEAACQGANCYCKg4oDASAABIAAEChXAqDi5dpyazj1g0cDASAABIBAiRAAFQcVBwJAAAgAASBQrgRAxcu15UpkGgjFAAJAAAgAgTUkACoOKg4EgAAQAAJAoFwJgIqXa8ut4dQPHg0EgAAQAAIlQgBUHFQcCAABIAAEgEC5EgAVL9eWK5FpIBQDCAABIAAE1pAAqDioOBAAAkAACACBciUAKl6uLbeGUz94NBAAAkAACJQIAVBxUHEgAASAABAAAuVKAFS8XFuuRKaBUAwgAASAABBYQwKg4qDiQAAIAAEgAATKlQCoeLm23BpO/eDRQAAIAAEgUCIEQMVBxYEAEAACQAAIlCsBUPFybbkSmQZCMYAAEAACQGANCYCKg4oDASAABIAAEChXAqDi5dpyazj1g0cDASAABIBAiRAAFU9T8UqT1e01KdO+l8a/UdoJt1NVGf9v4nu4yEFAbsQwQ2WOBPCTFKtcb8JU2opVRVGpU6mNcui9qwoZMgcCT5EAqHiqGCtrAyHKlV2kdSY3S9fjpSdIOhMZDDU2aNZugK7CKS7YoM5UAEUtzTUS2FPs2SUyTS6mGNUaguM89qrVpFShc4fClFme2u2LKSfcCwSAQAkRABUXN4bS7g4yDnV1tkGtyuRlGt26UhwEN9obIznnH+KarrxUVGvq2ZDblkmE1DqSC5HW0pv6rDaTovI3WqkI7diYre+tyPdKO83RhGrlW7+omkJiIAAEVowAqLgQZdTOtmQVmyqLs5ElTNoVOxG/QQAAIABJREFUGU9LO5Pqyip1ka5dk52O+GuNmeqV4ych/+f7uspKsBxhUmcCuFJk1AY3FyJrsvZwUHcgAATKjQCoeHJ8rDLktrPVaifDuG3ywttY5fSHg4SD9Aa5EN2gwyx2TzAUpJ0G0TygYr3FWu/z0myI5WjKZzcZhfKpcjBckBT5otfbSJZz47r4cK+Wq4wqbKNaY8q03qk1uSMc5VJWGQ1OigpyocaA02QQPkIirVYanE53AP3KBv2kU2N2h8K0VZWEE39Wxm82OhojXFj4YeyYIKXc5g6zTl21XON0+YIhlqXcTqxKkAAhrZbrHE4SlYGhKSduKl5pquUaK24nnU6XWWeokBqtPoa0JGYVaoWa51Op01ga3I0cF2YpwipozbwJMIncqDE77U7SXmtVybEKg5umSE2sIrgzGBE0CiaR6kwejvM5FAV2GIygwrQN02J4gzvWGbxWjairIEq56oiQVmF2h5umWY5ppAm7RdwlUEv5nXYrEUAJaMqR2hNSGgX+CwSAQKkTABWPt1A+O7tCTVAsheeIeksbrCsM3lA4wlBum91NhSMhlvU67Xg9ExKsfVZgTncwEqIazLqNStVGnZ1iwixhSig0VmnycaKFTLW6PsjRBJZYfsacpC/gb4xkWXhGnnbKYTW7GT/hNJnsdg/LiRRaq3EyoXCQdNh1mo1qg8NFcUiSs6xwZ5Lz6qr1BiXuC4UpHDMolAaFUifU4ApNAxOmrGbST1N23Gaq9VLhCFNvEcwkqpUWimFpp6VGrcYNdh8d5khzEkKmh8YbLoq90miqZ0Jh1u92O+t9FMu6a10EG3GbYypYoXJ62YjX6XCg2rGUx0f6KIcuqZF5E1RpXKilaIqobyB8bIhusDoZrjExwUL+cMpuShYVc/nDrMtQqG1dZfZxLOUiGYp0mXS42sQ3BOszrY/XNF8dJVJMbnLT4QjtJswmq7meDoXF3pH1dnc4wvgIg9pQJTdo7IFQOOjUFFrCZNXSujr8BASAwFoRABWPDpG8ne2xCyyz+NAZEwmTjeK8tSIrOW+bKWtpLhhdREdDfNSOr9C5mcSDKk02OsLRpDppmGoNbo6jXcrEQIlMNNahiZdH6fCy6V59rcnNiXUxnl5uI8MRv4dy2zfGlLWqxiWwGtFKP0vb1YKhXG4j2UixYVYqOyMqdqL8UgyFtgVpv89riAlSNXIwJPUPq8BcfpZxJOUEOX45T8Yl9ni9BPlLpGq1M8gFfTgWq0VUkrlw0K5OpDci1GHO67Qqk7QTv2ISac4ESrub5aj6mrhpq9URQTTXScYBRMMCEmv/Wh3JcpQz2Y6iAgufG7tWO1lUPMfGZGCB0ukNJ+z7/HVEtQ5HaKImlkOlxcVGOJ8j0asrdGg6ZU5OC5BpHiJqBNOpDAXL288hARAAAmtIAFQcDVt57WylJXfgesaxr1pHcJzbhrSzEncGOZJf8pTjFBMfN/lRlSPj9mK0HyDtD/sMCaWpspLJoTyLNlTVuLItqaoJOhxBcpKw3aVGK8V5LVFLN2ZBisdxQ/FhVshvzxBC8zrBBIW2ccgqTRq+VWZfKKniWgPJMURysbZifY2rMcVYT+SW6QKtXLCEIH+JtBrpethnSsQhVta42EiuzQW5Eqg1BJsaOcjbtcJgNBSin6iUijfEdYK5UR4V1+G+SCh1vQbFE1AO3r7PX0eEkQu64x5+TCLVqjQmpTwZqsl3raCgIVDrCyYimdjmKTbcAgSAwBoTABXHJJXIzvbnsLPzBa5nmYWhIZKODsHrHV6WsaGlYmSxJfyuKkeQCwfwhG3Ej5hKOyNScSmy1xknjmYbvF3uStOGqMs6aWMJRl7kpw0HncJbKi3OIOvU8IO73O4WGvrRG3k9I82FK1B0mpKwGlP6NJKiUML9wD9CZWeS0exyK8lGvA6rzmQz1xJOMkCzEcZHasRYskBGz+Ljrl0pcddIsYR72/gYBYFpnlJITJIjQVUNH3eWnIWgwlTWEGxENANTuajYUoXWQLIhT8Er4ig3C1pWF8/nJNJoVKChoDryTpeY5As6gICbGsl8OMKxFB6NeOCdLn57InQgjUnmfCAZEAACJUQAVBzLZ2fnC1zPNtLFtBAN/cjmZr28eW20UZzLEDWPeGM92KAW5YB840mTDv3ED75IBVG0VChTtFQObzbmCHK0WOEwgmK9uqitz1t4MUVPFANzUeHonKPgnqpEcXyZNZIPbXPpkhahRKozexLOAEyiIZkw6yfdLsLtqifttXadWif2DeQuBu8GEK2yo9kScgAk3d1YpcEbYgUejkRl4xe5EiB/RiA1JCKq+sIgvkrc0ci5zdoKNUmFGXv2/YoCZY1XLT03KSZBKouiAiXS/HXkZ3KsIzo5i1dK/CAUIeF3ulyNUaO/WmWnOTatXpnvjZcTfgUCQKDECDz3Kr6e3yCeXJFNHa2qDO4lbhAX2HYKSyAmpWhcToyb/CkfKUFkcivBpjqTkUgHG3S6BjoczDRMa82eSCizNxuN/iFStPAptwQEdjBaAqfrBZvrKg0mMsglZL6w/srH8flMiVUAwV0Z/ARoS1UyAL7CsMxzSHj/vzNlmzW/UhB1hPCFyTHRiUpdjgQZT0rJVOXotninzccxZHxxWoBCrKminobmEMJlFP4uhYUKBRt4D3n+OlaavChoMUf0ZSy0jbSiqDfWTVJ0mHVbigv1yFEF+AkIAIE1IfCcq3g+OzsWuF5MsHR81ObFKboui9Q6tklXQ9KJpVMpJrcEOJHVi4Ls+AByoeWKVZq8oXCQjplQotGf7zTI70rHZawSsxmSO8RMyPwSuUzVBpIVbIhSa+qDXJj1E06zyYbbG0iad7oWE5aFdjchv33U2YBWKHBLclrAn9qWCORGha/QNNBC9wByRHOiXfiVRp2ucHVBMxWOcgo3dMkNKFQ7GojAI+L3ScfDETK9aTkTYAQdZkULGVUmm49LPz5FjlO8yzoxUUtvrMzfoDmEOHSgEnN6Wc5tQe70qC2eu44VvEsj1a0S740xh1A46CZ9frTLLsKFg4Q5ZcNh5rJlwgUpgQAQKBUCz7WKIzs7FkOesT3yBa4Lhsj0kU6wLmuw+iIUL6UKSyDkcarWx5ec5RYnOnANbTPDNFYrgfZKkXiagCEXd4QLM3ZMpO7xh0ad8D6b2Wp2eP0+wSY0tFbKETEHPl9H5PVl3Q6HIR7OLak06BxefyOHtnH7vHazxZrVss9ICX1ZoSZpFP5tN+AuF0U7kzu4ePPUnYjcRomVdibkIcymeMy8FM2lOJZ21dp0hhpTLelu5ELCrXQ5OaM5hMnLhDl/vQ1T6uQq3GBHO9l4XIkCo4mON6aIiS+FFzkTRLcSNPqsOqN8vUFlsDt8LB+gLqoXag4UuBChHBuLWRGIizRasaZdtXaT2W6rp+gwHxIfr3v+OqLwjgjX6LPjVp3BarIQBCXaGCnokCgIwJvig4k/KN6phHDgGggAgdIl8ByrOG9nk4Kd2SnjFwolS3q/i23Cao0zSJP8XqlK3EEHnbyUKi0UTfvshqRxX6GssZHojI5QkPG6SVyTaUm4qsbZyFKJHURpA26FyuaiWP40FUIUFIY5vY3xUKboXZUb7TQ610WdCN5OzQ13BHMLXkYUWrXdFztSxiychRitvqBXdKBbNeZgaMpr1SQhSCqNBgdvI7Is5fE6a2uybAbL+Gikgmo7hULx+U+o0ecgKJpqiK39SzFJVY2rkcm0GBHPMF8CRDjqpUCPYP1EA0Ex7uSRMtF8qpFSiqLE4/mnQk753mSjWNpN2tBhLBG+J7htJqNwz33+OqJ1dByvRwf78BviG6wGYQ7VmvogndwIUK3AfTQbJMGjnqdpUloK/gsESo7Ac6vi+ezsSrQdK1fg+jP68ldqGugwY0v65Euuy6ZMtpL/rdIpMZNSuXp/E6y6SmlSYUZ5puV/5JBABm6Rh9UU24tWvY7l09zFooP0QOAZJfC8qniVxUmL/I1JMeBbukLt8lNE9r9s9uwMdlUahxW3ajS4RmfFHT6K5byJ82Ge0U6f0tYr8N8qg0rnIBpjB/usQIZAHggAASBQGIHnVcULo/PsD8foUE/K38iGwhzTyHhJwpzRpQ+4chJA3mmaJhxWRfJonWdnnvfsvwU5GxeqDwRKnACoOIy2QAAIAAEgAATKlQCoeLm2XIlPD6F4QAAIAAEg8BQIgIqDigMBIAAEgAAQKFcCoOLl2nJPYYoHjwACQAAIAIESJwAqDioOBIAAEAACQKBcCYCKl2vLlfj0EIoHBIAAEAACT4EAqDioOBAAAkAACACBciUAKl6uLfcUpnjwCCAABIAAEChxAqDioOJAAAgAASAABMqVAKh4ubZciU8PoXhAAAgAASDwFAiAij8PKu6ydZ+iml1PoT/BI4AAEAACQOBpEgAVRyqux9rOBy48bBleCJ/60urXr9G5ylX+iy/3H9iQ6enyHV+9//PDXV2epXQOBddy48n7n7Qt5d5EYRRM3ze37nx3OqRYm3lPZaSx9r/f9s7vb/jv12resYv/audKFUkXOnbjzu2JPo/gr6YmCMBFgQRWuatIbX0vnTxrWu6f3cM12y9u/+z+vqv3mxn9sl6NArFAMiCwOgRAxTGJsv1a8+jDxr7j1jeOkwM/tQxP2QjZ6uDOMVhIbQPtVx+/eWhXVaZHy1/9r9/df7S3m86RQ9afVkbFI0euzz6Y+bQZWynJLCKfykgrOX+AuOhTEZvWv9VKzB8gz9atgpDrms9NP7h7Y4AGFS+idVI7nmKVu4qx66Urj/eePIBlelNSC5MljbTh4m8m77+891XM6K6SL6OyWfIvsBiQDAgsnwCoOOarO7fYfKhzXexN1qu3dGkdLyzp5ZStq/Wp/YxqU9GTAPlW5rPH+z47oc8xoCiWajGsiIojILqi67UkjKndWmG3zLzn/6ZRFnMDbNR/cyDw6G0Lo05NuRKPiz9ljUd2GUY20C2Uy7p6zFU4Q3GRBnzjKmBc3a4ibbjYOfnra3tZ6VJbfMPrf++dnHAs16Bf406yCg0HNSo/AqDiWBMxuMju82UeDrR2fdeXjRcetowutAzO+A/2YEbhmyPTHrzXOrqIPqe+rB+41xK9Hp7ANwmT5bvWY3v/vm/yB6Yho07bNM27HTvQx2xLS8Ceemvsv5q63m25/I/93z86/P3sriO7lQKnd+Wub/vvP0n5FOtdl9ki29s60GerT5sZ1Cp2/YrWlz2P9tteiWl25Ssve+a7Pffe817eXLGChcF8oWgd21qcy/Y3yBRMv3fgtFqbr+mT3GTc6Zvzcw/QZ/LisZGbd6PXsyN76hKZaOl3zv75xo935x7cvTX150+7aGviJ4kUk9nauk8OjV+fvnN39sfvxs9+0GIW9ASJFGs4OsnnP/fgu6ETl27ciT1uos+VLIYwwyVcP62uguO//Vfv1WubjUssuTQ8vHfyB8aZ9kKtYI+CrIDAUyEAKp5Lxe3mo/daR+/5uzq1/iZ92+nA0GLLOdHQvG4ToXI32T5eaB1dbD73ZV17l7nteF2bL27ZFzQOyl+NXHm87+QBRcYmV3DU5X/svzF3+P6Tt7psKRlWvvpfh+8j8X7rk1PMkcHXJx/233+07wiXTIZzth0fvD795HfDx23NHdGPpT41n2T6TGVQtZ2euD45dXv2wcwarIsrP3k78KhTu4kfrxVWfOoA+Yc67ciBwO1WlVilZPSH1+7OXjvWshT71dZ18ZvJazO3HsxPLk/VNjVZD/3UMrrY9PFxrWjOlxuyRFHn9ERCH4wjcb09efFod+fu7iPHuhvidYzWburS4c62tuaOd85+c+vB3fFuV9z5r++4ODP34PbE2aPvdHZ0dZ8cvzk/d/PSLrOgQWV6ssET6Rq69WB+7s53QwM9Xe17Dg/0tKgEaSRSzNkz/uPd6bNtoilCnsLHcyi8qzCWg+fxzEtXen3X5/Vb7PE8Mz/a2IdWoA7syPxr7nulmETVvf3q49dedy/x9rz5QwIg8LQIgIpnV/F13OdNo4vBrqSZvs59mh1dDL5BiJtHZjy00Dr4pbGYIVuQg5S5vHfy1+1bcyqrYvfrP2dT8Ye7dsXjzxUcc/VR//df2YTW5Ap51J0fTC5RxRXuncYt4g/jkxVoRak14+8F7u3AeDFb9/Zr3tsvVxsw5VmBtMdhyriPpubnbp5ckorzmfAG8dJVXK9u/5IdXmwdmiLaCq6giIOsbejO/PTFDApa13ll9s6f36mNV1bCy/bNc23xKctGqqMrhCdzM3dcujk/fWJrXOZjN+pCJ6cf3B3pEqRMUTLnBxN35m9d7FiKikezKqCraDu9wwtuLl74ZLElUoywnVoI72cSNc184d589nHvlYumzL+KMkypIP/frcwXj/ceejXTT3nvhQRAoIQIgIpnVfGot/yaReQbR4voracOKkVNyKv4QE+hsiS6VyLFND3/7J38pztqa2YbknKp+F+9ghG5csdXv7s/2xIQuArXWsVfMB/lFx2iyw3Rf8+dFs4zstUafW/Uf/Ne4HYrWibA6mtvH3C9g9Zx5X/YE3j0loFIhSlRpIhWWoJcz8KWruIydw956mHr6MNg6rJLUTrBq/hIlz6t2NiuP92dGxd41yVS3fZLsw+uf9iQrUaKlhMzc1PHImKl5FX8+mFntrv472XLw/hUVFyv6fmhd/LveV6cbNXkHWC/+e1STfls2cL3QOCpE3i+VVxBbNNyB/1Di02HevTMNi36NKliJrUeH1hsHfpcL1ra5AVp8LxWNMguT8X1eP+vvZMTthxxbVJMUrCKS9yn9t9/9PqOElLxomQsLbFOi2zxlzEFJj/8ln+mVcnL//pP9gQe7dbnnvoU/zotWcX5jjE8VbfcbYpZVdx1+Nr87EhPC0VH4p8W5Bu//Wlz3OWOlsb1vlBHd/fRjwZOnj5x8tLE7bkfL3UsQcXTWkHU4fP+mkPFBaEkwlld1uuZOiLb4xQ7r/VO/iviF3T1glq8Xh8+EDj2w76r/wzAunhBxIpr/WztBd+vEoHnWsUz2YijD0kmOuq9wKv4lykqjr4cPK8Wdetlqrjt2K+9V8dqVlbFXxUMbWttiy+z76rOdgcedeq9Pse9/Y63onMsdfXlA1FpX2bmKbcvWcVl2BvXmkYXW859afXjyxgZs6m4jEaLBbHYNOFFUsWtzUfHb96du3P7xrVvxkeujIxcGZ+6PXenxFRcIkPLK53G1vPB0YXGfZ3oOvVz0H1hsXmg34y+3xafVae0lESKVW2f6J0sfre3fFfz+OPeyV9fO/Bq5kiUZTRfeiHhGyCw2gSeaxWPws0Woy5T77/XOjpldQjbgKm/sNj68UGB9YMMILQuvmSPuh4/dH/lbXGhiku5pskn75/pEFZkCddRA4sS172QfGTmoyj6T/S5cFo8E8qRT8Xr7d5HBxpmuv1TTeujT1fU1dx+zz/iXvEt47yKLzVmW0Z08U71hWBfj1q0EJOjdik/ZVNxCbLFb11ss6oUOlnsI55Kbv305vytkT2MIFSN7PtmLVU8Z1dZ/ro4tlRbHJPI6/U7x36TNxgF5BwIlAMBUPGs6+KSdf7z4dFFdj+TCDhfx3weHl0ItKdEzy5PxTFsb8Hr4rtSI+D4GHXRunjMoy5ScRs5/Kh/8pQmJoEcdeYLik3NKkVO0v+LVPy70zmHZpGuJHKQKf1p9hZDJKjmfU+wupqZ9wKPum2vxNa8Ze90eh9117au/H7xZak4XxEU4BYcQgFuZBtTfKhEVhXnF7lvXtol2OmnM3PJTXHmPeMP5seFMWsyV/fIGtriebqKttM9dI/MHN1mt378kN2XL7pNrz+A1sWXutkMotsyv62J1xYuyoUAqHh2FZdiuLHvXuvow8D+HiOzzfzG58HhxeZT/Vh8pXyd0a50EEoHYRlYaP24H0PXdoVRvAyZ/1WR+i8js2B7RlnVy3EPVk9j9e/u+vnJ3r4WdG3zyOMGcWEqjsmbv3j//qMDw58yfZ+2X33Y//P/NgnD33LrKFZXa/M5Xb7mkzcezHza7kLXtfjGYqu5nFeisrWVfPRew3iT5pXN2k9ea3j0XsPF+nRDHO3Fuj17LTWeK38TSKQbzXwdnSiue3JgK6qj01YnsGsLySSRJrrZbGjCXLBFrrBGITt7Ru7MT/TRPGSb6MgXc9ulm/OzN/98um/3rvbd7wwMTd6Znx3fQ8bAut6ZuDt388qH7VwktLWr+9jQtduzd+4mbXGZvq6Wb7v2S9MPrn/UjK7JWn2GYEDnnpEf794421b8aTBPtavwMepfXFzqeck72C8e/+a3EKOe6LRwUa4EQMVzqbhEiuHaN6KnviyiU1/2dwlOfYm63MWO4tHF/Dtk0vpKrv3iNDOZemZL//1H7fHgtcodX73//bekIEZdUn987/cPX38VF6umHtvx6a7JucM/P3p/8r+YYv4yiqztUvx4EMG6bL4gZ/HT06qce96Q6dfKSKMNnaN+wHv7LdvhunWZ0si2fvrj/Jxg81XBz9V3jwgXm2PXmWLFMz03Y2VlitrCF8h5H4AAb7QAaeasmYud+nLn9o2JK5eOdPiE8wwt3X32yuTN27MP7s7evD4ysLt74MrEyNHYvjvkSkmrY9qqOTqhr+HYjQfzs38qfqfZU+0qmwZem3z85oGtGeHn/5K//eWd9flTFtzikBUQWBMCoOJ5VPzptMqG19HZbWxDivQWLEIw0PAE0Ebnu/C3TJbZbdDG9Adr92dvCnvjcPwQOrutfqlnt1Vtv5Z/eye8VkCgHAiAipeEikvkWwOf/brvs7O5zlH//+2dX2wb173n974Ui13sy8Xu2z7s4mILigwpmmVHlCiK1ISiyNAjcqkRqdFwyBnSf3SVVBsb6o2c3lYpbuQESXBRw0gCxxdyHVgVYOcmhrLZaJHIgKNgb2UUFgy4EuBKMGpFqBSikII+1MiLF2fIIWdIkSL1lyN+AcKgxeHMOZ/fmfP9/X7nd4Z6GE/VTcF7lJkyX6cGbyytzV/ObTE4ypbo2VKWvqsLG/cnpNrT6YfYa3P/7Z/d/8v5fxB3bWXrOTxHvcx9dIh23LX58EU1Aah4fai4kTI8f+l/zX3/s3fHsPtFPUBreG89mTybVhV/YZLaFYH29BkpcphFDzWYOCswHeMv3fn+l9fGt/0N32rP9vzET3/7l9EPLtG94o/wmyhQbj0TgIpT7dTpsQ52tzUyu5ooy4wYc++Nv393b3NTmTNXO7Xh6yBQ9wSMz7995oOJ9j1Lr7V/4swnf/zF3B/T+H3xujc6ZrAKBKDi+ynDFUDjIxAAARAAARDYdwJQcag4CIAACIAACOiVAFRcr5bbd4cOJwQBEAABENAdAag4VBwEQAAEQAAE9EqgcVVcSqWplrreTqM7lxANBgEQAAEQOGQCUHG9+l+HPFBwORAAARAAgTokABWHioMACIAACICAXglAxfVquTp0CdEkEAABEACBQyYAFYeKgwAIgAAIgIBeCUDFdWA5i/ifny79u2e519+ONpe22Zm89nB9tdwPgRg//n/5r//Nwk+th+wqVnU5+9/NF/r4g88GSvtItQ1PL288ns3/FufhP3DK2tk29+bAX19tf2Gb5hle+K8rhS78h19ve8zhtxlXBAEQONYEoOLbTcd1ZnJZxX8w/7P/ce70D8+Jpu1+79J55tajzY2HE/w2PxdtMNpiAz88d/qHoy//l2+W6lrFv7n630dP//DcaUOsbRu7tI3MPNlam7sYq8ot2GcjOp4TYt574wN//eeyKm5vPiXKnH/1H58tQcW3seBRGA7NAIFjTgAqrgMDyyr+76dCOzTVYt3hAIP7vy3WtYr/zeLPmitP9Bbrtm7KTh3fs6Kb/mm0/6//PLD1Ty/M/ry/XCyuXOXHQ38LFa9sR3wKAiCwXwSg4gcuAJVNZfEPj0/OzD14tL6x9mRp7ublQU+JGO+g4lQsOTzyEnkNMlTF7hyVilOxly5/NHvv4ZONtfWV+7OT41x7STtJRr2Civt6z2b7OML5j0LIw/+z/ec9zS7K8PJ5qHjlIY1PQQAEDpMAVLxETpSI6jDM0D5yeyWzuTp/88pboyNj45Nzy1uZ5ekLHm0bdlBx/9jte/cXVh5vbt2/VDlePxoVj4zdeby58Whu8r2xkQtjlz+aX82sL02dKRLyyipuFcZn5heWHq1vZeZe8+3eNPbTUz3nhef2YPS9qvjJ8zOP1ldnRv17aIN2eOyeBs4DAiCgfwJQ8aOdTDu5kbEkXWiDZ2R6eevRjbOacHMHFZdHoUWaWj4oFe8WOk6f07ykU7a26sWjTRob5QvSa/GPz21kFq4ImjNUVvHsnWYdub2xJxW3tF/6bnDiYkm2Q9OSynf1nlV8lPg0c2NQ8cqc8SkIgEB1BKDiBQWtYSqvDu5uTmgdvLGSWbyWtqguccQqbntlcejuM+1r0de9m97lOtX50vTa5r33ulV9NDSKilMGo3PnCgY1GbwHARAAgfIEoOJHr+KW9lhyZHz8yvWJyakbk9Pzq5kn0yN1pOLlR08NQm492Xv2wtjlqxPXpm5MTn3+YG1z6TqnjomrVvHZ3WTUw79OFDsiT6On1ZCr7cteY/GjH2/V9nRf7I6TgAAIHDABqPjRzqq+M1fmljcy66sPF+7Nzd6Znb0zt7iaWT9eKt49PDW/mtnceLx4b27uzuzszOz80trm0tQhqnhHuO30aMfp0ZMfPh269RlN3p9zPL8bPYOKH/CUtBujoEkg0MAEoOJHqeKWsx8tbz2efU2wF4Zg5NK9Xav4/IFUt1nPL2jT6c+G7i76gtXOtu1jn29kFqcvdBcibyd37eHhqnjOynWwLn6U461akxVGI1oLAiBQ7wSg4kdpIc9rc5tbc2Oq6jZLaHx297H4waj4c8EXO+RAVvVvDdVtfVcXttY+H1H9CCyVfv/eHmLxVwuAPVaqAAAgAElEQVSFcrXKkqXtzW9OXRmz7MHoiMWh8SAAAvVEACq+hwl974YMvTW/kVm+c/W8lE6eHRu/NrOwura+UVMs3unxx5hQjCHF7fcnzsrv/SdVwb2qg0ey08yanniQWV+aHh8e5KSR0ctTs0ukj7XE4s42OkL6GBqf3cjMXU6T9/5IWyG4V/Vx70bZ9gxW53MvdFrCnc1v/bT/rz+n0+S95QVn03YHV3zqy8nz04/WV2ZGVa5brb4IjgcBEACBPAGo+MELwHYTfd4Abfz4zTv3l1fXNjfWlh/MTrw6PnFnfvbKoLrwqlKNevv47FZms/g1O1a0GzvbhiNRcSNloYcvTc8trjxe31p7sjL/+RWyM35+5q1eNZlK1W2xSw9K+7h2e1izHy+P9EDeRE9FyLNXta9vf2LfzpOoqOKR8XuZzY25cew0U1sf70EABHZLACp+xCpejeRUUvGaDH9EKl5NH6vaaVZTZ4/u4EoqTo3cXMksT4+0HV3zqjIHmgcCIKATAlBxqHh9EKgUi9dHC6u+pSuoePdrc+sr0y8hnV41TPgcIAAClQlAxXWgEHIs/oOvfvbDF0XDiwPm7X7TrHIvbOE+w4ui4dxQ/f+m2d+dEw0visawvXKP6vLT5uZTAzLnX/2ncr+GYg8NJ0OHuBAAsQQBEDjuBKDidakH2mEnq3j+B8K3/X3xyr04Jr8vXtkhPfpP8fvi2nF79BZBe0CgAQhAxSvrHz4FARAAARAAgfolABWvX9sglAEBEAABEACBygSg4lBxEAABEAABENArAai4Xi1X2TvDpyAAAiAAAo1AoHFVvBGsiz6CAAiAAAgcbwJQccTiIAACIAACIKBXAlBxvVrueHuX6B0IgAAIgEA1BKDiUHEQAAEQAAEQ0CuBhlfxZtrY3F6Nv4NjQAAEQAAEQKDeCDS6iv/oH37/xv3vX7/z+/TZAWMDPOWn3sYf2gMCIAACILAXAo2u4gZju9HO0hd///pvf88+r9eMyl5GAL4LAiAAAiCgXwJQcVm5/TdG7//ljIDUOvwYEAABEAABPRGAihNrGc9+9fr9Pwz49WQ5/XqOaDkIgAAIgMB+EYCKUwZju/tXf3rj/95ux7o4CIAACIAACOiKAFScMhh7eia/f2PybbOuLLdffhzOAwIgAAIgoF8CUHHKYKSDk39545OJH0HFQQAEQAAEQEBXBKDiZC3cnPryF/f//NN3J4L92G+G4gAQAAEQAAHdEICKy6ZqHghe++Pr979/43/foHTlhek3C4SWgwAIgAAI7J0AVJyoeOsv//DGb/8gpgbMzbrxv/Zue5wBBEAABEBA7wSg4pTB6Ed1m97HMdoPAiAAAo1JACpOVDw4+f0bN9+2IpcOAiAAAiAAAroiABUn+8Xb3/7jG3NfdtmRTgcBEAABEAABPRGAihNrGfv/zy/u/yndjyew6mnsNmb2DL0GARAAATUBqLisW+Q56n/Gc9TVIwPvQQAEQAAE6p9Ao6u4sXWgvXdsYPLPyKjX/2BFC0EABEAABIoINLqK/+jcwi/u/Gl08naQoYvQ4L8gAAIgAAIgUOcEGl3F69w8aB4IgAAIgAAIVCAAFUc9FwiAAAiAAAjolQBUXK+Wq+Ca4SMQAAEQAIEGIQAVh4qDAAiAAAiAgF4JQMX1arkGcTPRTRAAARAAgQoEoOJQcRAAARAAARDQKwGouF4tV8E1w0cgAAIgAAINQgAqDhUHARAAARAAAb0SgIrr1XIN4maimyAAAiAAAhUIQMVLVNzk9rFRt63k7/nfqrMFwixjN5U/IH8k3igETCfclL2tSflvhRF5YB+1NFOdtuaWAzs/ZTC7KKrDfKADw+S0OzqaD/QSR2kj3FMgAAI1E4CKFyOzdQ8kuVB5kXa6WZHvoU3Hb7Jr9jK8JER85v3vWktrWJL6Agdw5mLzlRVpkzckpiOetrIH5HrdGYyno17nTodtc12zJyaJrPMgJbbJySZTnKd5m6vvosFH+ZUDHGyHCsfm5fh4zEc5jhJm+RvWTHNSotdxkGOyPjveUK2CimvveVuATQhBR9mIzeyOCnHWeQym0dI73xaMimmeOQgHpcPHpflg51HeWvYQlxL8lNbc20JIJQKOnQ4r/aKRopiEFAtat/tovzpuC/ASH7Yf5CX2q6k7nOcAB9tubLdDa8sBb/aFE2J/TBA45kDtvsvmGVtae8Qk6z9K77kcOvx9/whAxdX3fDbO9paNs81eJi6G3TvGc+pz4j1lMPvCohR2H3a80mRymEw5h8zkjiWrCJTNnqoO225WdXr60kIPfZCrBg4XKyUjXWXH5/7NC9t1ECO5mEAzzSX7AtYTATbR21qP8a47wKf7uztgzeNNACpeuDPNrspxtsPBCALrb65trmwx22k7id1bbK5QKJZIpiSBi7RqovmWZmeQiQxwCUngOYZ2l0zTLc2tPjoQYZiQx+lqMnb4YkLEm785HVaHm6yVmpyt3l42LkkpkQv7amin2Wmzu+0O2uFwVRIhc1c4kZZ2EXZQYS7F+6k2iu5leTEpSjwX9bVqnKGmE15fTyya+zQWcHeoW9LsHZBSMZe5YCyDHFsH1LF1c6eHibJcQhAJxqCnyx9LJ8Nd2fPkAmVzh4vhuISUjA8wbk1nzR5OSqU1L9ZXYghVA4qGgcnLJNIs7Wp2MqEYaQO5RIkpTTav2xsK9kT8NN1saqGCfLGlTtB0j9zCRCIaDlKacUKy/f1MwBce4LN91HZhp6mqzc2mJT5E2bv8kQE+ISUTAtvjt6mpGqsZS20UHQn3CYIocjFWY0ezP5JKs7Tasi0UI0jxSCGpu+NgM3c4AywbE4gd4wOhgFdTB0CFuJTIONXZMjqYSEe9rqLu27p5KSWGNEeWN1+RNY073pKUwdjm7pNYT5uptZffJgdTjlKLMyJJsYg/IiTFBNvdaafZ/oTEs8HiVTyz2x1kWS6RTCT6I2GnTdVlR5hPiWFXW3MrE+ISSVHkWMZRMlQ0gzklaG6W4v5WTwZH1h0BqLhikp3i7CZHmBM5ukLV27Y3hrkzwKeTfSE6LEhEv7kIOxAJdKokqsXm5QSRZ7xdDgftCsT4lBTxqNZlTR3uHiGZEvtZlumJcaLIdofCYppVlnib7ExUTEeZYJCT9bsvFolxQad6JlX6uG0LjZSVZqMxnhfTybBX1bDib5HII7WbxLi8YMyFIgIXCbmdtMMdDHGSJMbcJ3KXaKIYNpFOcr0eZ6fN3ukMcEJKDLvzEEhiUOJDNlX7Te5oUozmdb3JHowk0gLH+jxeR6vXHeQEWZJZOnsSJx1L8z0Bmk30hxm3JxDsE6XUgMaaZqfV5g3yab6ny2pzWW2u5ppK4WxMf0qMhGMcx/rctMPp90cSREVc+QyEw+6N8qLEx6JMD8vGJSHCBPoKfobBSGV7keSjfo/P1R3lUulkX6DgjZ0IsKm0EAu7HC5zs6s1MJBMJZjW/PmL7VWkagZjZyCe5tkoG+dDXh+hRAZbWugpJJ+qGEtOVySR5KM+N005usioFgd89vylSfAnqH/k1xZgRc143mGwmekAJ0kJLuDx2u0dDk+ErPKoWmhyx6QU51FGDunjiWA0JTKtKpEzUgYT8XikVMyt0bZ8Oyu/2emWzI5DkmHiPLYOX0xUhln+tBUokdUlKZVgGUYehBKBSYfYRCKoXsdp9gZ5ie8Lu52dlDPAcJLEhykl3JdvqJjHFennuQDtd3ez/WJaCBfsaDC2mE+4bHQsmeJoigxmq81Zg0uqutFKRlG+j3hTLwSg4llLyHG2esYsGscmt5+Tot2aALHK8e3oEaVUWugLtaq9aeX8TVSoXxSChbmYZE2lvvxSlsPBJKREjFbKZ7LzrKRZu+3w82kpJUUZnzauqmWQmbyhhFSp+MtEJmjSkZ5KSr8tEwcjkuYFOwvrczYmSoI2WWJNbtJ+PuIoBIVtBEJBtl0+TqN2BiNlDwqFA+QzCBG/am2yhRyQUmZGubSN4waigc7cXNbsj5QWu2Uz/wXdrQFgkyuaJFZWRVQm2YGL5AJ6UlGRSoQ9yhCS3Tsple7vVoJIU2eQT0tcWOEgh86qDESTs1dQC5gsVPlkw7bkNX9sJoGylOBoe17w5EBZjDoL5HcYS1Yvl1TXhZhoJqHO2TpcbFoq3EeOrPtVHGWWHWwOR09CSvG+QgspK0nDFGSbCiakeIRSbh/i+hRhkT9q9sSSxI3TOmqqb2nIaP++0y2pjApHhOd7fT280BewKvqaPW0lSqaukEiINRmpJhebTAkBUoXjomMi06qc2djmiogCGyiMZ5KBUAazkZIhcGws6lK8GZJ4SPQ6tB2xB1T3iPajCt3HR7ojABUnd86OcbbNW7lwPX/7lb5pc/elpbJF722uiCSECyudTSe6QnGVUtpJhBd2qQPrFqLr6iBDnhf2WDbf1BrhUwO0MimUjmMyMYmcP8AlSeyVl4HS/pb+hcTByeKVCOITcEG3MgsXOxByOlRJoecmPkXtyHxEFC4ZyWXLTS5WEKMubdQll3MroRhJv5O1AFthtu0MxCVt7pcyOGQItaZb5PmRzJhqeSN/bGntkXL1biYSB3PaykE5rJTyKV9ZrrJzepYh2RpntxW258lMEqHCYJCjuuprl0gaNhHSJmlkCVRJXeWxRDRbUsed5tZwP0kdFcYncZ4SkZycyKNX1eDc2Cg72GTXShtTZo2SD7XbPH1pSdtlKxEwja4bzDQTT3M9DBNPC+Gugu9YlZLtdEsqJ5HtJQl9DFXwgeQOVqZEmOSS283egSQfIrWKJjoY5wspDaLZqv8aHfZuLlnwSLLunagGS5zI4lp0cphQMbtWepvjL3okABWnDHKcnfWOtzfhToXr238rd7eTRbtCvKVMAbmvNPsiYjoa9Dndfk93mIkM8GJaiEVaFTWVa5Ll+1z1RTKbx8OFcITMC7ssq863vLLb3mQPsqLEel0GU4cvJmnlsFS2tX/JLhirJnr5otm6GyLM9mCCxExKl7NNsgWEwkI40eCipVB5hVgp26EYURX/5a5OKCnl3LJeJoLqpCsJu4uhkdX3hGoFV8U8D6rMG9mrUNbglWNkFZclp6k1IpT00ZD9Y85pIPmGiiXuDldEIiudIkdnM9iy5vUH8uURWuwljScL/5qwWz6etEG1da3iWJIlX2DoLpcnQAci4T5S5MGFfepIlKx05ELnNhcrSjFGvQ6SJVNusMnnL6mCJC3MW5/cTVnnLw/ZSTYx5nNXxMNr7UlI8V6HmTK7WJ4sahScDOVb5VntdEtmz2B2BMNxievpUvc9+1FlSnL8HXMT4W9x9IjJbKqGVOwXloeIJxSP0i6fmw76GZblRSmVCNNuZbWLeIRFQ8XqHUjGgoXFF9kzkAs18stS5btcMlR2poSv1BMBqDi1U5y9U+F6ZXOStcz8HFRyI8kzVH+EDYXZUE8k0B1wOpzKvZqLOEsy2HJ1jCocMbmiSVEJWys3puynJFwWmDL11c10kE8nY7lAluQbU1INhfpZYVCXoRkpA1GgLJYWMgsXJwPb3KyUT5zKyWqtzBOq+ShWBlLI4mYhE83LTZHb7QFrau0ViuuK5U3tKrC1zGXZXebqbAElp0lzkkPiRcWlyJ+W7OUV2Vxts9kXSaW5SpJM5u5+JhSKZxMbLfYAL4mqMLqscXOjjtT3ccWa2kxzhLOSoqg8lohrJQqRMBmuDBP20T6HrWRVXq4+C7a2NDkiXCrBOEsOMJYdbHKBYfFuQDnk5X1ZX0euDNBudiBLALyc1JHBttjomFBIOZDUtJSNd3fik7PLDrckZTjh9bN8fx/HicVNzZ6hMqWsCy7vFXTRsTQXIOkogr1gGrLZIclzZE4I9waDIdpN29R5JrIyUuTrkGW4Yn+OFGoU+6n5sYc3x4lAw6s42SWiXpYuFlqzi93LBnGiFqpVvaKhIzvmqkioeKIh8RnPFG2zJnlUdThSLrIpulal/5q6wqWLxNnGmDrlaqOYp5Bn1ghkpdPKZyAzlGpxN3s8yc8nelvliIQ8EKYoGdjsC4uFZQWiNNozyFQLAkZiF62emRyhqJgXxW1kwxYQ1AsZcquym9rJrFrzS/YqtIXTlOzuCAGKrD6QhczCNK2S1XxtMynRqvhQGlnAhFjE18MnUyIb4fiUyHqVVfad20xWdvJrEEoHXXRMUu+OqzyWtvUDlFMp0EiSI83SNN0naUrz8i0sP9hI0Vbxnn4iaQUHyE48SA1n+XIRZRNjsycmpLQrF8Sr2F5ui1sut3CnW5IymDsoqq1Jjp63fcJPRUqyz5r1FEmOKifG9qCgctblcVh81yt4jZSBrIzw/kJFIUnIM4liwZZ932zQr/pu3gp4c4wINLiK7xRn5wrXd5+VIklabTGOZu4guWJtXGvqcDrzU7O8AKbd2dVMkoTp/LRlMMp7iItzuTXet7ZgNCWFXNnV7hab25cPzgzGFrs34nOoIyqSCSzNYGv6pbpDiDBos5omiolm8/PyYfIuMvU8SyoN1SVO8nyUKBQhmzv9pIxZ9UQq+REiUjwW8PpdHiYQHpAL1JUeyaVt+ZJ+uZ1OT5+oDemobAl3NjYyGKlmF+NWT5SqHpX2VPYq0hyj2nogJzDyD8IjAaWoLNLLp2qyBUhRfb5U0EwcqfzVt7kEqeFKsJFYP9lJSIqcwx7NTrnSr2j/Itdsx7OeU3Z4OOyBgaTG+9lhLMnuVMF5IjUNJ7xOzdigDEZSq5iMJ4Rc3VbJUKww2IjiKjWPMiXiQ6dUK/HNpEqfC+Rzy22tPYJG+E90BYI+zc404v2oC8dK2lNk2R1uSeXrjgifX/43dbg9BdNXpJT1FGW/nHAQZDF2euQda4q9HGQrGq95fKS5tSu/kUwuUI9qHAgqxMVVt0MWHXGJlCy9yU171RXsSi+K+o7/6pNAQ6s4mSMSFR7EtlPh+s4m3/HZScSNkEQ+1O13urrc3RE2LiXVW0pIYbPU3+OnbM5mO+0KkN1HklIdI9/2ZIG5dLOsMiNUd7uau0KJtNAXdrsD/vBAv2pjj3KeFjsd8nm6Wp1d8vYk1cS6A4RsJU5a7mPA7Qn4ezg+RRYUC2t4zV4mnttmRrX6fGGyrS5C510ZytBMmifFY36P1+H0B/sGuLi6EJr00ewIMmQHs5SM82xP0Onp5VNKGpbMy9rNskQyBcYbaC0kGCiD0enuk6R41Of20wzH9QVLF3QVGsVU5axvWkqJ0R7G7fbTATZKNs6F8zOvQfYzhL6wk3I2n3C3esIs2QelftSrXJ4tCuEAGQkumgmyfFi14VBTDCHvLVTvvyrXsMLfZf2TUukkx/pov5sOMX0JKSWEXGoPdaexRJzatMRH/bTP6fLTwSgnpvni8rHc+n2SLfMo30qDTb4dEgNBD005chvheM2TD4jgSSkh3O1rbe3y9Az08+I2i/0nunyBgNPpbXUHmZhItj8oSwYFIGXH7Q63ZO4MJCsgRgJ+Fx0Kcbxm4aACJbl4MFsMSKovs2UKJChPMC5X/gn8TY5wfyrN94Vpd5fTHfSHeSEl5nefkjoSTrPrkmwB5Vkf7S3UtJOK3QhP9q0ElBbWUhxQFk7xyK+CJ75y4AQaWMXlODtS2JRczLqJCnOaSKX4gCpGsNPDJqJKEdb2x5s6XEE5wBJFri/KdHdpd4u1OQIcL299JlNwPBYMczzXW9gaZO4KxQVN3dau7sBmVyQal8hjKBifqpA732WXu4frj2cf2BILeDqq3nvq9nMiz0b85EEl6WRCiLKs31389SZblz/C8yJ5DkmUjdCt6uIA0gZzayjCi+QpJZGw2+Gm+xJcxee5knhIWfY2uVg+riJGdhj7I3GBZYoeeEI12f1MTH6GRiRUEOCdeba09iQEPhoIRvsTkkSehRJjur1FdU+EcEJ5qowohBk2Guf96i3CJmdrIBqNk115AhcLetVnIJfgC3sZWqx0jBcTkeoz6mS5lw+4/UHZ1xH4ATYcctnVKRbKUMVYajrhlU2ZtVSv3+0urQC3dQ8IiUobGSoNNnOHm4mRx/KIif6+aIAuOf+JrkAfsVF/H+t3ux0Bni8poDO1MmH5oTFkOIUZx4matlRQhh1uyexN4WxlBgQxLcS5YMmzd8pSsgXZuJB9vq+V5nItN3sZnjzhx66qdc97pUKcj4TDHkd+q4LDGU7w+RSOPDibPTGePOZI5fiSv7c5AjLJ+ABT/FH+vsab40CgYVV8pzjb1OHjpEqF6ztP7vs3PsxOG+W2qTYdbe8QHGaT6vlaJhfdJwl1+KRSk8Nqd9vtTlMNoeH+jCLi1oj1+ZTQ/ekg7ggQaFgCjarixP+t9CC2JkeonwsXP62inqWrkdtm6nB1M24XeWqb08OQJGq88ECMhr231R0nD97JV9I18lBB30Hg2BFoVBU/doZUT9mN9t7sDGUzqCSbzXElqxKI9rK/1FLzQ/cabSChvyCgRwJQcUzxIHDsCbSYmtsOP42vxwkRbQYB3RGAih/7GRwdBAEQAAEQOLYEoOLH1rS68yjRYBAAARAAgVoJQMWh4iAAAiAAAiCgVwJQcb1arlZ/DceDAAiAAAgcPwJQcag4CIAACIAACOiVAFRcr5Y7fh4legQCIAACIFArAag4VBwEQAAEQAAE9EoAKq5Xy9Xqr+F4EAABEACB40cAKg4VBwEQAAEQAAG9EoCK69Vyx8+jRI9AAARAAARqJQAVh4qDAAiAAAiAgF4JQMVVlrP6uvvSST7WZlX9cV9/N8VOC5yU7qU7a/W2cDwIgAAIgAAIlBJobBW3Xvh8I7O5ldncWpu7NTW3mn2feTI90qaIdxv/1s2vHz7ZyGxuPF78+qMx3qeBSMVeuvzR7L2HTzbW1lfuz06Oc+0aD6D3yn35/JnNpZkb0w/XybUym1vzl0KawzTnVC6NP4IACIAACIBAZQKNreLGTk9I4M5eXyDK+nj+1ntjI2PjV66eVyTWwl9d2FhbnH5vdHj4zMhbN+893tyYGw85FaaRsTuPNzcezU2+NzZyYezyR/OrmfWlqTMqIbe0R3r70mMzjze3MutLMxMXx86/9t7ExUH7fks1c3Huycajm8NaJ2O/r6J0HC4ICIAACIBAXRBocBWXbUCPz21lFidLlfXk6J219a/f6s5rYfvI7ZXM8q1hi/KXNmlsVBWdW/zjcxuZhSuCVu2cyclHmxuzY/QBmpy5PL++9fj2CFT8ACFrzYoLgQAIgMDRE4CKUwai4mu3h/MRtmIViuTb5147qZq7nS9Nr20+uNqrqLjqo+y3OskB994rCD85UlbxB+8xZb+lXHFvB1isJV3Y2wlLerc/7cRpQQAEQAAE9osAVLy8iofeW9ham704yPFp5TVIcuOrH51Rl79ZT/aevTB2+erEtakbk1OfP1jbXLrOqQ+oqOLtduFcu6R5tYXbVeq74wH7NRRwHhAAARAAAd0RgIqXVXELf30xV4yWq3rL1ampVLx7eGp+VS58uzc3d2d2dmZ2fmltc2mqehUXwp88G7qreZ1655RKxXc8QHdjDg0GARAAARDYLwJQ8bIqbiCx+OPbwz671WnJvbQp5faxzzcyi9MXuguRt5O79rAmFd8vQ+I8IAACIAACDUgAKl5exa2DN1Yyy9MX8rvODEanRxpkKEXL+64ubK19PqLa/E2l379XWyzegGMOXQYBEAABENgvAo2s4p0ef4QJxRj+6vzW2uxrMfLef9JeCKwpz/D08tba8tdTl169cP7VtyZm7q9vrc29FsnRt6YnHmTWl6bHhwc5aWT08tTs0tr6RiYfi1vaT3aHyGnPTz/afHD9DHkf6W4/kBo05rXZJxsPbw6rXApVWn6/hgvOAwIgAAIgUFcEGljFrSO3c498US97Fz+PxSPlnvqyvvpw/s70+yMx9VZvCz18aXpuceXx+tbak5X5z6+MjU/Ozc+8lS1iZy4rj3xRra+vT4/kN6rt31Bw9l57uEkSA9hppmRK4MSAAAiAQAMQaGAVP1bWJVvbN5emkqpEwv65CNBFEAABEACBOiUAFa9Tw9SkwZa+qwsb9yckpNOPgzVrMj0OBgEQaHACUPFjMe+3p89IkQNI1B8LOMcq6QKLgAAIgICGAFRcg6PBfTp0HwRAAARAQF8EoOJQcRAAARAAARDQKwGouF4tpy9vEa0FARAAARA4CAJQcag4CIAACIAACOiVAFRcr5Y7CJ8O5wQBEAABENAXAag4VBwEQAAEQAAE9EoAKq5Xy+nLW0RrQQAEQAAEDoIAVBwqDgIgAAIgAAJ6JQAV16vlDsKnwzlBAARAAAT0RQAqDhUHARAAARAAAb0SgIrv1XIWaujX/qHYc3s9j768v31vraVv7P0rF3rzv92Ox6aCAAiAAAhUQQAqvlf1/bHnyrOhiYv4MbFKo63z/K2HyyuPllceLkwOb/u8d/vIzObW3Bi9V3Psu3uBE4IACIBAPROAiu9VNqDi1YzvtlA6eXbs5lKm3M+rQ8WrwYhjQAAEQKCIAFRcreIdAar/FBVsrxRWqo8n7/dXxX9sDQuO/pi1rchO+/dfpyeUTkpC9xHkriPj96DixeNn/yyLM4MACDQigcZW8edOfzV499nQ3WdDXy5E3lw4lX1/9ztWygt5u+P8ZwOffDd499ngzDcD71ykOlTTLjuVyn1FPkn2fSG7bum48nTo1q/tqoFlHV4YuvuVpyDSsZO3ct9Nvfsx+8lT0pi7z4Z+80H2Wxbp44GJL/xD74QnFlMzTwc/XYm+csqiOuHODsfJsa8zm1vk9eTO1M0Hj7PvN5emksoqgIUevjQ9v7i6trm1tvxgdmIkZi86LT14aXpuYeXx+tbak5X7s5Nvce1KG+i35rYyc6+dVGGJvf8g8+RWaea8jIpb0xNLuRbm2kZai+y6QrjIFvgvCIAACKgINLaKG9toe1hof3OFCOfMYuSVi56hd06OjdpyE6iFGpTK1c0AAAreSURBVFsZ/PIbdmysXXix4/xn8ZlnZz58p6DKHWGHdK7nN8+Gbn3skV5sz75YWuFbjYpbLN0xqv9idObZ0N2nqStT3qFR+pUpX/+Psyexnl8Yuvt0cOab6Jsf+F//uJ/I/NOB8wHlEirtLDvp2/1CL3/hJlHKteWvp8ZfvTB68fqlYUV3qeEbS2tP7n00PjJ8Znjs0vT99a3Hn7+qfGqkDNb0+w/WNlfmb14eHx25MHp5an41s/71eHe2DXtXcWMnIw2/dG1+c+v+jZGRM2eH5VfaozgZ+T5a+KsLG2sL1wa3XVnPH4Y3IAACINA4BBpcxWXlk+Pjb3oU4SwI5PNj/V8+jask0yJ9cerutxFBrSIVMurVqHh2qJ0Kf/rsTCGIL4w/WcW/jeRzAx2nem49G/pkylFWswvfLXSEMhhJfLx57z2mRBqZy/PrqzOj+djaeHL0ztrm0tVe5UhL3/XFrYc3eGf+zBY6zfmV/+6DipO+VLMubpGuL25llieh4rVaH8eDAAgcWwJQccpAVPzLLzoKWe6cXMn59gXv83n1MhjbzrEzz8SxmEog903FE2Nh1WlzFyUq/uVX6rZZhxcG7y76gqpWVTM6iYpvp38k374+M6JOobe9Nru5NTeeLxf3vzW/sbYwObL9UvohqjjpslXxHkpZ4S8gAAIg0HgEoOLlVdw+tjI0M+/rFxyF18Xop89OvfOiaqActoobhc9O3f023K/OB1Sh6FkVTxd/yzp4YyWzPD2W5NOc8kpenlvfevh+X14vO3svzi5vZDY3Hi18PXPzyvhLfb7CFQ9ZxVXkC23AH0EABECgUQlAxcuquIV6/ZtcrZm2hO3UpapV/F1S3aauBi+pbstKEcmoVxmLG4WPS7L6VehZORUfvrlaWlmW2dx6OFFQcRLrW+j0+YvXb9+ZXyTHP56/MpgL39vHSXXbRdU6upy9r6G6Tb73qsmoV9HNatISOAYEQAAEjg8BqHhZFTfIsfgXHR0/fq7N8lybxUgVB7Ky/MiL3x++o6wiq5XG4njzm6GZL9pVufq6U3ESiy9eG7RTTos191J3Ybv3Pu7a/fWNmdGsd2Idub2aWbymjvKJx1CriltGZta35sb9x+fW2g4degcCIAAC+0wAKl5exY39H6fufsuezu86MxjbaEd/WPuwVQslS3VHbgca3fHmFz2ncyvcz5Hst7qkPOz78Kl2p1l2rj+yWNzY+dL0Y7LrTJUwsIcGk/niNSNl59/7/M7VM4XyN6r74tz6xsz53Fd852fWNlenzysH2Eklee0qzl9f3Hp8eySXq/cMX7997UJpLR6kEQRAAARAQE2gkVW8jbYFw7Zg2DG2OPTlvDdM3tuez23xkuNsuuPSt0Nffjvwzgf0abIBLHrr6dCXC95uNUGDMfhO/MtnZ37zmf+VD8IT3wze/S46lN9sFvBOfDd099v+1y92SKO+d1dSn3ynUnGLpTsgt2GU/fSZ+OaL8vuARR27l1S31ZhRt9MRJhRjQsM3ljLL0xfk9xGPSrMN/vHZ1cz60szExbHzI+OXJmcXNzJPpi+0KYtMdunq/EZmfWXu5pXx8yMXxq+RNfLlW8P5A+QNYJn1pelLr468NHJ1dunh8qpGxS3tkW7ShsGJB5n1O+NKG/Lr7lnPNDb+9drm6vzNK+/l2jBzwaO0IQucXGh1bUET9++zV6u1LE4OAiAAAvVOoIFV/Dnpi9wjX9TL3r/5QNksnp3QafLUl1vfDd59euaTxf5Lv/aE1TKfm/Qt7DuRD7858+XTM58shIe0wXqH4Lu0IGYf2DJ2jhr+6tSnX3lygXvY/xvV42JyzXjKSoXUvXV4/tSn2vr5/ilx5puwZrdbee3x5R/5onqgSmb2VVV5mpGy+EdyT33ZeLx4b/bm5ZFu7QKBJTTyfvaxMBuPl5fmb18pPsBz9urn9x4+2Vhbvjd9SRq89PXj5cJTX5xnppVHzcgPn8m2ZOFyrLjZ7enxW+ThM+urD+cmx0oDccvZj55sEQeiwEcr88UnxKcgAAIgcNwJNLCKH3fTHj9JI1vbN+Yvacvujl830SMQAAEQqJ4AVLzesyXV2/KYH0kN3lham79cZRICZgUBEACBhiAAFW8IMx8HgbeeTJ5N5xfjj0OPkA0CARAAgT0TgIpDxUEABEAABEBArwSg4nq1HIJREAABEAABEICKQ8VBAARAAARAQK8EoOJ6tRw8UBAAARAAARCAikPFQQAEQAAEQECvBKDierUcPFAQAAEQAAEQgIpDxUEABEAABEBArwSg4nq1HDxQEAABEAABEICKQ8VBAARAAARAQK8EoOJ6tRw8UBAAARAAARCAikPFQQAEQAAEQECvBKDierUcPFAQAAEQAAEQgIpDxUEABEAABEBArwSg4nq1HDxQEAABEAABEICKQ8VBAARAAARAQK8EoOJ6tRw8UBAAARAAARCAikPFQQAEQAAEQECvBKDierUcPFAQAAEQAAEQgIpDxUEABEAABEBArwSg4nq1HDxQEAABEAABEICKQ8VBAARAAARAQK8EoOJ6tRw8UBAAARAAARCAikPFQQAEQAAEQECvBKDierUcPFAQAAEQAAEQgIpDxUEABEAABEBArwSg4nq1HDxQEAABEAABEICKQ8VBAARAAARAQK8EoOJ6tRw8UBAAARAAARCAikPFQQAEQAAEQECvBKDierUcPFAQAAEQAAEQgIpDxUEABEAABEBArwSORsXhPYEACIAACIAACOydAFRcr/7X3m2PM4AACIAACOidAFQcKg4CIAACIAACeiUAFder5fTuP6L9IAACIAACeydwxCpufs5pNkJHQQAEQAAEQAAEdkPgaFV88F9eXHz08u/uDLw9YNlN6/fuxeAMIAACIAACIKBfAker4pT5Oaej5ZUP/37xfmwQQbl+hxFaDgIgAAIgcCQEjljF5T47Tw88eJR6+3mk1kEABEAABEAABGohUA8qzr5zevHhwE9+VEu7j8TlwUVBAARAAARAoK4I1IGKW//x05cf/Ku3q664oDEgAAIgAAIgUP8E6kDFWz+Yf/mrS62obgMBEAABEAABEKiNQB2oeMu7cy//7l9czvp3edBCEAABEAABEKgrAnWg4kb2YurBw7Mfv+M7z1pr80HqCiUaAwIgAAIgAAKHTKAeVJxyOH81QzaOP/jQjYgcfgwIgAAIgAAIVEugDlTc8pMPX1ycj/+StULCqzXbIft6uBwIgAAIgEB9EqgDFSfVbf/2PqrbsNEOBEAABEAABGokUA8q/u7cy//2vhNhKAiAAAiAAAiAQG0E6kDFLef/9SeLd15g6zNZgVaBAAiAAAiAQN0SqAMVN77wU3HxkfiPjhrTCHXLFA0DARAAARAAgcMhUA8qnn2O+i/xHPXDMTmuAgIgAAIgcGwIHK2KezpaEknftTs/eYCM+rEZUugICIAACIDAoRE4WhVPv3/2d/NnZz58YbAD6XQQAAEQAAEQAIEaCRytitdWiXdorg0uBAIgAAIgAAK6IAAVhycBAiAAAiAAAnolABXXq+V04SSikSAAAiAAAgdKACoOFQcBEAABEAABvRKAiuvVcgfq3OHkIAACIAACuiAAFYeKgwAIgAAIgIBeCUDF9Wo5XTiJaCQIgAAIgMCBEoCKQ8VBAARAAARAQK8EoOJ6tdyBOnc4OQiAAAiAgC4IQMWh4iAAAiAAAiCgVwL/H2m4bGToQpXYAAAAAElFTkSuQmCC;" vertex="1" parent="1">
                    <mxGeometry x="421" y="1310" width="483" height="316.9" as="geometry"/>
                </mxCell>
                <mxCell id="43" value="a[0]" style="rounded=0;whiteSpace=wrap;html=1;fillColor=#008a00;strokeColor=#005700;fontColor=#ffffff;" vertex="1" parent="1">
                    <mxGeometry x="469" y="980" width="40" height="37" as="geometry"/>
                </mxCell>
                <mxCell id="44" value="a[1]" style="rounded=0;whiteSpace=wrap;html=1;fillColor=#008a00;strokeColor=#005700;fontColor=#ffffff;" vertex="1" parent="1">
                    <mxGeometry x="540" y="980" width="40" height="37" as="geometry"/>
                </mxCell>
                <mxCell id="45" value="a[2]" style="rounded=0;whiteSpace=wrap;html=1;fillColor=#008a00;strokeColor=#005700;fontColor=#ffffff;" vertex="1" parent="1">
                    <mxGeometry x="620" y="980" width="40" height="37" as="geometry"/>
                </mxCell>
                <mxCell id="46" value="a[3]" style="rounded=0;whiteSpace=wrap;html=1;fillColor=#008a00;strokeColor=#005700;fontColor=#ffffff;" vertex="1" parent="1">
                    <mxGeometry x="690" y="980" width="40" height="37" as="geometry"/>
                </mxCell>
                <mxCell id="47" value="a[-1]" style="rounded=0;whiteSpace=wrap;html=1;fillColor=#008a00;strokeColor=#005700;fontColor=#ffffff;" vertex="1" parent="1">
                    <mxGeometry x="381" y="980" width="40" height="37" as="geometry"/>
                </mxCell>
                <mxCell id="50" value="" style="endArrow=classic;html=1;" edge="1" parent="1">
                    <mxGeometry width="50" height="50" relative="1" as="geometry">
                        <mxPoint x="1349" y="1059" as="sourcePoint"/>
                        <mxPoint x="1279" y="1058.75" as="targetPoint"/>
                    </mxGeometry>
                </mxCell>
                <mxCell id="51" value="" style="endArrow=classic;html=1;" edge="1" parent="1">
                    <mxGeometry width="50" height="50" relative="1" as="geometry">
                        <mxPoint x="1850" y="1060" as="sourcePoint"/>
                        <mxPoint x="1790" y="1060" as="targetPoint"/>
                    </mxGeometry>
                </mxCell>
                <mxCell id="52" value="" style="endArrow=classic;html=1;" edge="1" parent="1">
                    <mxGeometry width="50" height="50" relative="1" as="geometry">
                        <mxPoint x="1401" y="1180" as="sourcePoint"/>
                        <mxPoint x="1401" y="1140" as="targetPoint"/>
                    </mxGeometry>
                </mxCell>
                <mxCell id="53" value="rear" style="text;html=1;align=center;verticalAlign=middle;resizable=0;points=[];autosize=1;strokeColor=none;" vertex="1" parent="1">
                    <mxGeometry x="1381" y="1180" width="40" height="20" as="geometry"/>
                </mxCell>
                <mxCell id="54" value="&lt;font color=&quot;#000000&quot;&gt;-1&lt;/font&gt;" style="rounded=0;whiteSpace=wrap;html=1;gradientColor=#ffd966;fillColor=#fff2cc;strokeColor=#d6b656;" vertex="1" parent="1">
                    <mxGeometry x="1361" y="1000" width="80" height="120" as="geometry"/>
                </mxCell>
                <mxCell id="55" value="" style="edgeStyle=none;html=1;" edge="1" source="56" parent="1">
                    <mxGeometry relative="1" as="geometry">
                        <mxPoint x="1790" y="1060" as="targetPoint"/>
                    </mxGeometry>
                </mxCell>
                <mxCell id="56" value="enqueue" style="text;html=1;align=center;verticalAlign=middle;resizable=0;points=[];autosize=1;strokeColor=none;" vertex="1" parent="1">
                    <mxGeometry x="1840" y="1050" width="60" height="20" as="geometry"/>
                </mxCell>
                <mxCell id="57" value="dequeue" style="text;html=1;align=center;verticalAlign=middle;resizable=0;points=[];autosize=1;strokeColor=none;" vertex="1" parent="1">
                    <mxGeometry x="1220" y="1050" width="60" height="20" as="geometry"/>
                </mxCell>
                <mxCell id="58" value="data" style="rounded=0;whiteSpace=wrap;html=1;gradientColor=#ea6b66;fillColor=#f8cecc;strokeColor=#b85450;" vertex="1" parent="1">
                    <mxGeometry x="1441" y="1000" width="80" height="120" as="geometry"/>
                </mxCell>
                <mxCell id="59" value="data" style="rounded=0;whiteSpace=wrap;html=1;gradientColor=#ffd966;fillColor=#fff2cc;strokeColor=#d6b656;" vertex="1" parent="1">
                    <mxGeometry x="1520" y="1000" width="80" height="120" as="geometry"/>
                </mxCell>
                <mxCell id="60" value="" style="rounded=0;whiteSpace=wrap;html=1;gradientColor=#ea6b66;fillColor=#f8cecc;strokeColor=#b85450;" vertex="1" parent="1">
                    <mxGeometry x="1600" y="1000" width="80" height="120" as="geometry"/>
                </mxCell>
                <mxCell id="61" value="" style="rounded=0;whiteSpace=wrap;html=1;fillColor=#d5e8d4;strokeColor=#82b366;gradientColor=#97d077;" vertex="1" parent="1">
                    <mxGeometry x="1680" y="1000" width="80" height="120" as="geometry"/>
                </mxCell>
                <mxCell id="62" value="a[0]" style="rounded=0;whiteSpace=wrap;html=1;fillColor=#008a00;strokeColor=#005700;fontColor=#ffffff;" vertex="1" parent="1">
                    <mxGeometry x="1469" y="950" width="40" height="37" as="geometry"/>
                </mxCell>
                <mxCell id="63" value="a[1]" style="rounded=0;whiteSpace=wrap;html=1;fillColor=#008a00;strokeColor=#005700;fontColor=#ffffff;" vertex="1" parent="1">
                    <mxGeometry x="1540" y="950" width="40" height="37" as="geometry"/>
                </mxCell>
                <mxCell id="64" value="a[2]" style="rounded=0;whiteSpace=wrap;html=1;fillColor=#008a00;strokeColor=#005700;fontColor=#ffffff;" vertex="1" parent="1">
                    <mxGeometry x="1620" y="950" width="40" height="37" as="geometry"/>
                </mxCell>
                <mxCell id="65" value="a[3]" style="rounded=0;whiteSpace=wrap;html=1;fillColor=#008a00;strokeColor=#005700;fontColor=#ffffff;" vertex="1" parent="1">
                    <mxGeometry x="1690" y="950" width="40" height="37" as="geometry"/>
                </mxCell>
                <mxCell id="66" value="a[-1]" style="rounded=0;whiteSpace=wrap;html=1;fillColor=#008a00;strokeColor=#005700;fontColor=#ffffff;" vertex="1" parent="1">
                    <mxGeometry x="1381" y="950" width="40" height="37" as="geometry"/>
                </mxCell>
                <mxCell id="67" value="" style="ellipse;whiteSpace=wrap;html=1;aspect=fixed;fillColor=#a0522d;strokeColor=#6D1F00;fontColor=#ffffff;" vertex="1" parent="1">
                    <mxGeometry x="1512" y="1356.9" width="250" height="250" as="geometry"/>
                </mxCell>
                <mxCell id="68" value="" style="ellipse;whiteSpace=wrap;html=1;aspect=fixed;" vertex="1" parent="1">
                    <mxGeometry x="1559.5" y="1404.9" width="155" height="155" as="geometry"/>
                </mxCell>
                <mxCell id="69" value="" style="endArrow=none;dashed=1;html=1;exitX=0.5;exitY=0;exitDx=0;exitDy=0;entryX=0.5;entryY=0;entryDx=0;entryDy=0;" edge="1" parent="1" source="68" target="67">
                    <mxGeometry width="50" height="50" relative="1" as="geometry">
                        <mxPoint x="1669" y="1406.9" as="sourcePoint"/>
                        <mxPoint x="1719" y="1356.9" as="targetPoint"/>
                    </mxGeometry>
                </mxCell>
                <mxCell id="72" value="" style="endArrow=none;dashed=1;html=1;exitX=1;exitY=0.5;exitDx=0;exitDy=0;entryX=1;entryY=0.5;entryDx=0;entryDy=0;" edge="1" parent="1" source="68" target="67">
                    <mxGeometry width="50" height="50" relative="1" as="geometry">
                        <mxPoint x="1669" y="1406.9" as="sourcePoint"/>
                        <mxPoint x="1719" y="1356.9" as="targetPoint"/>
                    </mxGeometry>
                </mxCell>
                <mxCell id="75" value="" style="endArrow=none;dashed=1;html=1;strokeWidth=1;entryX=0.5;entryY=1;entryDx=0;entryDy=0;exitX=0.5;exitY=1;exitDx=0;exitDy=0;" edge="1" parent="1" source="67" target="68">
                    <mxGeometry width="50" height="50" relative="1" as="geometry">
                        <mxPoint x="1599" y="1516.9" as="sourcePoint"/>
                        <mxPoint x="1649" y="1466.9" as="targetPoint"/>
                    </mxGeometry>
                </mxCell>
                <mxCell id="76" value="" style="endArrow=none;dashed=1;html=1;strokeWidth=1;entryX=0;entryY=0.5;entryDx=0;entryDy=0;exitX=0;exitY=0.5;exitDx=0;exitDy=0;" edge="1" parent="1" source="67" target="68">
                    <mxGeometry width="50" height="50" relative="1" as="geometry">
                        <mxPoint x="1599" y="1516.9" as="sourcePoint"/>
                        <mxPoint x="1649" y="1466.9" as="targetPoint"/>
                    </mxGeometry>
                </mxCell>
                <mxCell id="77" value="" style="endArrow=none;dashed=1;html=1;strokeWidth=1;entryX=1;entryY=0;entryDx=0;entryDy=0;exitX=1;exitY=0;exitDx=0;exitDy=0;" edge="1" parent="1" source="68" target="67">
                    <mxGeometry width="50" height="50" relative="1" as="geometry">
                        <mxPoint x="1689" y="1436.9" as="sourcePoint"/>
                        <mxPoint x="1739" y="1386.9" as="targetPoint"/>
                    </mxGeometry>
                </mxCell>
                <mxCell id="78" value="" style="endArrow=none;dashed=1;html=1;strokeWidth=1;exitX=0;exitY=0;exitDx=0;exitDy=0;entryX=0;entryY=0;entryDx=0;entryDy=0;" edge="1" parent="1" source="68" target="67">
                    <mxGeometry width="50" height="50" relative="1" as="geometry">
                        <mxPoint x="1539" y="1406.9" as="sourcePoint"/>
                        <mxPoint x="1589" y="1356.9" as="targetPoint"/>
                    </mxGeometry>
                </mxCell>
                <mxCell id="79" value="" style="endArrow=none;dashed=1;html=1;strokeWidth=1;exitX=0;exitY=1;exitDx=0;exitDy=0;entryX=0;entryY=1;entryDx=0;entryDy=0;" edge="1" parent="1" source="67" target="68">
                    <mxGeometry width="50" height="50" relative="1" as="geometry">
                        <mxPoint x="1539" y="1590.3500000000001" as="sourcePoint"/>
                        <mxPoint x="1589" y="1540.3500000000001" as="targetPoint"/>
                    </mxGeometry>
                </mxCell>
                <mxCell id="80" value="" style="endArrow=none;dashed=1;html=1;strokeWidth=1;entryX=1;entryY=1;entryDx=0;entryDy=0;exitX=1;exitY=1;exitDx=0;exitDy=0;" edge="1" parent="1" source="67" target="68">
                    <mxGeometry width="50" height="50" relative="1" as="geometry">
                        <mxPoint x="1599" y="1516.9" as="sourcePoint"/>
                        <mxPoint x="1649" y="1466.9" as="targetPoint"/>
                    </mxGeometry>
                </mxCell>
                <mxCell id="81" value="A[0]" style="text;html=1;align=center;verticalAlign=middle;resizable=0;points=[];autosize=1;strokeColor=none;" vertex="1" parent="1">
                    <mxGeometry x="1669" y="1337.9" width="40" height="20" as="geometry"/>
                </mxCell>
                <mxCell id="82" value="A[1]" style="text;html=1;align=center;verticalAlign=middle;resizable=0;points=[];autosize=1;strokeColor=none;" vertex="1" parent="1">
                    <mxGeometry x="1769" y="1426.9" width="40" height="20" as="geometry"/>
                </mxCell>
                <mxCell id="83" value="A[2]" style="text;html=1;align=center;verticalAlign=middle;resizable=0;points=[];autosize=1;strokeColor=none;" vertex="1" parent="1">
                    <mxGeometry x="1769" y="1536.9" width="40" height="20" as="geometry"/>
                </mxCell>
                <mxCell id="84" value="A[3]" style="text;html=1;align=center;verticalAlign=middle;resizable=0;points=[];autosize=1;strokeColor=none;" vertex="1" parent="1">
                    <mxGeometry x="1689" y="1606.9" width="40" height="20" as="geometry"/>
                </mxCell>
                <mxCell id="85" value="A[6]" style="text;html=1;align=center;verticalAlign=middle;resizable=0;points=[];autosize=1;strokeColor=none;" vertex="1" parent="1">
                    <mxGeometry x="1450" y="1426.9" width="40" height="20" as="geometry"/>
                </mxCell>
                <mxCell id="86" value="A[5]" style="text;html=1;align=center;verticalAlign=middle;resizable=0;points=[];autosize=1;strokeColor=none;" vertex="1" parent="1">
                    <mxGeometry x="1459" y="1536.9" width="40" height="20" as="geometry"/>
                </mxCell>
                <mxCell id="87" value="A[4]" style="text;html=1;align=center;verticalAlign=middle;resizable=0;points=[];autosize=1;strokeColor=none;" vertex="1" parent="1">
                    <mxGeometry x="1539" y="1606.9" width="40" height="20" as="geometry"/>
                </mxCell>
                <mxCell id="88" value="A[7]" style="text;html=1;align=center;verticalAlign=middle;resizable=0;points=[];autosize=1;strokeColor=none;" vertex="1" parent="1">
                    <mxGeometry x="1539" y="1337.9" width="40" height="20" as="geometry"/>
                </mxCell>
                <mxCell id="95" style="edgeStyle=none;html=1;strokeWidth=1;" edge="1" parent="1">
                    <mxGeometry relative="1" as="geometry">
                        <mxPoint x="1680" y="1276" as="targetPoint"/>
                        <mxPoint x="1730" y="1274.6666666666667" as="sourcePoint"/>
                        <Array as="points"/>
                    </mxGeometry>
                </mxCell>
                <mxCell id="89" value="REAR" style="rounded=1;whiteSpace=wrap;html=1;fillColor=#e51400;strokeColor=#B20000;fontColor=#ffffff;" vertex="1" parent="1">
                    <mxGeometry x="1730" y="1266" width="50" height="20" as="geometry"/>
                </mxCell>
                <mxCell id="96" style="edgeStyle=none;html=1;strokeWidth=1;entryX=-0.163;entryY=0.594;entryDx=0;entryDy=0;entryPerimeter=0;" edge="1" parent="1" source="92" target="94">
                    <mxGeometry relative="1" as="geometry">
                        <mxPoint x="1679" y="1250" as="targetPoint"/>
                    </mxGeometry>
                </mxCell>
                <mxCell id="92" value="FRONT" style="rounded=1;whiteSpace=wrap;html=1;fillColor=#76608a;strokeColor=#432D57;fontColor=#ffffff;" vertex="1" parent="1">
                    <mxGeometry x="1480" y="1263" width="50" height="20" as="geometry"/>
                </mxCell>
                <mxCell id="93" value="" style="shape=image;verticalLabelPosition=bottom;labelBackgroundColor=#ffffff;verticalAlign=top;aspect=fixed;imageAspect=0;image=data:image/png,iVBORw0KGgoAAAANSUhEUgAAAucAAAEUCAIAAAAHiw+1AAAgAElEQVR4Aey9fUxbZ77vu7e2jnR1jq50tHW3rrZ0dHSvju6WMcE4xFkB2xhj3kyNsWMMfsPGxsRQQtyG0BbS3TrZEyBK6As7EyLIGUgyENSQSRC0javizIAzkziqYDNDYQ8NwzTELcSDbJo/gvJHuXqW39byu3kLNj/JQgt7refl8zxrPV//Xh7/HYWKwQsIAAEgAASAABAAAnufwN/t/SZCC4EAEAACQAAIAAEgQKFioFrA1AQEgAAQAAJAAAgkBgFQLYkxTiCxgQAQAAJAAAgAAVAtoFqAABAAAkAACACBxCAAqiUxxgn0NRAAAkAACAABIACqBVQLEAACQAAIAAEgkBgEQLUkxjiBvgYCQAAIAAEgAARAtYBqAQJAAAgAASAABBKDAKiWxBgn0NdAAAgAASAABIAAqBZQLUAACAABIAAEgEBiEADVkhjjBPoaCAABIAAEgAAQANUCqgUIAAEgAASAABBIDAJ7U7XkyZhyMS0xCO6W8uVnaY3ZPPZuVQfwvQQwY8WVa4JS77/wa6NAAAgAASDw+gjsSdXCMC3Uj37BZMawQgva5KPPNR0n6aEWFfqxr6vH1uRG3uvjG7kL6Sd++8kPay2m8sinoU/pxrfmfz5/RRf9zL3a2R1uObf0jc8G31Ckheg+O/9X9q6//qdauinNx790dvXluyc2dW2IxuATFWu5t+KY6pbFwyS30Wxfvm9ihisz0vsFVWV3buSL4qku5A1V1yYzW49Pz1SfzYtUXahr4XwgAASAwHYQ2Iuq5TC3e73+RltIIULu82F25/O6u7Na83OxnEb+CD2gGaaFuvHnEh07+KO98U76qd//++rLs62q6MsJqJaIQ8bJ/2zy7YeDvDdCkWTzP3P0/GCvUW5KeeyAaqGprs+65vtVrFCtDbPk0+v6FxxT3eo4LvETY5WKzDMnJq6wuJu63N2kN97RTM8f66vPEnHoWyknTAf9rYUTgAAQAAJhCexF1aIuvbtRfV4d/SnGMcnHnpVK2dzudaUxjDSJxWATls4WHvExl0mPbSkF1RJhPjDOjp6YtZbrD0U4JwYRHHq4d0C1cNuszhVzIxbzJKFiFFHXlGv+Vm08QodE4423Nd/Mv9l/bNMcqHX/+/is9agiNCVSXfH0Cy4EAkAACMRDYNtVS16bcnyj+vxx7NigfOi5YWzdMDorbVT7g1SQ1NjQmMSEVhYX3twwXD55wP2wQyWsy+t5jHpUQt3YuuHurMQo83xKeCDSjk0Yhq5hTHXp3UBbC61IhslrmOrjTMFhQkXEBy4tQ9cjvfHM3cIK0/HYn+a8jz744eXZVqJbh53/a0fP/Ff5/kJE+a1fnZ1Z61r9ueuv9g8+u5TPI7QcNYmfZTgtOIFeXH4o4cI/XTP8nxf/+rLnh5efPPpKIj0dt4cou4lz+c9HLeuyh+uSO9/walQpfhRsuvEPgr7fsGoGC/sXJRPr0tE/5VURT8AoVB79zdHiO38rn9got9gFnb88fOob2cM/sTLxjmT+UvBwQ2AkOh1UnDsbks4mImTq0V8W9NslExvlEz+J+r9ilfD9n1b9ofzhIqeIgCXzI8HDDX4Nz38OlZdOaENJ57VD7tr9HcEo1Dferpyef7Ovyj/HCGViqnwcsuCEEQtUCezs1t9/MHa7ouXmuxN/+eSHl/8+88fjp1Sp/sLZ/OG1ntWfya/4vUWYunnAYptbXF5ZnH0w2CjKbRhZdD7uEvorwpjlTaZL12+N3O5tMxbRWYaBmVlza5H7hPKrUy6Hk/haGWnwzzR3Z3OFta2dfbeHhwY7m2QMuv7K43nrJTXJAJnxr6MnZm3l+lBONAIxQqsIA4FRqKK26tmZyvciScOw18ZSPpwDBIAAEIhOYNtVi/xOzfiasnu2ZmiCX3+SfayttPd5/fia9JjXFiK/Uz2+JtURnqfMk1LzhuY9r45R36kZfy7vnq2++TVeQof4xlr9+HOxOkB/0Nida9XnaxiNU4ahQYxkU5EVds9qhp7Xja9XHAu4yv0gPoy9N2UYX6/uHsw3tpV0P68fX69sLI71mSuqmHjZNXEJ852PNTX+9eeLvzZ6n/J8/mf2ntW1D37VzlfW5Z+62TL/c8/MV3w2YTzoOsWX/3l+xtG1+vMHJsJa7i6Td7Zx/uee+T8ebz3LP3FW8es/fvJXxyc/xBPXcqgpb3Rd+tlX7KqmQ6p29uXF8oc/8Wt8IoN9qONvsofr5eY/FfzbNU7770rMG7KH9ryjPsXATj/15/KH66LLg1lVTYdrrhXe+al8YkP28JvMQ3gvYlAtKSWDpRProsvXMlVNh6t+mffZT7KJP7F8AcUxqJY045+kE38r/rf2wxVN2Ju/EZg3yu8M0gPUyZFP7789a37D1zUCZCpG4bc3PvrL+fm1ntW/qAMjatn5nzl6Vl92zf/xrSvX1L/67dm//tyzaj+u9UHA0qVN/Javzq++PHvlNN/Q5H5lBwpQco2+WeE+4LcMz9mXFyy9bS0NtaYr5pnl6ZF7c44nQ3XeW6Cw6pLlyYr9ybRleMRsW7A/vX+1/7Fj2dzCcJdALykSqU3mRef0dYNIJhTJhPxC77V41ZjaNDKz7FqcemAeHrHOrtht3dctKw5rW4l3QrpbyKoqfzh/4s7bgYonYvsJ3Sk9OjF/vK8q+PsD4RxyjbGWDFcBASAABGIksN2qhd44VT++YbjRg3G8LWAel4xu1HWb3IsNfsJsYZH3U4xCFfRoCDom473Z+vGNmu42hk+IcJorzBuGTq8xxvMolJUMrcnP3dGYF0rlIaTJgWMThrGp/DxCRd5n6AH1F9XjG9qO4571L69DOb5R39sWsByGfxZnmP7YtfqfCr6nwNQTv/33VXudL2xCefviKhIx/m/tpZfO/vDzxV/VBTaGfvrdH4JVCzv7V/aeH/6oKPXZYNhYy+8/WY1DtaSd+nO55Q+ZfsuEKKtvXXZnkO7pFK5aJv7E9mmI7I+KLRvlfe1U9wmHzvItG0c7mzz/UjEKrY7z2Xo8qgXVWN7/S/83+0PvF5o3JB1NHpNPVNVCe7/AsiH6N38AcsrR34gervNrSCIPLaVvm9/P8A5uyFHTjl4Mp1qInPkftfz1566x9nRiIVvyEElMD+zOuUGDT7DS1VfMM09cdsvpQvdkKDpteeqav3dG7dEobGP/HLKskENYZJ2PHU+HjCSx4mlkYcPQvHPJ2qnzFMhQXbWtOJyu+X5doDspjdVje3v6N4UFgfOQ2N/wx4d4n0VHHf7yzVUKVwEBIAAEiAS2WbXQmB3P60cnOCStQONcXq8f6mGgdYXG7FirH73DJKwxB45N1I37dAyyoNTfvcP0iR50JpvXG6Qq8tqUYxv15gWxLmSKEF7OzZ5Qi5mYf3MDVeFTRcziTLWakRdC+oR7BCMn0c9eJxFf9OXLnsmbWd6Ts6/8pWf1LzVSQh+pooqJn3tmbmcHfM0NrVpU6kc/d3151i96UA5RUzweIhGrf0N6+X2CSwijvvlNuc+/Q8VVy51BwvLMzmj/m8zyu8Nu6VbxleShnVvik02oL9Q3v4lDtdDO8ic2BG8STSBs7DJSTp5Ko6qWilFJgAuJauSNIt1DmMEF72hn52svS73wCR8R+EdQLZM3s/3Xsrm/dvT89bd84jBtQbXQdINPXDO9ulxiq5jG209ck1fK8ebhMbZPhozEzCDmGYvTZb/XRLgKzzmyngmwneAlIP/R4r3TxI9yDUPzTpfVFGwTojUOnpidlNX5paS/7wRcYd7k8Efn3x59hwgnzJnE/sIxEAACQGAbCWyzauHl3/CbVbxPNFxA3OjAH3YohIVs1aBh556hPGfPQ1PMH9qo6TjuvdbdVaRa6rqb/aZpjjr/8rO6UVuhNJzUwEN6z4UK6RVf044HBNbEDxQ5iXoe4U4iXMGc6/TlAbEFwy97Vr+RkKIo2PzP1np++L0g4IkfUrXQjcfngwwz8UXjGnnmjaOd7RlH6/yvU38qf2jnFrmFSLBqwQ4Y/yR7+Kcs3DyTUvNN+cNvstzOIO9YxKdaeNdKH64XnzL6G3DUmHX5J5n5q0NuYRRNtVDf/JPs4Z+5FYQuHD2bN7pR3nOWoMY0nbWz89qzHG8jQw9lrKoFy2j9Y8/qHyt8phHkY9p05jMLqQdy/AqFipV1TzqXRgz4TKDV3n7qsnWKSIoBf9Mra/B+4TlHM70hco5Yir4Z59yggjSvWGV9M86FwSrSm+4q9FfenJ3X/mtmZFxBn6Zl6N/m95iPz9qUjfFeG3pEgqqA04AAEAACsRDYZtWCnEHaczLyIwkplZrO40hzMI9LzAH5QeQ8Z2ZzxdiGsjHAfFIjHvXpDDbTZNPcna0cWg/yGRE6jHudJMToGe/CQDPa6seflUpDGdu955DbTyjWf4LXScTOaP1j1w9+bxGF6g7hDFItw2s9P/w2NtVSVzfz8yf+KBm80rhUC62pwLIhexj88plPwqoWd7BtCpIUf2Zn+/sbZGtBkbORonFLfiMK0YANmYWkWrjho3HTTv05VBcCVAu+DGvei7KUxq5aTLhqIVopNq9aZJ3TjicDvvgVN8zC5vt254NWLj7HkIIJkhdFbTaUYUTQHOFzjkpMDxzLI03kyYx2dvFVQZ69CiTy4t9tJe8N8/zbs/O1n73DCPQ6kcsnTRj4CAgAASCw7QS2V7UUdVSi9B+y/UN8TTO2JtXhbzJN8kA7hzvPucYjFKSD1eNBCUG6r2vGF/hid+dpDHlNBpPH612vfC9s/OyB+om68dBBLXjcTOiPYhAr/gFwO4k6m5A3Z+KjDMK1WZ1/6SGGuaCPyhWPfu4hOSPcWiRkXAtfMvay59E1n8sJVRqXaqEa88wbonZjCo2dQmNTaGwKleTroYTwEHlsLZ4UoaLB4AgSkq2F9n6hZeNoOzFSh5xDhGwtPxWq+J42BDYAo5T85ujDnwpUhIaRc4iQrWXim6xMXpguuBdIfBmOydbyn6GjccmDkhGsWnjI1tJyyh+i658DhEEP8SZd3zsXpFroxlsLjtk+Pa4zWFUD886562UEgUKhsgxDi85pYoaR+52rxJwjb3XqK9NB8S50dYh6PU11i7y4bS0UKusQo66zenr+2KelkXsNnwIBIAAEdpLA9qoW9Rc14xs1l5v9Ya2cmtKb63U33UEtHltLXa/J+5g+jJlmDePrcu9uKzSjrW58Q3POn+d8QGCqGN2o6TzpLxMtV7KSIZ88omXUd7BJkTRof7n6sQmuO3KFKeMZa3zeJVq9rW78WWmoXeniA407ieYdn6y+bGkhxYdSpDfPrf78yfBpX9RIqvLm+ZCxtG4PUcDlVCy95ZuuVce7LYTk6tJrZ+PIIeJhl3+SjY5mEFw8KTxjRrZPIkSxtVCoOs6dDdmd0UP+EniHO//mj2uh8jN71mXm32HegF88Y4iQ+UzDY1Aun/XH81LZB44a033jSGsqMG+U933kjbFgpxv/JCVmPhfhPqY3CRCofHqFjlAgRqEWvKOJMa5ls6qFftqdIOYJM+K3Hx++xicaY8JOG2QIcc5d97tv6LLmthGbyz5s9FgshN2TzhWryRvWjQK/yi9YlwLMJyxkO3nc5U6EppW3Xjkt8aoWvIrpqwTdwyo6bX7icljPeIJzvWfiIo/W+JstxLUcyr8z//ZolMDnsDTcKhP+AgEgAAS2RGBbVQu9EaX/1I+va7sHC41thee+rhzdqB+d4Bb5LNhoN9v68bXKjg6u7iTv/JTm7nOkITz+GjyYF5WwVtnRk2/s4HfYtGMbhhvXMknBuRQqVlx4Y6Pu5p18Y0fp5Vltd1tA1C3aymV8vbKjg/feYMXNBX/eNUahck5KRzfq7tpKG03celPhuS+UQ7Z8Yk5TrEBxJ9HPPT/8XkQMg0BPbV7+r/7Stfry3GeXRIYmgWn07F9/7poczfdHurDTeeVYqQor/ajlh5/PdtahY355ulfMUeiqirG1nlXH2c9uKkwfKa58dXYe7RoSx47+PDwnaPQPPGM7VvURu/2boxMbEr+GiKpaMJSwM7FRPvoN74OPst68xuuxlyOPjzfzmYpRUGLzRvmd33Fq3j9cM1h8x37UQlAtVOxA1e+OPlw/2jfKfvMs9uYvuT2L5Q/XBUa/CkGJzQ83jvb9JqvqfezU70pH/yYhqhYq71A7Stgu6byWVXM20zhYiHKnFzme0BzPMJWKLOETW3gZfBVWqso69dtPVv9SZ0DHGF/kDXPGM5+j2lqobC4aTccHv76GD8RLlMTuH8pIs4XZNPLE5Xj6+PaVttbW7tuW6cWnS4vLrpleVa7njhB12VYcTx8PNutkRSJ9Q9ugdQklENkuETf7ZyFHkmvm3qXW1r4R25yFqHK4ZyzLLvvUSKtBJClSNZn6LE/Qzi6hN95NY/WhHKL8zeYQ4aoFonFJQhBUGhAAArtLYDtVCx51O3SH1/hF5eh63dha9dBUxfk2fwq0+/nOqeF3o73dam7aJKaTmHGiZvRrjiedh8frXjMMTYg7pqrN63Vjz7U3bZL3jmf4kn0IKwRNPVg5ul4/9lxzuSNI01ComJjbOVsztl43GmKHugOC5tLuhRrzRv3Ymrb3C/4xsc8SExd93kct82sXPzvtXQUJzaPyua1ffUDYZY5LUjYq9WTA3mU/96y+bCT+2A2mEv3q9+fmX3b98PKTmT++1XqtcWbt3BWiR4ZYXajj7Pfdu8yhHd4++6bg1PtpPjsHlZ3Rbpf0X/NZg/CwlT9ILN+wCLEs1KO/zOuzSybWyy320r5RdsefSaqFih2oGOR/ZpdOrB/97Hfso0Z2/09HSQk+2IGjvyxAJaB96kr6fscN3MiOn2H8nWD0p/KJn0p7Bg+XfMS3/ERObOZ7d7pbl44uCi7/Jou4T517sPD9Wu6/IQ2xlrA/+iBwj7ifUaC0ZyzQ7xN9QvbEZbT8/pO/flNBMH6gYumi/E73WKydH7stCLkrYOiZkytsun7v8czTpcUn09Z73S1Vp2/PLi3O3r9Q5jmfJWy6PYUrFbSP3MqMZcg8tTDZH7AHLruu8/7M0xX702mzL8PZ29+Shj7bU+8edMsL1ltm25O5kUbSfHNPD1aVbCv7tbCqZN/Mv9kTJV0rNIdQ8xPOBAJAAAjET2A7VQuKuq3zbXELz6lkI0CKa4l/qnlX2W3HUlBfie9V79dk217FDhdILxSq6qrKJUyfsS1OvDS2RKGrU4hKPJu+hLyccdZ8YtZapvG65OLtFErX2nTW9I6Nfry9gPOBABBIbALbqFrw/CDyVv3wqEomAntVtWCUjH8dPT5rK6+DzebDzzfRO+h3iML87kFIlRP4pv5/vzlrPaoJX0ViPwqhX0AACCQEgW1ULUU9lYQtbgMfefBES3gCe1e1UDEOr9/29je/ySduapfwwLfvCcKVHrXMnLB0Zm3lt5q5yMF0fLSDpyllFGzWYAODAgSAABDYEoFtVC1MNj2PvbkAEZA4CUHgkCgtm0/Y4W1LM2/7lmR3M1jF/P4bhVJYTUOB5SqPfnaF90aoj+IZxAPS+rI792sf2jRn8xJixkIjgQAQSDoC26ha4nn8JR3Hra4HAAQIAAEgAASAABCIRgBUC4gtIAAEgAAQAAJAIDEIgGpJjHECWw4QAAJAAAgAASAAqgVUCxAAAkAACAABIJAYBLZTteiq9diRXFCCQAAIAAEgAASAABDYCQKgWhJDXe7E2EOZQAAIAAEgAAQSiwCoFlAtQAAIAAEgAASAQGIQANWSGOOUWFoYWgsEgAAQAAJAYCcIgGoB1QIEgEA0AlidqburQRTttGgbLezEIwzKBAJAYF8RSGLVIu6pNK9Xn68Ju10vU8w5b9Oin6d+rum+xs7b5MBzTPqBLwuywj7Q2cp/tl37X+J9+0DPO1q09LFyofZgqJ8GLK7/v2xd/8LbDByOurB7ofrus+qbE4XSw94SinmXZyXHNlVg2BHc5MTwNml7LqdLDN1m28Li8sri7P3rjSLW9hQbYyP5F2wu+z1j+EoZJ5QDE0f5vC22Kq2sU3/r+7OPXrx/sXaLRcHlQAAIJCWBJFYt0mvasY2azuNhVAuP271WP7ZQca6n0HRHPrRed/cOkxn3GDNOqD9/ce7zW2xG6DWP9sb/nJr++2dX/4Ud4/KQTKfRWenv1giWPla+DKta2Mr/+9n0P8y2pvpkR4xDQMPOPTN0N9MwCk33dc3QIIbzp9fbDOapfEGMhSTOabmGoRnnyoxloKvz0vV704vOhZEGdugptyOdiqpa0pWlA6vt98f44eV79IYxTG9aX33Y15mTJ6Uz2NHPT6abBfoCBIBAbASSWLVgFCqTFpZCXptyfF3Z6P1SzpFx6k8yOHE+KPm8yz+2P5o6mhfmCZueOvj1369//T/U6VEWGAZPrdDpy3g7ljdOLywq11epZMxQBo84ex2lL97SMrEvLypffixfan7j8flwthYKFZO1/p/rc//HHSXDe2FM5R/mdq9rz8nQ+Ap6NGM2LpNCzWuuMK9XvpeEZi2s5d6KY6pb5pnPdJnhdJOCFxrUjsylqKqFilGyTIb7r84OXNz8L28Lb70/uWpQh7mbwt7LoTnENZ3gZCAABBKFQHKqFhpdepKtQy+mOIyRQ3xNM74mUYeXNdEfhdSy4fcnX7zzrjLcYItb/9v63H8dLA+xHpd1TzpdDvSaM/ePzCy7j122Tl/oAF3W2GeeWlhcdtmXF2z3upuKyIKDqWrtNVunFuzIZfB45IpRQuoLHa1zeBV269Cgdcl97Hg60sTcraf/gXoF8+3iA3Qs41ZrBNVCwbXdxtf/QxZN25E4M0yzhhsdDM7hjEZbzc0eBsbmXH5ehw5Ip0XqLKuszWy9f910+urwg8knK/anc9b+Jq8yiHRh7FVs05m8VqvLca8ptKiNPpfYetOABU0Vl/3pnG2420icSzTdVcsD85Uzrb1m2+ySfXlpxtLdxPVPNpZhZNEzVz2z1OEM4y2i106cnVx9s5Yf8xCQ+WRdfOvRq3felW7y8j01ZNAYIAAEdoZAcqqWw+zzs5qhZ4axjerzNaHBbV218Pl9L9qtYwXhlsl0yhd/+Lv1of/Xa84hPaBpbElZud5kRuvB8py5t83UeKart62O4WltSaN53rlk7T/TZKhtau42z644ngwZfYKDoRucdTmeTo+gC09f6DXPLLsWLWeIK24uV6RW1F6fQivNom2oy9Rkau2+2uhTRaGxkBqJLx6cmsLz1zhFW1lIoqgWKsau/8f1uf/y9bEQ8i58vUwxr2OqevS59sYdroBG031RPbZQIiVJtyh9ZBmG5p1IFFpvdXd19o3YkLab6deFFgfhWxIMbbvfiahaoswlrK532u5csfWfaapS1TW2jaC5ZDYVeeHQmsxIGS/NWAaudnYPIveTyz7V7Rf0zHJjw+nbsy67tbvJUGt0v8pCW3pq1V+9ar/bi3kLjxOaVHr31bmBVvjh7ji5bfd82+TwQTOAwG4QSE7V4r7nxfybO6haGK0Nj16dvdxCDXOH07T/tDb3D7b6jPAPIFbVwLxzxWIKWgBoquuzrvlbtb7lkyW8ZHOuWFv53jlBlzWcIVpfcqsGZpxL5saAWAd8tZsd8Ikh7+Vh2hyqqUUdlWPPxfJ41EBgLVFVC4Xx/01M/93atX+JN7rF22DOcfHdde05dZgYJu9pAQ3DVcuKtdUb2Urjt1qWHMv3TT51GOZCYjl5avaxk5y4Xjq135JBLCr8cUTVgjcy7FwSXrItuxaHjYW+vnBPm5+idzyzC1cti/dOl3hOoKs7H9udSyMN7lAh91SJxUOEn5nV9l375HfSvPB9iTT32LzLq+1f3cqKdM7mSoargAAQSBICoFo2O5DyLz+cfPVWQ1hjuOzif92Y+289BRHKx1ea6S5h0DMa2fwXBquIa5uoa8plD+cjQOsNOmFxOCDLA6129sA3g6rzrWehDnZFtVDTe778+43xf1bH1zYP28OZ55/V3R3MjDeYGlct01fL/JXiI7I00kAk7/801FAeqLfVj2/E9xq9wwxVVISKYlQtIeZSSesDh3PhtoHYIzxK5umQ0a1EcdVibSVIZ4Zx5KlrpldFyBiKWbVQ1WNnJ180hL8vQs0xHw3cfvl5/2ZNNb5y4AAIAIGkJbAfVQubIT/ONn5dPb4mNx1nqt0vGfGxHmH98H6U1mBrn1zVy8NGDp689g8bc//dFClWI5xqYTWM2J3Tgw0qvcL3qr1uczmsbd4vxHgzGPy6htMXOvuu9w8M9g9Zn7gcltP+r9RoediCaqFxLq8HLsZD18K5w7xYQq5J0W0tVEbzzX/YmP7H5ki4wtyEB6SD2rFnYnX8dppg1YJx26xOl9UUYLKK2LuQXd6+N3OLVEZD0+CUy2Hr8zlo9MTAFLyuMHOJru+fczgfX/D5g9DJdH3vnMP5oJWL9ytYtVDKr04FiN2YVQuF3988+aq5TRsnAfahstajF6c+nFx962TYQLE4ywwzYV7naEKTgAAQ2CqBfahamMcl5uAvxxMoCSUOmvSTU+2TP2rLwqqW5pt/vzH9jycjLcNhVhpqbvN9T/BsQBSkrU3iaSSmb0WxLI6nC5O2BxbLfYvl/uTTbVUtFLr0JOdYM7cRyTulqZlzrJmjFsfngvHwjEG1YCev/hck8uJWRUx1ydB6dedxGtp9Z6JyaKGye5AjiM2fFUq1nEGqhWh4iGtWbP/JdDVSGP4wWPexze8r9EzaMHPJLVAed4VULW5HWDjVcq9pM7YWSl7vO5Ov4t9thS8YeNU++erDW73hNhHYfrbx3O9QOxAAAnuEQPKrljBOh61G40a3tbiX4c2oFtzW8rhLiLFodM+LPF1Yir4Z54r1iopgWcFMlu1VLZ5n+u54iDZpa6ExTLN1o1+zOTSGacHQS0wpIhMLqUe3Q7UcODZRF6+HyPxFvDsDbcFDZHoQFBfvBgYAACAASURBVKTCNllWHE8G6sJ5iNy2FpJq4V2wRnZQ+hSA29ZyNl5bC0ah8g7J+xutrz68fCpcrFgMYxpyoOFNIAAEkocAqJbNjqV8OEpcS+vm41q4ZyzLK7bOcsKXXUxtUPncQ6xGs91JCsjAuE0j2+sh8q4QRW3y0YWSHY7G3WRci6Cncuy59BibirF5vetaE3n7lqgjux2qhVpUg6xQcb10MlrUtpFP2LxqwYrOWJdddosv2JbKErZZl13z/bWe2RWTrYXeNLzkmPUKHQrf1D/SZSCEwnhnC+aJa9lk8jNE45LH3acF4QAIAAEvgWRULQfyijME4gzB8dKhjZrOZgY6LqZzyF6DrdpaKAxTlBwiJZ5D9HaIHCIau6RIJBOKZI0j887p6wZ0LCliEzSKJ49jcri7tbmpxXTptnXB4ZwbrPKmdbjTQKx9JoNKb2i6cGXE9nTFvuy3teRy+RKhSCZUXbW57JYzqC4hv4QRZ+yObyna5AHGoYlzaeK8rC9blQsnjqDjXFpeZojSNpVDJM6/sW7oNuGdcm+Vi47p9RM1Q9e8oELU5Z36FOq2qJZdWWbCq5ZY59LKzPClFpRF32d54nI8GWlxB7VQqFhMqoXKUvRNLrvmrQNdnd23rQt259xtQwjI7Ky277eSQ1TQ86L9837IIYo4b3dlyvlvE6gOCOwtAkmoWkKFkY5vaEzkLVO3rFqofH7fauT9Wu6E2a9FeMm7xRwhXmF5pImkqzC0yxz+uzP2J9PWewMXqngEWUPNLTs9aJmeebpid64szj4YNJ2+eu+xtdedzkpvGvZsMUcMiSBsYbcrj6QDv2hGe/mTX3KLNCWodt7b/x3t16KNa7+WIpP05gTPt5EMR51/eaHGvFYz9HW+/2eJIj79WVV9M08fk3K4kBxcsgRFjbzumza8aoltLqmb8V3mnO5d5i4ZCZvIYTTjyJMlcvq9qMu6tBiYsEYvMVwyu3c1nLp/vYFPnI1ePume/Vo2uz0uuvxcjwk8RBHnrZd20H0EVwGB/UAgCVVLbMO2ddWCUYW3midfvBPehS9+H9+rPtTeuLE1cn88nnx748JTOByB8KplT00keq0N7Y1bHXY7gCitRZG8LyLsJhDl8nD04H0gAASSiAColq0oAx7v0+/bH317lB8mkyg99Rr6HaJ/rokUk7uVBiTBtQz1xbC/ewCrlIdAQqiWLNOb6HeIWjdraMEo/FvN8DtESbS6wP0LBHaCAKiWrS386bXKuy/OfT6cEyZll1bw/0x98/fPr/5LyH39d2JEE6tMnvafns39w+z7aSTvGDy4AwjsfdWSrj16a7X9q7GCrfzmM+5gOnd3WCCvzeLwEmsmQ2uBABDYHQL7VrVwZOx6U6YvKmIL2iWrRds3zAv/sGaX/4+Jq/+rOGAdgn9xAsXH/mniU0qYX7jcwqAkGV66xHDaZPD+8sDuPBriqyW9VtozVhrO6BjzcFDzWtR9375/f/Wdttr4GhBzFVAsEAACCU1g36oWWBGBABAAAkAACACBBCMAqiXBBiyhNTI0HggAASAABIDAVgiAagHVAgSAABAAAkAACCQGAVAtiTFOW1GmcC0QAAJAAAgAgeQgAKoFVAsQAAJAAAgAASCQGASSTbXoqvXYkdzkUJTQCyAABIAAEAACQIBIAFRLYqhL4pjBMRAAAkAACACB/UkAVAuoFiAABIAAEAACQCAxCIBqSYxx2p+aGnoNBIAAEAACQIBIAFTLnlUteccLTR3M7di9F7YNBQJAAAgAASCQFARAtexZ1SId1I4/F8vhB3qIKhuOgQAQAAJAYD8TANUCqmXPEoCGAQEgAASAABAgEQDVQsKxQwL2MF2szpTL6Mx4yt9eWwunGJPXYAL4ncJ4hmA35ga0BwgAASAABGInAKplR1YmWcnQRv04elVfviO9u+4+rr/Zw/BVx5Hxztu0o+t14+uGu7PS92rovo+ww9xez+WeC1FRRG/RccnoRk1HDcFJSeNcXq+/0eEr5MCxiTq8AfVjU5LzUzXu4/E1qc4tXGSFl6fk59u4575WDj2vG1urvnGHKwBvVOx3DpwJBIAAEAACu08AVItfK2wjfRqtSIbJ2yrMG/Xj69Xdg/n1zbz3Bgvlh706Q5zfu1Z311ZiPMlUn8xHqmJdc059wNsYuvQ4u3GiZnxN/t5Jtu44/qphcHwtjK5aqEweQ6xmn19Ausc8K3mvjVvfUWJqzvBUgUqoH1uvufFFyXs9pZ2zSNbcvcMMsgZhxv45+9MHXWXelvvaAAdAAAgAASAABHaZAKgWr1DYgVW5Rjy6Yeht89k/fFUc0H1dM75QIvXZNmiZ55/Vj01w/bqEQo3kIYpBteD9ohun6seflfrVkm96oRLqbnR4bT+0DKPNML4uNwa6kLCm4QXH8vTVsuBe+LoDB0AACAABIAAEdoUAqJYdVi0akzhoIGnMjuf1Q9e8igFXEvI71ePPJWqfjtk+1TL2NSfIgkLFkGrRmmT+tjFxjdV50mfv8X/EIrRqB3H5FBUcAAEgAASAABAISQBUyw4uw0gHhFItbF7vRv2Na0y5OtP3OvZF9fh6xTGCPtguW0uMqgXj5d/YqO9to+0gkJBTEN4EAkAACAABIBAjAVAtO7hIh1MtxYU3g4NtUQSMvN4X+BLZ1oJKruk47jeHYIHRuO6PkIcoLtVCiOclFB7jZILTgAAQAAJAAAjsKAFQLa9BtbDzezfqek10Ju0A/qJiBBOLrz3ia9rxNZLPyPcRhnRPXa+JYBcB1bKj9wkUDgSAABAAAnuBAKgWvxTY9vEIZ2uhMEwL9WZbPnG3/jw1U0yOhOWY5GN+B9MBcYekoyPTE65Lw849qx+b5Yu9cievuWJ0g5j5DLYWsBUBASAABIBA0hEA1bL9qoVGKyrOEIgzBM3S0Q3t+eP4cTGNGBLLqSkdWkcJyaY27jFTvulrjXmj7uY1jNSYw+zO5/Vjz+TnewrPfV1p3qgbuob5CslDhdebp8SNzWxdm+Tms2qiamHy8ErFmabZ+jFbvliM/s0juJ+Co3HdcS1BHiJP5vMFYdJN/W0XqVAgEAACQAAI7DQBUC0kobAtuMX8EGEr61Kd1y7irpGj5p23aUbX0Q5vQ1PS8yaMmPbsPodZzDmH70Q39lxzuYeZR2reAbFJ3LtQM7ZuuGsrPSbjdD439Ha4t2M5oPvas8WcZ3M5PIzmZo93sxYKFaspHVqrfI+Y38Tjda/5SvBpFKzl3orDOQeZz9s/T0ij6QMOB0AACAABIBCeAKgWWI0iEaCprs+6Fi1nJLDEAgEgAASAABB47QRAtURas1/78LzuBhQ2mhef3m8tCi97X3cLYfiAABAAAkBgHxEA1bKPBjt+hZFbVGssI0fbxF8IEAYCQAAIAAEgsD0EQLVsD0dYy4EAEAACQAAIAIGdJgCqBVQLEAACQAAIAAEgkBgEQLUkxjjttHqF8oEAEAACQAAI7H0CoFpAtQABIAAEgAAQAAKJQQBUS2KM097Xv9BCIAAEgAAQAAI7TSDZVMtO84LygQAQAAJAAAgAgddFAFQL2FqAABAAAkAACACBxCAAqiUxxul1qVqoFwgAASAABIDA3iEAqgVUCxAAAkAACAABIJAYBJJUtaTzqOnsvaMNoSVAAAgAASAABIDA1gkkp2o59O637ZOvzt3/Vl+rpMJv6AABIAAEgAAQAAJJQSA5VQuFyqYypLy2b889+laalxhWr60rUCgBCAABIAAEgEByE0hW1YIrFX5/8+QLgxpcRaDbgAAQAAJAAAgkA4FkVi3U2olzk98p+ckwTsmtnaF3QAAIAAEgAARiIZDEqoWd8+mP7V8Ns5PCkxfLWMI5QAAIAAEgAASSm0ASq5bS0oFX7QMX00C1AAEgAASAABAAAklBIIlVC08w8KL9bu+hpBin5NbO0DsgAASAABAAArEQSGLVgqVVj304ufrO5V6BHPKfIbgHCAABIAAEgEDCE0hm1UJJVwr6vj83+ar9834MLC5AAAgAASAABIBAghNIZtWSdfa79kffaauVaekJry5jsZvBOUAACAABIAAEkptAEqsWPkTjJvfchd4BASAABIDAfiOQzKpFMPCq/dZFeoJbw/bbjIT+AgEgAASAABAIRyCJVQubffH7dutYAQPcQ0AACAABIAAEgEAyEEhi1YJR5V9+OPmjXg47+ifDTA2nu+F9IAAEgAAQ2D8Eklm1UNDvEK3C7xDtn9kMPQUCQAAIAIHkJpCcqoWapWSXmZQDq+AhSu7pC70DAkAACACBfUUgOVXLoZNTH97/sXlgWCDk7avhhM4CASAABIAAEEhiAsmpWpJ4wKBrQAAIAAEgAAT2LQFQLRCpCgSAABAAAkAACCQGAVAtiTFO+1ZWQ8eBABAAAkAACPgIgGoB1QIEgAAQAAJAAAgkBgFQLYkxTj6ZCQdAAAgAASAABPYtAVAtoFqAABAAAkAACACBxCAAqiUxxmnfymroOBAAAkAACAABHwFQLaBagAAQAAJAAAgAgcQgAKolMcbJJzPjOMDqTN1dDaLk7eCe/TXv1JxCaUVORnjyGcViqZCRGv6EOLuWmpHDyGDGMTfiLH9/lHwkHcvNSD+yPzq7bXMPcAGBXSaQxKpF3FNpXq8+X3Mg3P3JFHPO27Sj63VjzzXd19h5m0TPMekHvizIClULXWLoNtsWFpdXFmfvX28UsTZZxebWGP4Fm8t+z7i7lW6uqRGvStXXSlwflw+XhqJXyvvUZqhVhvoo1IiEq4hzStrz7fvWF+fu9mLhzon5/YwiZZVCFF6UsHKkWlUpLzXmAvHeHWFJdFWSwlBXMXOk+ipxfkqUAlk5Ek1VZVnW9qmlQOzp+UKVTi0pTIvSkniGhlxUGk+h05Rl7kQXUvNFWr2Eu8viDx87KT9uYun5ApVWXlqQTuYTOCKv7dNcQaW+Ij/hHz57hufmb5nk60ISqxbpNe3YRk3n8TCqhcftXqsfW6g411NouiMfWq+7e4cZ/wOLcUL9+Ytzn99iM4JnVa5haMa5MmMZ6Oq8dP3e9KJzYaSBHXzajr2TBKoFy8O6GiWuj5Uvw6kWHvvst+cefa+V87dwc0pLb71o/+pLgVB5KGvLPwGRUSzVqAWZYb+yp+VUqCulrPR4xz2nWKWXF2WH6iZPoNFX8KKuELnFlfqIcireJgWdnyGo0OpVwngFWVA5YdfaI1ml2qpNrPFhCyRUzRApqtV8jPBOLFdt8ZxUnlCzidX9CKNYVaVSVlRqRazMUFNid3sRDCFDUFGtKc583c0Ibhi8k/gEkli1YBQqkxZ2hPLalOPrykae5wSOjFN/ksGJ8/7n8y7/2P5o6mgeO8SFWMu9FcdUt8zTBrrMcLpJwdvcbcziivRVOnVRXI/URFct9OL8JaRXKv6jUbgUTrVgFKq0dGC1/f5YaHNX2AlAGIj0Uwbrq/cv1oYYxFguJ53jtqPkh7KI4DWm5QsrteKc+PUxvgwIQi4DET4itY3Q5UR93y3d4r1PY+p4ao6sSitl7YQVJwJthlBerQk9rBGuSuUJKjXCrMxMoWZv2jPSuK8DZgRi8FESEUhO1UKjS0+ydejFFLNDj5b4mmZ8TaIOL2uiP+moZcPvT754590w7gleq9XluNeUG2YtLKlqu22dW1x2OZaXZqxDF6pIgqbE9MDhdKHX0/uDt6YX3cfOucEqOmoYTXfV8sB85Uxrr9k2u2RfXpqxdDdx8Y/w6liGEe8leCH45QnnLWJlfKA4os9NoeflzEZQLRglr7Px0asPPz1FDT3WUYdSKf381bmB1rit9EHVpWVHtqNkZgrVaik/Pqs+Wtj0OuJLQ/LypGRLq7Sy7DQmg1dWUamt0mqkgnxyFZnpDA4Dy83MykmPtCqzuOU6nVaWE7cdCKOksTIYOYxMXmZmdgRHVUqWRFWtVwnC3RQRRgp5HEgQqtXFZBGfcjC/sFRWodJWaXUqhaw4hxOhJcF3JSbU6GQCehonW6hQaHRVlUphTlBfUpmM7OJCgUQgELAYmZSDfEmlku+WkriDSSXkpWUUFEtVaq1OrZBysQBDSCaDKxHL1PinFYVZzLSciiptRXaav+MpGQX8Upm8UltVqZII+RmhxislU6KqlGCpLG65VsQKa9UL7iP+zpF0lkAoUSo0OrVKIeTl+BU2LqHEAkmFRlelKmNh+cXlmiqNSpjtFdnuPpbm07MEonLUi6pKpSg/l3jjpHEV5GHS66REtyayLUlJdkFWTrkOkQ+6m8K0H7FKyeDl5IsEpRI+L5+eitG5ZRJxcYa7BEykqNYKSVhwY2Q+yU4ZgXN6vlJXLSMOCgW3w5HnW3iM8XQkQh/ho3AEklO1HGafn9UMPTOMbVSfrwk9h7auWvj8vhft1rGCEL4h/BkUSbUUNgzNOF2L1j6TQaU3NF29t+Bwzt0m+o8YfHWZquXWnMPpsj95MNh6uqW57XqnscQ9kLQm87ILFysDVzu7B5H7yWWf6vaLMGa5seH07VmX3drdZKg1ul9lJGHkf1CGmxx75v1oqoXKw41ettKQ0UWhJwCx+2z2xe/brWO8TazWxMKj2VFSMsUKrYIXIUqXWJrvOJWZnpGdLdbqFKLMjGx6Rjb9YCZxPWYUq3UKcU6xUiUr43H5vFJVVbWOZM7BhBKZUl6p11WKI0XtuOWRQhjX+uGeJHSetEKmUmkjh9dkssRaXbUu/oUWo1CPpB3MzuDJqqoVPAyHkMHyL7dULAUTSjX6KkUZl5WbwchlFSvU1VpxTlSvmW8asHgyvaq0mCfVyMXCHG6xoFyrq1aSButggUCm1WnUUnGZEOkSVXFRmbpaVeh+AmQI5dVaIbdQpFKLi/nZXJG4Uq9TiTG/7MjOkWh0WpWoiJ+Vxcsulqk0MqFEqyMAT80UVWi1FcLirMzcTK5YqtGrxCHsdoxitaqUl84qU1VK4gzxOZKRr1BrVcL8gsxMvA3VOgnXQyklu6KqWq9WSPnFUkW1vgpvCa9UXVVe7NElyKqnk0pkClUFn5ufySosFKurCCWgyZDGomfkC1R6VWkBmqsZ2emkAGdOoUKvKM7xP1swkbxaK8oOkHe+cQk+yGTwKhRanUpWISyVSlU6tVTAl/pDvlJzZLpqBfcg4cKDgopqrTDLL+8ickZeSJ1K5NFA+G2YGiguI2H0d813C8PBthJITtXinjdi/s0dVC2M1oZHr85ebgn7/T68aqGprs+6HLMDdX5Lj+iCbcUx26f3v4OGWXZl2uF83CX0G1E8tyKuWhbvnfaIGApd3fnY7lwaaSB++9yih4gmPs45djK+l7x4W2en9/6PqlowqvzLDydfvNUQMmKX8PwK0zxqra198tujnOhnepsUfCZuRykvJhs5CKel5vAVuoqi+AwA3upYXJleLQwZc4OHc6pUFVKB93t5Nk8WrB6YOVKdujRCxG5mVqkGfUtWiRlhKHkbQ+gU8czUfJFGFymaFa15eh1a5Lzf3YmXx3CM9Bl5OfE0KTWHr9LrVJJMv9GCmS3VhT45ZEW4FUGhUFYU53rEUDpfQgzOxYevSibK9EpbOlemrtbrtFJ3dHMKS1pVrZaWK4UsT++QRaRazfd+q0Ex2lpFIcO3dh7BBBIxGhSeR4Om8YSVuoqiHJ8kRV/6QzitmDnlWolAKKlUC7JiX+zRqKVgIrmWeFUmolTuiQXOKFLpNO6IK6Qt3EbBFJZU7Z3VeB/1VTIR5ueMztR5T/AMR1qhWKsThxYi7sgkn/WFycJ1G1EiRJ5madlSdbVGzPXeR2m5xQpkhJMXefyGmECjq5QQ1XkKq0xN1DFROGcXKvRV4gLfKFCoGENAmniRMUZuP3y6dQKgWsI8gkM+2ohvomXy1VsN4YNAw6uWsu5Jp2vySjmxatwlNHddQRIoSLU8IYobbwNw1WJtJdhOGMaRp66ZXhXhy+XWVAuN3blWP74R16uuuzlM7PPWZmp01UKJKiK96EK2hH7y2/bJqc2aavD1IJodJSM/cmIRcTIEHUdKb0HWb52W+OXySJZYF/DYpaQViLQ6cU7YRS4Ft6uLiiTyap2UR7KlhyQW/Cbu/VHyiN9xScyZ2RJtlULMl2jJ8iKos6SriJ8ifaYOlSqFL0uBYgitwQF2/rAlY7gLQK9TCL3KD6NQc4srdVKeR4LggRoKLslOhi/YXksJHVWnVxAjkdOLpVqvGysNSboKspOCkl5IFEb0fGUV8vt4u5yazZVqQ4jI1HwhGnG1MA5LkrtMZrZEpxYX+GxUKQcLRJV6r5Y9whLrdFI++hTFCOsk+GxJ5ynU3iUc9VEjyyEPMb6ik5UukmtkMxWBPMoC86kKBm5oiT2gOBVFlJMgUzFkCPG7hJjccr2OHK+NN9uvY6JwTi0QaQPC3vEvBhKfjomM0Tt8hC4H3yzwzlYI7EfVwmbIj7ONX1ePr8lNx5lq90tGkgvRZ15ag619clUvDxWHS80tUhkNTYNTLoetz+eg0Rd5qmA1jNidLksz0S5CZRmGFp0r5kZSM9yqJcAAg9oWrFoo5VenXPZhYp7z1lTLVmZVjNeyGWpP+JE7CClsHFIMqoV6Qn//Vfutzni9G9S8U4J3v2y0vvqwzxTvtf5u4l/E5RHsKNESi/xFhXzYIUnh/9ZOOhk3YMiLvV890eUsrkwXkG2UkkX+uhlQS2puscKdsXwEE6iRBiItz9FvB/R9NJwhBK8rPadCXa3iY0dQLIgmcOEh9Sigbb5/8XQbckiEp2EMgQZ5c8iraUaxOnbVgrsVNAKCE4GCDAa+LBgWt9y3uvtooAXSm3COlGJgSBAmVnljVvDYI1L8CupypphgjMEtZFIRK4fPzRcWl8rkGr1Oo+BnkoVmajZLqFRrFIUB7/soRTjARVKFoBBVUSQWSpQqrV4tk2R5uCERphLgvpuDggqtO50KmUa8Dh28jwFmFSqGOCuERGMJMhFpwruuUIyI262GC9nyOCJa0DQmCXQ0FvjcVnpdQkjEK9y98KDA1ZjXnkShRuOMmhcQFoNiqny2HLfWDI/RNz3gYKcI7EPVwjwuMQebECbitFrTT061T/6oLQulWujqXhSPEvCytfLdo8hqQKGygaoFvbky0rA11XKvadtsLTEtJBEekTF8pBbfDRyImo5QcUixqJZa9Vev2u/2HoqhXmLXDr37bfvkq/b7E6X8UEMZW2nR7CjREoui1ZLGlfk8EcTGo0c2HopLip9Fy21gBm9EScFiiTX+79DIfq5X+dwW0drmbQ+KC1ELvc4O8lWpmLBCq1cIct1WdzpPURW09njLCf+kQ4EjPhlBPA1fljRlmaRKkUfM/52e9BHxWs+xJxSXcBpaC31Rz25bV6ClKhclnHvMJ2gt9Pt68HLQd3rvGo8MEl6rjK+n6WjvGY+DiZJaINbqVbIKkVgqKi0TFAtyWDlpPrsLKvBIBk9aoVBKZZow2/aE6JevLnSQJVFXa+USKV6FpLiomJXJ8vtBcBuD23mHbFcevcXhK3SibLdXC5c1woBI6kx8GyG//YZCxcUN2dpBagZKgNJJucyUTImiWl0cfo8A0lU40mCFRKFidLdIco/dwWJptZ5sU+TwVV41hsxIUTjjwT1kBYzKJARjRcbobgb83UkCya9a1KHxbTUaN6KtBX98hPcQCS9NOgO8OVRJ62OHc/pqGam1cdtaSKqFd8HqsodPYoryjKMxE8pD5LG1XIzfXsJOy2vR3n3R/tWtLBL8KHz8j9SD+AYt4SMMkCd+Mxu0+BuQKdSGS7IIliNouSU6GlCniFYBf7F4F5h4OItG5MsToWL4ahrnTm74YhAyYCWFgTZxqZIR9gJORcIo3pRdfDmR5fgjKnwdwZfJgK3n0gvF2mDriO+SgIMQkiujWO13pqTzJdW+xdt7bXqx1PelHJc1ZDtQZrZEV+HdXyezNHgEyaaLdL60Wif26ANvFeQJmY7x6GnI+CEv3kzuNxK41QquNy7HP4HdteAJRO4dVpAOUIlQeBMK7vH6enBZ43OZeS5HJ5BDv6kEmw25/d4a3UJHyJfp1JICYv6R94TQ3adQMYTRKwS9J3scW55ykMtJR0ogQiJe7/Z2oUuicUaTn+xYdNtyfHHZUTCG7nLYHnl7ASfEQQBUSxywSDNMPrzpuBbcm+N4MtLkC3ukqa5OuRzEJCC8rq2pFnrT8BIh5pdv6h/pMhBCYUjdCb7Z6NKTnGPN8b2k3v1vNks1uBnonRhsLd64liidCl0+hmvQzUXjRrOjeBKLCDawMG0I33LS8paSwS/0BzTgHndyqEcGnmDi/w6NqkPbnKi835JTMX62N0SUQsXSsoTFPKKDCQ8U8Lo2wreKPMR4don3S/mRjJxCYnxGjkCURVos0ddfr9+BXE54OMjgVO11sqTm8PL9yTV4qirRvIQio3XIDeELfY1Yi1tzkKytKKnY/5UdDyXx2YpwJky8Cu+KjrqvFRBT2JAy8zv1UGgFKX3sSAZXKCrX+X0Zqci1oSr1d4pCzWRk5wepcGZOuc4nj9JYfBbZLxZpvJDvg6wwUjkslmfo8cXYnfSO5luVBDefZOEp1u5BwVPMSHn7qRwUeRO4DTQeeuLNEkrPFuYQJpu7ebgy0Ot8eij8oAd0B5msNFIWQbmmohQkgksISUk0tbzzn5lVqtYRNw+MxhkXxxp/wlFaLl+hI23HHBFjQIPh350gkIyq5UBecYZAnCE4Xjq0UdPZzEDHxXQOOT1nq7YWCsO06RwiCjW3qm9y2WW3DV1orDU2nhm0LjmWpwervJEuDJ5EKJIJRcb+OceTkRb8WML1fhohroVka6GyFKiWeetAV2f3beuC3Tl320AoZCfm0/aWmZKXSxPn0sSl+QsfV1hk6eg490CoLnhziMIHR0d8MuKqZWoTOUTIjuJJuwi5LkZLLIrYKh9MPLBULcovzCkqq1BVEMIhgzeiQHuuoVFCBwAAIABJREFUVAiLc7KIOsntLpHxuYVcQYVcRkzH9TQ7NUvAzy/MYuWzeCjhVi2O70swivbV6NXl4pycYr5YKSetvu4qsrOLhTnZ+VnudFltzJLCiwhPyUFdy+aJRAqVL1UHUUrPF6Jtf1HaM5blTsfVSshSzAczxAFah7xhs+7q0grEWrUwvzjLE9/jTrBSi3i8jIMsemYBT6yqqtbrvC4kPLmGGBCNwnvlWqUgn+/JOcKjeXSVsuJ8fg5PJJSq1QqVohrtXOJdXzHkZ6zWVpQKcrILsnkioUyr0yo9adVeCBQqbqhQlHFz+IVChTyeoBAKFSlsd+o1K7sgp0girdRVeXOz0RzzJMZnF8r0Ctycgzu5hIyDKLbGnRetq9YpJCIul88tkkhUOl2ljBsoDfH9VyorCnP4PKFCUS4ghrx44GNiBZIaHo9hiBHx95d0W6XgF6qkwiwGKy0jl8WTVGhQVhohXwnfc6haLS4qzMoq4JYq5SqtTltBFDpROKejmayrlOGp3XxBuVJRGZAkFQlj7H2BMzdNIAlVC41zeT0480VjEpPuhC2rFiqf37e62f1aMAq1UEHeZU7h3+y/0LfFHDE4xnK60DfMNOPIkyWLiWg4EXVZlxYD/UH0EsMl89SCfXllcer+9QY+cSUjPQ58Je+lg8wjlovKl2h7XOJLdCHYPM7jXV5tf2QjfdklDXfkzuKX3x/OieMSvEDcjiLxWz4Ca0EP2fi/UIYYgrQcnsSzcRmPuHHZwWJJpZq8bzqnUKZRSMWsDJKZIYXBFym0VVqtQir2Rl8SW3uEwZNWqDRo97NKpbi4gE6KqCCeGfY4PVtSUalDe9wJCwmZON7zD6K911QaHWpDeRk3cxPJz8zMYpln/zdf4qt3yNCmYRKVSqur0qgrpBJell8NhODpvcr9UWq2VFVZRlzY8O3j1FIhP8P3tR4NgRopFfylKi8TStUKiWfDwHSeTKUi74XDEFZUqiUCP8lURmGxRKnSaNUqpaRUkJXJF6m0KlkZwViSyeBJpJ5d8hRioSDrIGkQ3a1NwQRilU6n1colQoxkwfKiJveO1P1UTrZAJq9ElyvKK4RFBd4OHskSalQSPAU6lSdQaYS4ryojX6FSyYqz0XMjo1ilqyzLyRFJUAu1KoVCLCgO2YAUBl8o06CBlvgTxQnNOOJOsc7ysY3Q4MCPjmRwpQqtd79BjVIkVlb5tsxxn3ywAG2Op9XKy6X8nJzMYpVKRgoWRkasiJzTsvA+atRSiTgnM4dXrlEE7IsYFmMMQxDYI7gkbgJJqFoIt0cEHFtXLRhVeKt58sU7Z7Whawwf1xL6fJjNmyaQ19v46NX7n54Iu3dOlJJPaO+/OtsTfuud0JdHs6OkcgoVukiJRaGLjTBp4aPXTCDlIIeB5dBJ26a95ibt1sME/XinJy96a/M2hSGs0Pq3tttM+1OZdAz9yHmKOwbLu2XOZoraWl+gxtdCAFTLVh46PN6n37c/+vZoyPQTUC279ERQHr31Av0OUZD7PNY7Kv2UfhO/Q5SWL1RF2ug2JVMkV4jD//LzViYeXAsEdpkAHopEyiiOvwFp2QyWQFzp2b8u1tsz4mME7SnnDhyOeNq21AWF7BECoFriv/eIt0d6rfLui3OfDwdHnFFAtRBB7dQxj9323blH36nLQu4bG+Pg4j8IYJ1SV59g55Vu1mATY11wGhBIQAIBmTibup3pyI+mEgsKN+F/DLde4tsHy7Lj9ZRtqv3h2gDv7zKBfataODJ2vSmzaBtwZ7Vo+4Z5xPQB9y1BlxhOmwyixAolSbjnKT/n4oS+WrrVcUzXCi7amr/68cOBznh3fNlq1fAABQIJQCAzLR15ZPbcbE9jZYSK/tlz7dyD6BK2SftWtey92y9h5xA8IIAAEAACQAAI7A4BUC0gX4AAEAACQAAIAIHEIACqJTHGaXc0LNQCBIAAEAACQGAvEwDVAqoFCAABIAAEgAAQSAwCoFoSY5z2svKFtgEBIAAEgAAQ2B0CyaZadNV67EjAr5KCLgECQAAIAAEgAASSgQColmQYxd1RuFALEAACQAAIAIHXSwBUC6gWIAAEgAAQAAJAIDEIgGpJjHF6vdoWagcCQAAIAAEgsBcIgGpJXtWC1Zm6uxpEydtB2JcPCAABIAAE9hkBUC07uajTJYZus21hcXllcfb+9cZd3t2ff8Hmst8zvtafFMgrzbF8UO66WLFw+o1fyw5iO0l7n926e+FLD7QBCAABILDLBEC17Nw6mmsYmnGuzFgGujovXb83vehcGGlg71x1QSW/dtWSd5S/9HHFf9RmqfPS9YqihYsV/1F1kB7UTlAbQAAIAAEgAARiIwCqZccWUazl3opjqltGc48EXWY43aTgha6OwVMrdPoy3rbmbL9m1ZKJDbcqnzdm5Xm6nP6rM8qXF8VdebsszKE6IAAEgAAQSBoCoFpCy4htGGBeq9XluNcUWoiUdU86XQ70mjP3j8wsu49dtk5fGApbbxqwTC3Yl132p3O24W5jEcFKQdNdtTwwXznT2mu2zS7Zl5dmLN1NXP8JLMPIoqd8T8kO5y57i7JlAtfHZbeKPSTzZILn58uXLioX6jP87dwx+LFp9m0YZagICAABIAAEdpEAqJYdWzgjqhYaW1JWrjeZkbZYnjP3tpkaz3T1ttUx3GOP1fVO250rtv4zTVWqusa2kdkVxxOzqcg7M2hN5mUXLlYGrnZ2DyL3k8s+1a322HWoGLPc2HD69qzLbu1uMtQa3a+yMJaenVi8U95+q+LlRf67mXjhmYxbv5A/rmRcOK18eSangsScpro6tWKf6qvzNX4n2gNlAgEgAASAQBIQANVCWkG3c0Qjqha8IlbVwLxzxWIKEhPCS7Zl1+KwsdDXHu5p81P0jsdyg6uWxXunSzwn0NWdj+3OpZEGYrjrFj1EdOlJzjHySy2jxYqL1vWB8uUZnho/X1wlcv0iX59JwaXMGx4p4ymKprs+63I8GQDVEitb36yAAyAABIDAfiMAqmXHlooYVct0l9BrQfFOvpLWBw7nwm0D0ZOCR8k8HTK6DRK4arG2EuQOwzjy1DXTqyJkDG1NtRzmdm/Uj5NfQ4NEVRTYbBLJgyiK5YMcMUahcrIs5yss0gNUjKKvL3/5seADQiPdhdCD3olYuBcUqUZ4EwgAASAABJKeAKiWnVj5cotURkPT4JTLYevzOWj0xMAUfGLhtpZg1ULX9885nI8v+PxB6GS6vnfO4XzQysWX82DVQim/OuWyDxPznLemWrY49XFbyy/y1ViKvr7M9YHHK1R/ouLlxQBbyxYrgsuBABAAAkBg/xAA1bIDqoWuRgrDHwbrPra18gPqCqta0OWPu0KqFmZE1XKviWC0eK2qJeXdRjmKaynM/o+L5cOlKXizU3/RrHyJpMz+ucGgp0AACAABILCNBEC17NgKugUPkelBUJAK22RZ8Qd/hLO1kFQL74LVZQ+XxBR1DtG43euBHqK7g5kx48pTCF0fly/8osLVzH7DfRXriOW8cukEg+j5Ak8QEAACQAAIAIGYCYBqiXkZjpmpRxBsXrVgRWesyy67xRdsS2UJ26zLrvn+Wo8pJSbVQm8aXnLM+qJc+ab+kS4DIRQmsnChZcibOcfIL7X4QOy4WEe+PK98+XHZr4vdhpYUdY3Y9bHk1/4Q48gNgE+BABAAAkAACAQQANUS+zIc55nhVQuNXVIkkglFssaReef0dQM6lhSxCc4dd07QyszwpRZDbVNzn+WJy/FkpMUd1EKhYjGpFipL0Te57Jq3DnR1dt+2Ltidc7cNMYfTBkyUzfybJ31j6WP5QmP2u0ezLtQLlz6Wz9ZmBDUAZT4v2af69JD5vBnI8YppOB8IAAEgkMgEQLXEqUViH+zwqkV4ybvFHCH2ZXmkibRsY+pmfJc5p3uXuUtGwiZyGM048mSJnDIt6rIuLQb6g+glhktmtFXdyuLU/esNfIIwir0jWznzDc/vEMmf/0I4rDiYHYI2rfb2U5fjiTc9ClZuIAAEgAAQAALhCIBqCbGOhoMV3/vhVUt85WxFNCTCtWhzmhVbZ/muK6pEgANTBQgAASAABIgEQLWAatkxArHIAqyuf85uu+Tf1Zc4O+EYCAABIAAEgACRAKiWHVuzwdYSi2qhl1TV6t3p3MR5CcdAAAgAASAABIIJgGrZMdVClxhOmwwicHzsGOFYVBGcAwSAABAAAklEAFQLrKlAAAgAASAABIBAYhAA1ZIY4xRsJYN3gAAQAAJAAAjsNwKgWkC1AAEgAASAABAAAolBAFRLYozTflPT0F8gAASAABAAAsEEkk21BPcQ3gECQAAIAAEgAASSgwCoFrC1AAEgAASAABAAAolBAFRLYoxTcmhk6AUQAAJAAAgAga0QANUCqgUIAAEgAASAABBIDAJJqlrSedR09lbUHFwLBIAAEAACQAAI7DUCyalaDr37bfvkq3P3v9XXKqlJtCfgXps90B4gAASAABAAArtJIDlVC4XKpjKkvLZvzz36VpqXGFav3Rx1qAsIAAEgAASAQCISSFbVgisVfn/z5AuDGlxFoNuAABAAAkAACCQDgWRWLdTaiXOT3yn5yTBOiaiIoc1AAAgAASAABLaXQBKrFnbOpz+2fzXMhrgWIAAEgAAQAAJAICkIJLFqKS0deNU+cDEtKcZpe7UqlAYEgAAQAAJAIBEJJLFq4QkGXrTf7T0EqgUIAAEgAASAABBICgJJrFqwtOqxDydX37ncK5BD/jME9wABIAAEgAAQSHgCyaxaKOlKQd/35yZftX/ejyWFxkxEax60GQgAASAABIDAdhFIZtWSdfa79kffaauVaekJry63a7yhHCAABIAAEAACiUsgiVULH6JxE3deQsuBABAAAkAACAQTSGbVIhh41X7rIh18Q0AACAABIAAEgEBSEEhi1cJmX/y+3TpWwAD3EBAAAkAACAABIJAMBJJYtWBU+ZcfTv6ol8OO/skwU4PthPAOEAACQAAI7DcCyaxaKOh3iFbhd4j225yG/gIBIAAEgECyEkhO1ULNUrLLTMqBVfAQJevEhX4BASAABIDAPiSQnKrl0MmpD+//2DwwLBDy9uGgQpeBABAAAkAACCQlgeRULUk5VNApIAAEgAAQAAL7nACoFohUBQJAAAgAASAABBKDAKiWxBinfS6uoftAAAgAASAABChUDFQLqBYgAASAABAAAkAgMQiAakmMcQKJDQSAABAAAkAACIBqAdUCBIAAEAACQAAIJAYBUC2JMU6gr4EAEAACQAAIAAFQLaBagAAQAAJAAAgAgcQgAKolMcYJ9DUQAAJAAAgAASAAqgVUCxAAAkAACAABIJAYBEC1JMY4RdTXPPZZW8O7tVRqEvRlE13IPNh1Wv7y4zfezQxFqZT3qc1Qqwz1UbS6DojbpDefVd99pu29xszzlpB3UnJjgifw/hutkH06KIAFCAABILAjBEC17AjW3VzSDjXYPpz8saFWupuV7pG6Ut4oYQ9/UPHyY2VY1cJjn/323KPvtXJ+vG0WF95YUzYWU7HDmeef1XQeP4CmCpvd+bxu6BrGjLc0OB8IAAEgAAS2TmAfqBZ6YVG5vkolY9J3SqAweGqFTl/Gy936eMRdQl5v46NX7396Ki3yd/qdh0DDJGWqOoWokBa5Jdv4qbhKjPTKebHlHUlY1YJRqNLSgdX2+2MFWXFNAOZxifm5RI26QzPa6m52ZGCUA+o71WMLpdLd6+M24oKigAAQAAKJTyAZVQu95d6Kw+lyOF1269Cgdcl97Hg60sT0DhhTdeHWg5mnKw7nyuLsg9smVSFJLmCyhku3LY9nnq7YlxcmLQOtCjZpwSvrnsTLdzjnzP0jM8uoLofTZesUkU4jlemtelvfLBUMvEDrMSOo3hgg0HjGzhHb7JLd6bI/mbb0NskYxEZGg0DTDT7xdHxyuM/yxMvccqZkW/sY1DVfI7HCI7+QMsQsSp5CGEm1YJS8zsZHrz789FRcTjQer3dNc05NYxZzLj/XnlcfYNaI765rz9fgRpfY+ihpHrJaBy40X7ptnZ5fXrE/eXzbVP461K0PGhwAASAABBKZQDKqFmouV6RW1F6fQmvqom2oy9Rkau2+2uiVFDTV1akV++xIV7PRaGi6cOvxonPF2ipiedchien+onNl3jrQZWpqMV26bVtyLM8NGgjChcaWlJXrTeZFp8uxPGfubTM1nunqbasjrfq7MC2Et5onX71zNmTQRhQIFMzYP2d/+vh2a5PRYDR1jkwuuxbvnfYJjugQKPQSYbm+6pIVibalyeHu1ubTrVf6WsvitmlJ20rPm4KFV+wAo6oWKo93+cf2R7bS+MwtRSdLexdqRp9VdrZhnMOZ5xbq7t5hcrzzJLyc8rdcfWXa4VyxP5ke6b3U1TtkRdpuYaSRMJc8pbmH40FXmf/aWMqHc4AAEAAC+4tAUqoWfAh5rVaXY3YgWEmUNN+3Lz+4UORbHthNwwuOJ0NGn9mfqTM1E6wvNH6rdcUx1a0mL1esqoF554rFxNvMjGEz1Cc5x0gvtpTna1JMB+ystu/bJ789ygnfgLAQMOEl2/KSudm/fCIszrmrPs0RGwSMZjQvu+aHjWRjVUzt9zb7QL2tbmyCs4VIkeiqBaPKv/xw8sVbDaXkQfS2IWqDD0ivacaeS3TsqGeSTsBVy/R1BeapiGkceeJy2C7JApuBoUm4PO3nH3gCqdiYmw1XAQEgAASSi0Byqxb7sNFnQfE+6DHkP7KSvBishhG7c/pq+K+5ueiEx11+oYMmAa5apruEm5kQKGZio36c9KrpPB5fUaWlt1613x+OtI4i1RIKArXE9MCxbG4iGoeYZyxOl7U1rAgLCcGtWiwmv/rxco69L7uiWiiM1oZHr85ebonLSeSTDjL+zfWazpO0eHuHVAtREFOoss5px/J9k89Z6auCQmX5dDPhzXhrhPOBABAAAslMYP+pFlHXlMtuaatTqPTeVx3y9SzdNhBdG/SSstoW06WrvX2D/QOD96btzrnrCuIJW1It2zKlatVfvWq/1Xkogj4Ip1rodf0Ljicjpio/BLevZ+ZKOUHnRYewJdVSIx4l6bb68Y2ajpoI3Qn3UQy2Fgr1hP4+wkUPV0j492mM92brRic4vuTn2IcvWLWwGs125ybFbuz1wplAAAgAgeQksO9UC011fdYTQ+qJ0vXE1RJUS5Fx0LaEB+o+tlrvWyxmi23O7pwb3GOq5RRahgcuRsoeCqtajLe8Qcqe7nuYzPR6VUtsELakWtiYrplzrJnbsVA/Nltaj47Z4kimo3DCIibVgou8u72RRF7o8gUdSvNaRT2PWnS85PKUZmhW3mFixOjPCqdaIhj2kvNBA9YjIAAEgMC2ENh3qoWCbC2Lw8ZCBp1F87zI6wTbdG/FMTvSUuS3rLAUfTPbq1qOS4LMDIbOk6FXTXLz/Ods1dYy21fHwHwQCCYWKkaJFcKWVItnBu+Oh8hja7kYr62lOL93zdBromPoQGPCU4o6n1Wfj80mBKol3OyF94EAEAACmyGw/1SLxznSQggsYHF1dUJvvCSl/OqUy36viZCeiumvPN5mWwvPbWbgHEMGBvcrbjODJ64lx69jgmZAOFsLNbdhZNE5N1jl6zUVY4jqqvhe7RIrhG1RLce+rrn7BTtG60VQH6lY9MxnKuaLa4lP7NPrbQbzVH4Rhco8KTU/F8tJ27dEIO/5CFRLqPGKzg2uAgJAAAiEJpB8qiWXy5cIRTKh6qrNZbeckaFjfgnDbzjBuCiPw/7kwWDn6ZbG0xd6zZPLLrv1jMSzntH1vdOO5bmRVmOdQtfUfGnQMmdfXnH4bC00dkmRCBXbODLvnL5uQMeSIrZ3vd+9J7Inh0iaFzy00SFQ+K0WlNGNp203tXYOWGZXHE9HvGIuGgQKvbCIj7Ntsyy7bJ0qdFzE38Ut5hDnzNQ3cmniXJq6RvTyY+GFPHT8BieVMNY+jeLNIYprh9y85grzemWjGB/T4sIba5XviQ9gbHbHs+oO91a5vvLDHMSsWjyZzxc2FdwdPAHgHSAABIBAchJIOtVCbxr2bHdGDFsJ3P+Nq/PsMre8NGO7P3KFvMEavv2adXZhcdllf7pgu9dtah2w2swX3ElGwkveLeYI8THLI02vIQGE3x96v5bYIND4TZ5d5lYWZx9bbl1qIjjFsMgQCFvMETgHhv7s8D1DLylYQnv5k19neBXB9fJ4l1fbH9kEce3XQtPd0fT2+DaSOSAwSW4+N5jXtN09mTHu2iLrfLw421dHmBushqH5p4+vkmOkMAqe2kbMPA8jg4K7Bu8AASAABPYRgaRTLbtn6tgLs6RU0IfvVe9bWfdX92MeAs/vHpzYXNrzLggIPEh80eIz+ME4AgEgAASAQCgCoFpiXvlC4duF9SxKFXmdbz169eHllkiZRHuz5bvXKuXRW2F+92D32hB5mhU2mhef3m8lbwgU+RL4FAgAASCwHwmAakn4UafXTnw4udrQEHJf/4TvXRTRFl128Nht35179J26jLflonYOZm5RrbGMEBm9h5u6cxCgZCAABIBAdAKgWqIz2vNLCC/r3Yk3T2r3rPvjtQLk51yc0FdLX2sbkmCOQReAABAAAnuCAKiWPTEMsKYCASAABIAAEAACUQmAagHVAgSAABAAAkAACCQGAVAtiTFOUeUnnAAEgAAQAAJAIOkJgGoB1QIEgAAQAAJAAAgkBgFQLYkxTkkvn6GDQAAIAAEgAASiEgDVAqoFCAABIAAEgAAQSAwCoFoSY5yiyk84AQgAASAABIBA0hMA1QKqBQgAASAABIAAEEgMAqBaEmOc9oJ8pvH1VSoZM/p2tH6ktHLTle4W2PV1LwwftAEIAAEgkAQE9qtqYVx8a/JVu+f1o17O3ntjeUJ/39fCV2+dLH3tLeSesTpXzI10vyiJ2iRGk9npspp4cVwStUw4AQgAASAABPYtgX2tWt6/fLGguqWg+lRW1h5cVvlZ8hbUvIYvmydBtezBAYImAQEgAASAwG4T2Neq5Z13Y/rFQRomKVPVKUSFtHicI3EJ4f+/vft9TSNN4AD+74i0g+wV243ZXMzdaeg2F4gJOZvLZV2vMbdNvKzrsSa3oPvCHLT74oJU8bJELBEhzR7ivahvRtibwjJSFCGMIIaAMtzIvHBe35tdZvw1Y9rUtk7qTL4whEk7Mz7PZ5T55vnlrZlVp8vtmLG+4qypfR9Si2ryrwDHa0EAAhCAwLgK6DK1WB27yUyeZhos16iWcknf0oU0IPUQvS61EK50TeBb4lbMJMhas73PkqF73Yec1bGbJstVrslzjVM6G11TdoIQs95wKkeJB7D1CnUc2ZhWdqw44kXp+nyrkjvKnnKdl6P35y/k1g+WWmzOkFRHQawjGfc69pQ9ROblzcgJWTitN1nurEimws5JWeFN7sNK203+U9Fb9EalrrbssuP6QUJRIQABCEDgCgT0l1osjgjNCSyTS+7v7gRCB5ky22rS+ysWhealqcVguje35F6LUGKYaBQz8XBgNxxLhB3d5DEXourNKhkPbnq8m6EkdcZz5QNn938Nk/7MGd9q0MfxRwF/MJyiagJfy+5My564xOSCY8kdzJ23BJ6r5A73gr5Q9HBv45bsmE6BP0xq6TCWsgcBr39z9yBTPq+dncvGtSwE8+etZpVKRYP+nWDkhG7wXCW93g8u1jmXdzNBt4Tikd+/7vFKm7uf3oZQagsQKwelJltKbKjX1qV4b1y8BfgXCEAAAhAYDwH9pRazYcYb9C/3H/+m1ViZ5V48ssvFL08t0pGEN8cJ1YzXNvhIM/szDb6UWO09RImVJCOwz/29I61Of1De+jLtz9aE6pFHmZyMlrVUtdUk3zBY9R1Ti3116sGXis31548mBusiN5HvTwbJJs888/YZze5DMf/1R+NOuIKBlV6VzcRsmGrypfiq/CUuHY07pJKZcCUZga+lkFrQ5gQBCEDgugvoMbXIn77SvjT5hQz0mwHMhmFTCxmUnyVdTeo/KsbkXTmmjaMzvvbM28sx8ie3uC8dwCTcygOk1FKOzl0osOL0d0stH33NfPHjz8qNsdkVV3796xLebF0oxpYUH4/pgR6iwdOtm1m2VYjK0+GlqUVx8dcrSYeZBgLfhXMHC4MDIAABCEBAhwJ6TS1W+4o/sBeNJdJHqfRR/rQlKIeMvEdqmQhRLYGOedzOle7m2jmu8FxuRx5KiMnlNX84HE8eptJHqSzd4OtZv/wAQ7utRaXU8n5PcamOZMCseMe/Yuaz6Z7DsxOMHBxKzs/LbKuS7PeUGc1vTC1DKCnKMGTqwmEQgAAEIKBLAR2mFmI+KI5lEdhahaZekGSeJAvVEaYW+x7dGUjbGULbGW3K5Xa6/Sm29ThVkwbqlgqUWIA8xTR4Tjup5dYueXGdlYHUYvem6Qbfap4zBYrKk2SOpCtsq5IeOrUMqYTUAgEIQAACEOgI6C+1LIQLLFdOr8/0+xSk/o6RtrU0ycCMlTBZOpuyYYPwnNSEczK02g0xZoNxYb9wtanF5Cspu4d+/uJHxvbpkNFbGqlznvEq5l4pUstk8HmTZ7I79t4YZKPFmTgdSC2EP8cJVHj2FZ+3oZVece6QtcBhEIAABCCgMwHdpZb2EBPFyE3bWqo4wrYWw3y0JLBkaEH2VrA5Xau9pe7Fp7tyQVhiPkxecVvLjU8fTj0IKLe3GI0rzVvmCgfOfieRbfNZtT8ad+mgJA5AlsUasztWGGxr6aSf7jjlaW8yk9iZk4LO0EpILRCAAAQgAIGOgO5Si9G6Lj5ci8ch/9rKhi8UPX4hLpryFqnFZLPPLs/NL8/tkZxA76+I+/ZZ+RJz1rVEkRPO6WfipN/A3kGmcN5qFmNL3dad+Ud0k6/lD3wu95onGE7kSg1WXNml20NETN6zz4uX9WVTCnRjAAAE4UlEQVSrrXJyXdxfsE92T1e23BjebTTuwEXe/tcJT5ppSrOyI+FAKHqYkxaV6c0hMrkPyzxXyYa9G06XPxBJkxWxjgNtLQbjcvgFK00Cj+6nSKbJ13PdGeBvUuqFQnHmc4MtDY5lxmcYAhCAAASunYD+UovZYFrejOfoSmcJOCobDUSydOEkIO+neP1oXNkSc7Ll0ZTDNQzG7gpsTbZ+VqSySfkcYIPRPLESPs4Xaw221WRrZfJwN3yYp8l4Z+7uXKS7xJxsZEwv0/Se1p2dD5RaDEbztOvR8YvTenslvVwymKDqjayv2/pCzHj3sxRzds4JbP2Mfh4XV6ahc48cAwlp0h1+1l7x75RKBdsNLe2qXa7UcyA8J3Xh0ilaA6+IXyEAAQhAQKcCekwtw9yq16eW3sNyXHY+XGoZE4G5CM016f1eU9Yw9xfHQAACEICAHgWQWsa+ee2apxbzxlGFpSP9Nf3GJEuhGBCAAAQgcPUC1zq1/P3J45nVr2ZWt8y3xjC7zJodX4nF84zLdz5f/btTfEXTvTWPuzfS+cOUQY9/r0ASAhCAgBYFrnVq+Ufx/9L2P/cfJsfv5m258+3iiT//+uXvx6+EYxj1UCQIQAACENCzwHVNLfjrGQIQgAAEIAABrQkgteg5k6J5BgIQgAAEIKAnAaQWpBYIQAACEIAABLQhgNSijfukp6SMukAAAhCAAATeTWCUqeXdSoCzIAABCEAAAhCAwDACSC1oa4EABCAAAQhAQBsCSC3auE/DJFAcAwEIQAACENC3AFILUgsEIAABCEAAAtoQUCW13Lxhuam1KeD6DqeoHQQgAAEIQEAHAmqklo3vHzLV7Zf5+4/vE9rIbjq4kagCBCAAAQhAQPcCaqQW880blju3v376F6a4vIFGF92/h1BBCEAAAhCAwNUIqJJapKJbHtwvVz9//Bt0FUEAAhCAAAQgAIFRCKiXWha/e8Cc3t/61ShKeTUJDq8CAQhAAAIQgMA4C6iWWkzf/Ge7/MNvfzfOlUfZIAABCEAAAhDQkIBqqeXjf9Hb/93/GKNxIQABCEAAAhCAwGgEVEstt59Q2y+//8SioQSHokIAAhCAAAQgMM4CqqUW4+Le5+VTz7+/s/kWTaNJWOPsiLJBAAIQgAAEIKC2gHqpxXzH8s+cuHBL+emv0eKC3AYBCEAAAhCAwPsKqJZaiK2nDxn6j98umhBZ3vcmqR1dcX0IQAACEICAJgRUSy3iaNyfYhiNi4nfEIAABCAAAQiMSEC91PKE2v4pZkEzAwQgAAEIQAACEBiNgGqphfD9sMXk7y5qosUJhYQABCAAAQhAYPwFVEstxrt/+4ypfvbNnRE1Co0/JUoIAQhAAAIQgICqAuqllvb3EH2L7yFS9f7h4hCAAAQgAIHrI6BGapmeuv2nNVsiv1VGD9H1eSehphCAAAQgAAG1BdRILe6Y5yXtyT29uzGF7iEIQAACEIAABCAwIgE1UstoxgmrnddwfQhAAAIQgAAEtCWA1IKMBQEIQAACEICANgSQWrRxn7SVhVFaCEAAAhCAgBoCSC1ILRCAAAQgAAEIaEMAqUUb90mNxIprQgACEIAABLQlgNSC1AIBCEAAAhCAgDYEkFq0cZ+0lYVRWghAAAIQgIAaAkgtSC0QgAAEIAABCGhD4BeGl0819c4wLwAAAABJRU5ErkJggg==;" vertex="1" parent="1">
                    <mxGeometry x="1960" y="1220" width="473" height="175.7" as="geometry"/>
                </mxCell>
                <mxCell id="94" value="-1" style="ellipse;whiteSpace=wrap;html=1;aspect=fixed;fillColor=#a0522d;strokeColor=#6D1F00;fontColor=#ffffff;" vertex="1" parent="1">
                    <mxGeometry x="1609" y="1240" width="59" height="59" as="geometry"/>
                </mxCell>
                <mxCell id="97" value="" style="shape=image;verticalLabelPosition=bottom;labelBackgroundColor=#ffffff;verticalAlign=top;aspect=fixed;imageAspect=0;image=data:image/png,iVBORw0KGgoAAAANSUhEUgAAAqcAAAFPCAIAAAD/ePAhAAAgAElEQVR4Aey9e0xb2Z7v2a3WlUb3aqRRa0ajK11daTSaluOAcYhrx/iFMWDsMgbH2BhjbPwgxocQukJcKaCmy8k94XGS3NShUKAJ1RDqQHEKUMElOYlLhWmBM1Nx1AOHbgL3UnA4BXEVlE9kU/mjUP4oRnv7tW38BJwY+xdtRZvtvdde67OW1/e3fuu3lv+KQETgAAJAAAgAASAABNKBwF+lQyGhjEAACAABIAAEgACBiIDqg6sDCAABIAAEgEC6EADVT5eaBiMXCAABIAAEgACoPqg+EAACQAAIAIF0IQCqny41DRYuEAACQAAIAAFQfVB9IAAEgAAQAALpQgBUP11qGixcIAAEgAAQAAKg+qD6QAAIAAEgAATShQCofrrUNFi4QAAIAAEgAAT+KiOLCQcQSFsCHdH+9fT09fT0pS0fKDgQAAIpRgBUH4yetCbQ0dFBoJwLd3R0dIDqp1iXB8UBAmlOAFQ/rTUvzVt/RhYTVB/aABAAAmlFAFQfVD+tCYDqp1V/B4UFAkAgmVWfX8lUlWWnuCblvPc7/X+5kn1s0RWl2dIrFGY+tOwYCYDqxwgKbgMCQCA1CCSx6lN//ae6h4+YeTGAPt8hf+hQfWykhDIRKHUW7fSuvJF7bMoa+Jbizg+/+/nj/9Z6KOXOf3ds997CF8xjy9uVQvN+iak2BmiBpTi2DCQ2WUZez5eKD4uCcyvQSid+VyQ5RKkDVD/H0KYwW+sXl2qu52OT/TCvfwik8AgQAALJTCB5VT8nv2+vbqgjpJAHdvo5uV0Ow+SK2uwQq0JIL/XXfzLMOsr0uYFPHVutFPdc/+GXrse3kMOkD6ofh5Vwhn7jwcXlJ7J6RjDqPPH5r5Yuzf1jLjfeasWp/rvvaxZX9QN1eaWsHLY7vg9UP16ecD8QAAJJTiB5VV8tmtzX3lIH9+8HRaLwunz6hUiem9+3p2gMI+2xOAwOphzzFcqhPeqg+jFDPqP7rxeWl3Rd4jMhHxE1Vv/L6q8+r30n5KdhL+JU3/Bp/bJVKsfH84PqJ3n/BdkDAkAgXgIJUn1+h2J2X3vrEq3uC/m4Qz+9p3+4Ir2q9k/So1K9r/p1GU7Ui3m/39f3GMnuDhpNYU/ewKU2oCkYpvf0kytljZWeT3GdeHadVT/+GS1PLZoMHutnCytpqlqm9hLzfA7uRXhG2Yj+U+nQC3cOZb++FINrAf84UtH87numkvdM71ZI8dfRc7bpkvXfjF23qob/v9bnu90/OFof/66Ijct58e9aX/5yL+iI19vPMbF7Vs9b9mRze+dHpxkiU7CHn9PsueGbPfHEfIFBkxmIgiTt4Q5/L57bl839JBp8RNONlnyzx9dhdgyzp/ib/eLL+KJp2BP74k+a8YX1pSCd+0k0PM0Ulfo/jSkFfnb9o3cn/iKd25davhd+MoQwcZS8uS0WfrX03lxXhBmfc6YHl5ZtMsMZ7yP+bIS/glP90raa5aXqD87iFvKB6sfCEO4BAkDgBBFIkOqrJmpmdxV9KzXj1ncbjLl1HaL7jrrZXWmddyyumtDO7kr1OId8nlFq3le1eO0A7UTNrEPet6L9vQVL4Y54aLdu1iHWBul3dm7XrvZWLfXqH/XjX9ACxvSVvL4V1bjDMLsnqwt6yl1DObSWP+pn97R9X3AbO0r6HHWze8qrxeEV4kC95hf1/lvrgv3jH37p/m+mrKAHuT3XX/7S/cNux+OJ6q4vLlns3S9/6bJ2+nNCURTUmaotP997PlvxXvO7ddihUgSnE5Qs/k9mK8+8LzMvFVxupapamb9ZOm/5i3gON69PbS58uCcZnWbpmhHVLVbPn6Xf/MQ3+FU8UzopmttHbzCYqLpOzqffS+f2pN/8xFPFqvqZotGSuT1RzxBN1UzV9RSO/iSbW2Jyvc6PGFT/zOUlydxf3r1xiypvzqmfLDbvSydGKWcDhf+Mof9Xy0vVHx7w7eNvy9PKvlm9NNEYz3Afp/rnSqRzq/UD1e/4l++D6h9o83jgcA4EgMDJI5AY1adc/WPd7L5+6FNaobfXyLtU9nDf0HfdPdzHbljhCb2fMjOyzn+qwtkBSMtK3ex+TV8H1SfkhR/KzPv6Lq8zwMO6smR8V94+oTL/SaTyC6pPGsl1Vv30H7l83Iu8lUTWPtLO7qs/vuTxQPDvKGb36+53+B0S3jt9qYU+KZVaw6r+7bFmr2XDLxiw33tp/5VbUD1JHcXDn0+58X2AxGblkw1Pxd/4Vf/M1VWp5SnNP3SWMgb3ZBOjFM/bFczhPdnEJE5iS5E738u++Ykbq+qjCUqHe/zDa6qJZ94X32n2eBSiqv5ZE9eyL7rhDz9EDZFv9vgGnMMgi3kmb3DhvcUvi6JM25/J/dT23uKXfEGI6g5ddwHr9c/yvlh9z/whHVQ/xpYPtwEBIHDyCCRE9bOZHzvqHlrzArQ2O69nr278UyrKKJv58W7dwwm/GjEzyHVWw6zPDkBH8HWTE0yf0YA+lVt4/4Aq8zsU0/t15j+J9SFD9LF0fv8pEqJiyt79/T76Cp9VkVdM16qp/BCmQxjB8EpLBNX/+YOr3lFvFjOD2/nRD7+0dim8DzIzso6i+hrW6L7009ZAj30zzsMvZQ7vS3pM+BtI9fPSb5aYbvLUVv7cvvAqPj/MDO5QSeyqfxZNobje7zzIyMrP6UENC4+tE1X15Y/E3/yZLcBX0JWCh6jdgKPELD4/s/reVx05+NtCnZ+9+sWl5QV5vd8KiVJ3AarPKnmw+t6D93NA9UOxjUYSX19wDgSAQNISSIjqc7lD/mG9t7PABHjoDjZxjk7hB46qs2ntL9B1ep7upuzd8f2ajy95n3XjQ1Xf0Pehf2q/UM3teWF4+IwnDyfVWEhge6iQQOln6tmgwILDVlLMqk9pfu/bXz4evoJ70VFUH12kJ7pxCZcaMyMLv3LvSoF5//wnt96RXvIfV5ek33zPEWC2CKdH+M2ex5nvQx2X6qM377179Yo/fekVRs9PMvM04nbRR1N9Uv2S7JtVjhyXQ2lr4cMgayZPK/+X1fdGL4WO48NLlOEff7W8qjFFnAjA3+9R/Uy67r2Se+b6ZZuykQrz+r7GACdAAAikHIGEqD7qzFe3VwbCQpW+pusSqtl5l8rMQfH5gev08j6UTe8rrgYN32vFD306ncv89TPV5IpyfO+Azx+ngtisQRk+esDb42c3PqubfSGSe93v3uuBecYlFeGG2FX/Cqr6Y/hR7FFU/xIHHRPjbYhA1T/bzLXsy745eHzPEbmn7TuLv9l71xDgkgkc63dGieYTTYpCpL8vs/hUP0oKZ66uhsphsOrXKhZXL31eG131VV21y6u6GwcW9IetPve8fr7IvPre8qrhi/eZdIjhj63Zh0UKjwMBIJDMBBKh+sI7SjT8PnD8Lf1MNb0r1WMX867Lg8fZ7nV6tR7RlX+hnT0QkK+31Mz+6V2PMzmbqqpF8riF9/eULWHj78gNVsNs6El9LG4g9EdxC/+RVL9ozHHv+RfsONcOYE2qlPbpnmx0KNCbHTDWR50Bv7mSeTY/82x+xtn8jCzcdANaTPRm8SfeOXh3wfFj/bMmnmX//G/w7oTAGH7sZp6q1POK4PSZGdFSQMf6c/MMJj9MDt3SEudYvzrusT6BQj/LNHTWLK7qf1sCY/24vwJgAQABIHBiCCRC9bWPamb3a3o+9IfFFdaKfr9n+L17Ut8z1jfcv+6Vuhzar1f0s3ty72r77MZnhtl9Vbt/nR75/HXZw/2aLqM/TRRxZcm4z7zIRhru5AYOW9Hd/aat+e6Z+7zKwsZa3+xAdsMzw+wLUahdfeLu8o6i+sycrv9x74d/q+C6Wwy/qHf20v9dG2MYP8kwL/nmL3wDbmKeOyT0x/Dzc3p+kj189A4WS+G2PTO5V97h+LQ/H7nzF9ncKlvk50Y2PJX45vWzMMPCPJfjnXnBIvZxK/fOYnPwPa0kP7R8svRKtj8CP1oKAmyOoB5XhKxSirwWlyBKBpvXn4llXv/LI8zrn333y9X3HkA0XzIPUyBvQAAIHJFAAlSfchUNv6+b3VP3fcFr7OC1W5QP9+seWvOFPnc6upte3eyu8uM7+Xpj4a0/qiYdqAZ7/O1YMCCawq7y40+5jXfe/fiZenpfP/QZPSC4DxUD3tC+4fcT3MY7op4VdV9HUNQeupR/dk/58Z3Cli9kv/+Tf90gMyOr0Ch9uG+YfCa6ej2/4Tqv/ZFi/BkXv6YguuGWxVbkiDU54kvVtl+6H3cy0XNFDturqejKvcBoPspBDz8zg3vrw+9+6V6Y1Xf97lePN7pe/ny9QxNzpWqYgz/JvvmL8JNRZn0n0zQtNKP+fP+OvNzOdy370odPCy7fytF1sn4zf35uX4wXaaaJ+3BfNvdn/m+GGPWd7DtL5+f2/TH8WcwMdGHevnRijm0wUQ2j7058f96CU/0sJlk3d/6bvfODj1j1rTn1PZxP/yz9Zq/4Mk7Fo6TAR36DricUfjLEMLTSLo/y0LV/f2a7Iw+8xsSZ3EE0OD96DL/7tsPG8GOqD9F8MTe/6N8RSAoIAIFkI3D8qo9F7Y1PFF59pHy4Z5je1Y7/UXarw7+Ez91TFNa+24fujVPz+2dlvzbSGq01Dy15nnB6bmHfrn7cKv74j1rznmHaof79s7KWS4gv2B7X12Rrv1A+3Kubdqh67hywCTKymGX5XSs103uGhyF2+CGf/1DU96ca837d9K76/qN368p8ngCv2ESsrfyCYUfwHjsvf7k97PWHczs//M5hfM9rBGQxMyhXfrWwe3sYP6+PliWr4tYlq73rh5+7vv0fxv9yyWcbRXy7F8JZTc6NpyXmPencnnhiiXt5iPvwpxKTNw9ZzAzvNj7oFjqj89yrpjP+gTiWCKeZ9Qm6z4907qfzo08LTNMi/1gfvYEsH+WPfi9BdwGaY0mvsIZ/Oh8YYE+W9nAH0X1+0D12Buc4uuCNgKKlUErx7NKzJ3n45+KeSQZ+nx93XZxBw/SWqj/Mi1Q1eVr5Udbr06sV/7Jad08CHv5IkL0ND+4BAkDgZBI4ftVHo/YMvi32oI84aQTw8/rJ1KaLBNH25su58dWl5SdSXWCgQxT+uF16VJ2G5XmFIRNUP5nqPSbbFzIMBIBAzASOXfWx+PzArXbhe3uSCCSr6mecUf1X3eLShR5Z6Eh+SRO6D/+gNsiTEe2bgFN93ad1y1apCmL4T1JzjVa/UBYgAASCCBy76gs/VeK22IPv5IkjkLSqn8U8k2P68uKyTX75wHJ8rqxsZunSTBczyuZ9Qa0/Iwu/Sw+7WvHNav2D2zxVCbPQPeKHHXkPEoMrQAAInGgCx676ebkUfm58E+RRfLAnmu/Jy/zZUjJHSopzxPzGionkdn0hu3pgdp9bVTb6j4WiQ2QDN9Y/R3hHUif7csbwjU1zPR/z84PqHwIpPAIEgEAyEzh21QcJBwIniUCA6uNm9N1+flD9ZO68IG9AAAgcggCo/kmSqENUMDwSmQCofmQ+8CkQAAIpRgBUH1Q/rQmA6qdYjwbFAQJAIDKB41d9zjkRHEDgpBD4pPUTFkMQ7vik9ZOenr6enr7I3yL4FAgAASBwUggcv+r/uvQ3cACBk0Jg8sMvIx8n5ZsM+QQCQAAIxELgrwhE5HiPf/rVp8i5vONNE1IDAkAACAABIAAEjk4AVP+YjZ6jVwmkAASAABAAAkAgQQRA9UH1gQAQAAJAAAikCwFQ/XSp6QSZjZAsEAACQAAInCACoPqprvqIwdTbXV+a6sU87vCUE/QdhqwCASAABGInkPKqL7pXZd7TdtRkhJM9mojVYVM/2DNM/6jqvc/Ij51dwJ0sk274UWFOqLeQxfpes219Y3tnY3lmsLGUHvBgouWKd9Pmsj9ueLMvTUChTutqxa470smSUPRKOL+16WsrQ30UqkbCZY91RXLv+YfWVzcm+pFw98B1IAAEgMBJJpDyqi+5r57er+m8GEb1Oeze3brp9fIb97imLyvG9gwTX9JocYsH5ZLy4asbD0cZlIMak6cfW3LuLFmGuzu7Bh8vbjjXp+oZB29L2JUUUH0kH+luFLvuVP4cTvU5jOvPbzz9Tl3Bi7vu/N9eScnoq/avHgmElWdzOEdIJ2FV6c8qvAIIAAEgcEgCKa/6CIFII4XtLvPbKmf3Khs5nhtYMlbdZQorzh6fx7n7Q/vThfP5jBAPIs2PdxwLvTJPHsgyfYtRzjlcbdHZpbpqjbIIiefxk676ZH7BFqr35X9sFG6FU32EQJSUDL9sn5kO7W4J2wBwJLOu6K2vP7xVG6ISY3kc7gECQAAInAQCqaz6JLLkMkODHjQRI3RliO6rZnfFyvBmAU4VQqeAEMsmP5x/9f7VMO5lTqvV5XhsDLeBQXF127h1ZWPb5djeWrKO3awOMAiKTU8cThd6bM6MjC5uuM+dKyPVZDRjJE2f5Ym551prv9m2vGXf3lqy9BrZ2EeYdNH1U95HsESwx0+ct5+e/Q/yc7q8U+T83OUIqo8Q8jsbn77+6LdXiGFqKpqcV0oevr4x3Jp5yMejN5VoGYAUgAAQAAIJJ5DKqv8Oo2NZNfZCP72v7agJ3ZUfXfV5vIFX7dbpwhC+fazyIqk+t35syenasA6Y9Aqd3tj3eN3hXBnH+/8pPGWZonl0xeF02deejLS2NDe1DXY2FLv1g2Q0b7swsR/u6+wdQacPXPaFXr8RQ5M21LeML7vs1l6jvrbBfZQFGBYJb2HHJ3XRVJ/IwZwutpKQ0RWhGwC++AzGre/ardOcLPxFOAcCQAAIpBSBVFZ9t96IeJ8nUPUprfVPX1+/2xx2fBle9UmKwWWXY3nY4Pc0lN607TiWB3T+K6hWyXoWHc5n3UL/IN7TBDHV33jc4jECCGRl5zO7c2uqHj8FcEQPP0l0kXXhcnxHBT+6xB7iWxRV9RFixaOP5l/9fX3IiL/obyTW2trnn59nRb/z+EwZeBcQAAJA4I0SANU/mocflZnXf18fPogsvOqX9c47XfM9Unx9Yy79lUF5gMCjqr+GNw68moqpvrUVN3anNExtupb6FbiI/aOpPonRuVs3ux/XYehtChM7eTSxjK76hKhGmBddyJyQLz9vn184rKsAX49wDgSAABBIUgLpq/oMSsVFRsPX2tndCtNFmtJ9yALkNnqdZdbb2udf6ipCxfER84oUDXrjyILLYRvwOdh1RZ5X0Oun7E6XpQk/LifS9WMbzh1zY0A23Kof5ABA83ZQ9QnSvgWXfRK/Tu9oqh9SHY/3IoOi9IRfuIMwwsZhxKD6xEu6mdfto53kiOp+MP/E/CuCq48ara8/GjDF++zB1OAKEAACQCBpCaSt6tMuis0Hh7Bz7PiW7ZEvL7TP/6AuC6X6ZGU/Oh8fdNhaeW5jgl6PhtoFqz56cWeq/miq/9h4bGP9N9BwlaKJ4IqouR0qDiMW1a9VfvW6faL/bJyqf/bq8/b51+0zcyW8UFUZZ2pvABq8AggAASBwOALpovrK0B33UaP5Io71MXUP7+EXds07g7zxRHHrM4dzsa8sILdxj/UDVJ9z0+qyh19EEMWfQaKdKA+/Z6x/K/7xOiMzv1k98ar9q9GcAPhR+BzuWwdPAQEgAATeFgFQ/SPO608eel4f88Y71qaMFK/MkBR9Cy4HPggfaxZHU32ycXILFzPIMw1NdetxoQBRWh5Zcpl1oSm+Q+Ld/+B4JTOGsb53Xj9KobzAg27DbDiI5jveWoPUgAAQSC4Cqav6Gfn8bIEoW3CxZGy/prOJgp7zyazA8PijjvUJFNOhY/gJxLzqgfltl902drOxtqHx2oh1y7G9OFLtnemncMTCUpmwtGFoxbE21Yydi9neTyPM6weM9Yl0OfqWVetwd2fvuHXd7lwZ1+MSCVK+JPzzVH4eSZRHEpUUrN8pt8iy0PO8jFBF8Mbwhw+uDKP37lJjqr8AMfxJ2AYgS0AACBwXgZRVfRLr7t7ByHOVSRTQ7x9Z9Yk83sDLw67XRwhErjxwlx65f7Nerm+LHnxwgKWF66t7UsPU2pbFhB+4l3ZbtzaC/fnkYn2XeWHdvr2zsTAzWM/DzfoH0Egug9RbTOo5y63Kn9Ht+fBH6c2DWyhyOHdftj+1CQ65Xh97fGYy9wQwSc6aglwBASBwAgikrOp7NSNyHRxd9RGicLRp/tX719Wh3xh+Xj/0/SA5hyaQ39/49PWHv70Udu+EKClfUs+8vn4v/NYLUR6P3NLgUyAABIBAUhAA1T/avD6qBBzOb79rf/r8fMjwb1D9NySWledHX6H78IfbJDFqNrKu6GAf/qiU4AYgAAROOAFQ/aOrPkLIqq2ceHXj4WTuQckB1X8T3xAOo+3bG0+/VZYd5bfysA19rQtK7SVGfslhHQZJYcuDGwkIAAEgEI5Amqs+S8aoM1GLwtGJ43pOs3pgknNwRpks1reY9KUnayr9xEkXL/fWnE4riaO+QtoiWWrBLVvTVz98NNwZ74r/o746ZH7gIhAAAkDguAmkueqfOHmDDAMBIAAEgAAQODwBUP3Ds4PhHRAAAkAACACBk0UAVB9UHwgAASAABIBAuhAA1U+Xmj5Z1ijkFggAASAABBJBIDVVX6PVIefyEsEL0gQCQAAIAAEgcHIJgOrDWB8IAAEgAASAQLoQANVPl5o+uZYp5BwIAAEgAASOiwCoPqg+EAACQAAIAIF0IQCqn+Q1nX+Ra7pNO459hI57q4fjMjwhHSAABIAAEHhjBED1k1z1JSPq2R9FFYE/EJzkeQ6VvfzzRVt3Ktdrz5BDfQoWCRAAAkAACLwRAqD6SS5CJ1/1yfSsqzWCLex3ckH138i3+o0NGuBFQAAInDgCoPpvTvXfIYuU1AoZmRZPKzle1WfxkYoaRMB4c9pDRR7dqvz5TsVW07vPOmCsH0/Vv7mWCbkCAkAgfQiA6iewb5UVj+3XzaKH9u6Xkok993nd5/f8P83HknE6bOoHe4bZPf3EsuSDGpwD/B12v+dxz4NoUnhv/0Xxg/2a2zU4CSex7u7VfXbbl0jGhTkDloG66QVxx0KN+3x2V6JxC7+Me3ehoqONfePryrEfDdO72s++ZAuOdzYho05Oe4+fQUayR1tB9dOnZ4GSAgEgkJwEQPUTqPokUpEMqWgrN+/Xze5pe0cK6po4H4xwK97x6rSooH/XMGErbrhMU14uQFV5T3VDmeHNEllykdE4VzO7W/HBZYbmInbUUFi+lhRd9Yk0DkWkZHSso3aDeVn8QRu77naxqSnb8wo0hbrpvZrP/lD8wb2SzmXULJj4khaXN8KbW2+hfNkLOoms+iRF38KOfWHAcLw2R1Ae4E8gAASAQJoTANWPVbQO3VBqRA/29f1tvvG3Tx0zNF/XzK4XS3w6R6J2vKibnmP7dZ1AjOThj0H1sdKRGxbqZl+U+K0NX1nQFAyf3fb6HkjZDTb97F5FQyKmAKKovmZw2eVYGwbVT3iD9NU+nAABIJCGBED1E97JoqqvMol8Yu89IdFu/1g3dt+ruFjjq/hSO/ujWOmzA45P9ae/ZoUYwaOqrzbJvFkiEGmYjdJ52edv8H90VFCRVR8tPpmeht9AKDIQAAJA4E0SANU/qphFra1wqs/g9O/XfXafVqGk+o4Lf9DO7pVfeHuqj3AKPtuv628jxYyFLLrI0FwOOCpEoYyG6Kp/fBZG1EqBG4AAEAAC6UkAVD9meTusJoVTfT7384PBemgEQEWdb+I/8lgfTbnm9kVcxoKj+dwfoR7+GMf6btXHxQPiEg/5DcHe6AkS9BYnyIHhIQyqHxIgXAQCQAAIvEkCoPpvTfUZBf37hn4TmUbKwA4ighvi+3Iluq+e3Q3w+fs+QlC7wdBvwo3L37zqx95YQfVjZwV3AgEgAAQSRABU3y+iCUIcbqxPoJjW68y2Avxuu/lKmigwko5lqpj2hwVkiG6Lb9+mesL9SMiNF3XTyzyR11zIbyp/sI9fuZf4sX7s0ED1Y2cFdwIBIAAEEkQAVD9Rqk8iFfGzBaJsQZPkwb664yJ2zifhQ+pYNSVje+iCOlMb+4KpwPS1yrxv+Pw+EpCldxidP9ZNv6jouMe98XWVed8wdh/xJZKPJl5nXhA1NjE0beLPX2jxqk/jYC8VUU3LddO2ApEI/TMfN32AHIjmi9vDH71dIiySKI8kys951Fq5fukcep5HyqcGPYiu3NuyLwzovBZMAISgm+FPIAAEgAAQOBwBUP1EqYuIF2Lafk+iCVQ1lpLTYVM92EN3yBlbkHSYEPyyPXfeaHzWDWwnn+kfVXfv0fIDajpDZBL1r9dM7+knbCUXZKzOH/X9t93L8TM0X3u26MHPu39+z7tYn0BEakrGdqs+wK8v4HB6d30pRJvUD8hJmJszft1U+TO2HS/u/wqL5FTg/aTa8U2XY22sIZBPomonlpzDPUAACACB1CMAqg+6khQEhF227R1bpxQW7yVFdaReTwclAgJAwE0AVB862SQggBiGVuy2LvxGBUmQq0BvBHQZQAAIAIEUIACqD+qSBATIxdW1OhqoLBAAAkAACCSYAKh+Emhegus4BYxTKAIQAAJAAAgcCwFQfVB9IAAEgAAQAALpQgBUP11q+liMREgECAABIAAETjQBUH1QfSAABIAAEAAC6UIAVD9davpEG6eQeSAABIAAEDgWAqmp+seCBhIBAkAACAABIJBiBED1YawPBIAAEAACQCBdCIDqp0tNp5i5CsUBAkAACACBQxAA1QfVBwJAAAgAASCQLgRSWvWzOMQsxiFMIXgECAABIAAEgEBKEkhl1T979Xn7/OsbM891tZVE2P8OCAABIAAEgEDaE0hl1ScQGUSKhNP2/MbT55L8dPHepKRxCoUCAkAACACBYyGQ2qqPKT1vqGn+lV4Jrn6we4AAEAACQCDdCaS+6hNr527Mf1vJS/eaPhYjERIBAkAACHQTJy8AACAASURBVACBE00g5VWfkfvbH9q/mmSk/VzOiW6mkHkgAASAABA4FgIpr/olJcOv24dvZYLqAwEgAASAABBIewIpr/ocwfCr9on+s2lf08diJEIiQAAIAAEgcKIJpLzqI5na6Y/mX75/t19QAev3ILgBCAABIAAE0ppA6qs+IatSMPDdjfnX7Q+HEBjxAwEgAASAABBIYwKpr/o5179tf/qtWluZmZXW9t2JdklB5oEAEAACQOBYCKS86vMgmu9YGgokAgSAABAAAilAIPVVXzD8un30FjmN/Tkp0EyhCEAACAABIHAsBFJe9RmMW9+1W6cLKeDeBwJAAAgAASCQ7gRSXvURYsWjj+Z/0FXAjrzp3taPxUyGRIAAEAACJ5pA6qs+Ad2H/yXsw3+imylkHggAASAABI6FQCqrPjGnklFmqhx+CR7+Y2krkAgQAAJAAAicdAKprPpnLy98NPND0/CkQMg56fUE+QcCQAAIAAEgcHQCqaz6R6cDKQABIAAEgAAQSCUCoPoQ4wYEgAAQAAJAIF0IgOqnS02nkq0KZQECQAAIAIHDEQDVB9UHAkAACAABIJAuBED106WmD2cVwlNAAAgAASCQSgRA9UH1gQAQAAJAAAikCwFQ/XSp6VSyVaEsQAAIAAEgcDgCoPqg+kAACAABIAAE0oUAqH661PThrEJ4CggAASAABFKJAKh+RNWXtNf0XGciEe856b/hixhMvd31pSldxsTXEUlq6ultLkvtppJ4jKnUt0JZgEByEkh11SdrlE93u5ceFJAPo2qnr/w/917+aznnMM8mSX0XXTMvr6+ura8uP+mTh4TAu2lz2R830JMkwyGzQVRO35h/3e455nhZoWqEY2idsi1v2be3lqxjrW9YgClGs9NlNYVvKuTLC978v26fmcwFBQUCQAAIvA0CKa/6hpr5n++tfsU71CAsBVSfxJHJNQ2t5lXn+kj1yVb9l/VXTYXa5kJlLfngV4Ws61m0O9etQ73dnQNTtnXH5kxr0cHbEnYlquoTWZfQzGtNlcOvQPVD2nZwEQgAgTdAINVVH+3lGYfmeLyqT+Eo5RpdGSfv0Pk57IN0+cDSyVf975TCsFVJ0oysuVaHNB6PBYlnaDIaikJaOUQ6u1RXrVEWHcoQDFcFUVXf+yCDc/clqL6XRiifTcIsM3gpEAACBCKS0qrPM/AutQgutfD0iqzgrkQq/uJf/+F3XaWdX/3DvOOT73/++OlX5RLcT/ORDYalX+69DDri8/aX9c47XQ70WDEPTS1tu89dtk7/JHpeWcuIZXF1e8exvbVkm+quDnIRk8X1vWbbyuomesOqzTzYJPUZDXT9WPAIntRg3nbZWnlBnWk41afrpzY8OfTkzeF8495+Eq+hddhsRSHYN1eso10G9gG1xjz8EVU/dMHdHIpNT7BacDk2Z0ZGF71FXvE7Pyilzf3m+bUtu3NnY23R3G+UUfwNhl7WZrbODJpa+iafzK9hmRwyyki+G8i6/hVP+jiY4bz9oPpBjRP+BAJA4I0SSGXVz7r04Pr8n279+ed7qwfn9TU187/c+/7nj+f/2dB5v+aLf731/S/3Vv9ZwPDR5+SojYJ/+u/3Xv7p4pUWnt6IHYbsA4IUwXgkMcRlUp3JjMrM9oq5v83UeK27v83gUxThNevmzqql11Rf21B/bdC67thexM++5+mHV507q5bhbpOxufFa9+TihnNrqt6TyaOrPkKTNtS3jC+77NZeo762wX2UBVkePnlLxAnDOLnucG7ZRntvNhlNrcPWNZdjbaqZHfiuo6k+QuEpyxTNo6g229eejLS2NDe1DXY2FLvrjiS9ad1ybK9MdRoNco3RNGzbdG1Y23y6jnF22bfXraPu6YMth9O1NKTxmV95Qk1D/YDN6ZofMvow6g7aLtjrIqo+0jC0Yt980l0WWPwIbQw+AgJAAAjERSCVVd8NIqfzT/dWHxzogjHVnx9ne928WZf++eOXv9zoVODxHYeHn16NKrclRJwXYpzcciwMKH2jRpJicNllf2zkevJAbhjdcti6ZP4skcVyqUerCMRjUH005SNG85Ell1kXAg+ljOQznqKe5MmNJryHg22cQn31tQHRhUdUfQygrGfR4XzWLQy224qbZuzOHfzQPA91ouxYmjzWD8Z5x9pa6ps+aLVsObZnTDScNh+Phx9BbaDtxb6y4ExGxQg3AAEgAARiIpDWqv/xF0a/oBIVyvlfuqfb8XMBx6b6i91CnEK4X4pNRc/3+L39CIFsGFp3rI01eOwAsrJ/xbH5pK+aEyCB3jwnheq/w+7dr5sNPMZGvLaUN6sxtUXPzRiE5QGdzxgiEJHjUv21YQM+WfSNSPPjHce2udnngCEQEaxq7JYWt/mFcV7sw42/MUtua6oep83Ho/poI6EH5/BAyzkMVUgECAABIIARANX3CRKj9NHP9+bv5+BaRkJVn3bN6nTZemp1coX30KBe6G1zs6/fp2n6rKg/2b62aJ0c7jPVBsw3H3leHyv7Ecf6OFyHViMSQ1ZtbG3tHewfHhkanrJtOTanjD4IUVSfLJbXNtT3Wrdd86MtnkkKvUKMV3EsY+hYf204wJhAr5d221yOICMD8384FnqV2IMHVR9ht1nRdXr++SDk+FTf1yDhBAgAASBw/ARA9X1M3ar/ORMnYwlV/aI2Gy74yx8OFjTuJCDi6pbuoSnLwrrd6XKszdz0un+xEef6uB434owzmg8r+1tWfa6+17qGBTMuPLNaZiyWGevylmM7dtVH8++n50G6Muil5KvfMKrPC6n66MUFz9xKKNVHLTZrKy4AAlT/0DYfPAgEgMCbJACq71OF0Krf/fJf5cEh8b5HYjnBtDmUhx8d66OTx3kkMt1z4AyOUI2Azm4YX3ZtjHrnvIu6bGgKuBHnYVSfc9OKBhP4YtNiKZT/HhK7dy/Ywz8xQvXfEKog/k9JteNrrg3LNSVuaC7ufBaP6mPQwhTc/yICMYzqI8bJneBJelLt+KafSUyqTzKat13WA6sn8Blwn0eM5ovSAA6mBleAABAAAvERSA/VXwodzRc4rx9C9QmV47de7l69wnNLV/al8cZ/uo7gxtaRJQ37NKzqE0q7F1x2yzUxLhGuXKP0x4gxDP0z5laFX49J0r4FnOqTpH3LLrut1xcPWNyIrheIfeUe1lbIaFDhsm/Cm2camurW40axuOyFaFuk7Iom1oXAQynKCHFnyHTY2KAZH+pIKsVi5WIf6x9R9YncxqkN546t0xusRyBiGLfMjfi1EgHz+og72/ixPhaJuTHpjcRkNwxODjQfiBxEd4+A9fohWwJcBAJA4M0QSF3VR0oRngIpUfB+Z7+3+lVpCXqOcHwr8tEY/uiqT1TI536+9+f//vc995W/+5db3//yyaPr2bENyEiM4qJSmbBU1ji16lwc1KPn4iIGPi4vr3pgftu1YRtDF+Y1tfVNPttw7sz3SL33cIxDK3bnzpJ75V5T17hty7G9OIjbWLcYTdy1YR2+2dhgNI3ZltdXA1Qf8eShfmzJuT7ViOWnKHibILoczcaqdbi7s3fcum53rozrjxKOFxsfT/suvWnbcazN9DVqdNW1ptYB88KWHd294PhUn8IRC9GCNwytoGsCsXOxb+0Gmg0eamc41y09LUZ9g6nTvLSNuh981lhMY30CUdb6xI4tQezuHLYs7zg2zcHrD7EiR1R9z8q9mwdjP99MdwBvAQJAIOUJpKzqn770z93Be+z8ggvWUyif7nb8UwOughmCLxyfPP2cGTSUZxjKv/jvt/78c/ef7f/wu/acoE/DK5ywy7tFD27WOUjMCESu/Jp7lx775vq8dWqwSeFdtudOGVE2DZgX1je2XdgNYzfxi9zQzCPKpmELqpRbS5aB5jLj+NqW389MabGECB140up3J7jfQi7Wd5kX1u3bOxsLM4P1PK/ZEb50OG6xDuvDPUJTtI7OuHfIsa8tWvpbWvtnbJbegGD7I8Twc31b9OBReOPzPZknlRp7zLa1Hbtzx772zNzT4FusjwbVVw8sbT4LWIXBbjFvblmC/fkMXeuY94cAhk2hBvrRxvrYggLnCqzcO2qjCtfY4DoQAAIpq/pQtalE4Aiqn2z6EWms754mwLkZki3zkB8gAAROPAFQ/RNfhamk7uHKkh6qz200b7zhHw0KBxyuAwEgkKoEQPVB9U8AAUz1f6i/2sxRXuFUqA/+5l4MMfxvu5isWjTzymZJ2N/cyyuqbXjDPxCcqv0alAsIAIFwBED137YYvJG583DVf1KuY6r/2vv79HO8rAO1xjE0thiTWTLJlxe8+X8Nv7l3Uhoe5BMIpB4BUP0D+gEyDASAABAAAkAgRQmA6oPqAwEgAASAABBIFwKg+ulS06nnp4ISAQEgAASAQLwEQPVB9YEAEAACQAAIpAsBUP10qel47UG4HwgAASAABFKPAKg+qD4QAAJAAAgAgXQhAKqfLjWdehYrlAgIAAEgAATiJQCqD6oPBIAAEAACQCBdCIDqp3pNIwZTb3d9aaoXMyVX1mbzRRIh5XTYustklokFnNMpWXYoFBAAAokhkPKqL7pXZd7TdtSE/cV3mojVYVM/2DNM/6jqvc/Ij9db4rmfZdINPyrMCdVBk8X6XrNtfWN7Z2N5ZrDR/zvuoW4+9mrm3bS57I8b3ujP6B2S4bGXPfYEKZcqh+fO83w/xHzYqmFdkdx7/qH11Y2JfiT2t4e+k54rUStKwot6ZkFplVqUS3sbtOlMsVIhE1EPbpIYuiyH5ZncqWUXyBVVMi5CfRtVEB1pJkeuUZVRw1uNUbOdXSBXqpW8N/a728ld3VFxnZQbUl71JffV0/s1nRfDqD6H3btbN71efuMe1/RlxdieYeJLWvzdKOWS8uGrGw9HGZSDX8U8/diSc2fJMtzd2TX4eHHDuT5Vzzh4W8KugOrH0pVkVZYMv2yfmeaFtNtiSQG9R1Iy+qr9q0cCYeXZnKMaEJm55coqCT2srFKpQqVSwsuKNW/H2cBO55Qp1MpyuVohyDspPd3x5zOLK1KpK2RKpVx48Ichjv91cVf0uZwSdbWElxn3g76mci5HpNao5exs3xU4SQUCKa/6CIFII4Vt9/ltlbN7lY0czw0sGavuMoUV5zeWx7n7Q/vThfP5jBAPYr+YvtDr/b12skzfYpRzQjcdCkcp1+jKOMfak5401U8IhIAGQGeX6qo1yqKgEUyOST/z+vrwrbMBN4euqRAVTUQIWVf01tcf3qoN/WlcyWYWCCOO409RRXK1nPN2umMqXayu4OeeZpZXS7hpO7+QxZFXS/nkM3yJqiznCOPpY2gtoZtWLl+hqyiKtzeLp8GHfi+kkOwEUln1SWTJZYYGPWgiRugGKrqvmt0VK8ObBdHrj1g2+eH8q/evVob+9nJarS7HY2NoIS/rnXe6HOixYh6aWtp2n7tsnb5peIbONGxZWLdvu+ybK7bJ3oYisj9LJE2f5Ym551prv9m2vGXf3lqy9BrZ/hvo+qkNT/qelB3O5PP2R4dAzCtrGbEsrm7vOLa3lmxT3dWBZhNN0dpvtqKUdjaWn031NIgDK7TY9ASD7HJszoyMLnqZrIxU+1mhVMm1c9fnX/6qlhe6KkM3IX91EIiVkoevbwy3HmF05U4t2jj+dC5PrikvYp2KniV89pBMKl8glldUaarVarlUzA5wTdNyJTqNvDQ7k8UUyuUqTXVVpTCXGeIVmYWlKgWXco7CV8gDxvocoUon4eDnkui5Uo1GJohjKJzJovMlEplSqdYoqypL+QVZeEGlihRatYhJy8oRlspVaCkkwgOzDOey6AKhuFKu0igVciEnN367hIZwxCKpUqlWy2USbk5I5x8tV6qRsGmo2+NgATNzcwUSiVxVrVJViEX07HPeFnWOLtZoZGKeWFmtVkmK8igcSYVKo5AIgqI3TmUX8kpkFVXq6iqFWMjLjg9CnqBKp9HiDyU/yMaN0nLOZWazspE8JIeTHcLbFHNTifyWTFYOW8AXlgn4PCTrHAERiCRi5hmsxZ5G25Kcn+vlhhCIVBRdoJUZiRJSKteqhXQfeYRA5AhUuvICJi5NJFIKkTN/kj9NZdV/h9GxrBp7oZ/e13bUhK6ko6s+jzfwqt06XRjCt48134iqT2KIy6Q6kxnVoe0Vc3+bqfFad3+bgeLOLWLoX7Q7d2xD14zVCkNj29TyjmPNbCryloVkNG+7MLEf7uvsHUGnD1z2hV6/EUOTNtS3jC+77NZeo762wX2UBUom/jvwVs6jQCAiwmvWzZ1VS6+pvrah/tqgdd2xvdgn9wo2RTOy7HJsLk6h9Fpu9puXtl0blmte5wrGisJTlimaR1dQo2ftyUhrS3NT22BnQ/GB8tYqv3rdfvgpeQbj1nft1mlOiI4yQH0PvDfg06jj+OyCymp5aZBORE6TQDxHZsuUWo1cJKTn5GYjBRyxSqOWc/ztNo9fpZMLuGyJskIkzM3l86VqjVbB9d/gyeSpnDKlopSSzROrFLyAT1lceWBPjZRWaNWlzJinvTM5fLlGo5Lz2QUUCovKFperdYqSAp9sZ7JlGrWMzRRXKOR8Di+3SFKh1ilF/hsIxHPYVLRCWFBIpXKYfJlCqxGz8YZIAOpQ0OhMsapaUc7N5SDUQo5IqVFXHoRAyOSKUNc3iytTBxo6CCGrQKDQKKSiXHoeQucL5RqNQoR4ZBtFpNGqJEKhAMWrQV/EKZWoVAKqP2OnqaXlanW5kJ9DzaOyRRKVToErYywQMs8wszmyaq2cgzDJ2UxyNt3HMFSR/a/2fHqaw5dWliuwBhDCnxRrU4nwrkyqUFylq66Si0rKSmWq6ioJR1Dpj0LIFpRrNaKAlpPLUwS0rsiUTufKNFo5221DuDvMM4JyrVqY47cDIqcQIfMn/aNUVn133Yh4nydQ9Smt9U9fX7/bTPQqcXCDiKj62M306uFV547FdECMhV22bdfGZAPXlya7xbyJXvF4DjDV33jc4lUvsrLzmd25NVWPt+uP6OEniS6yLlyO76jgh6MR9npYCATEOLnlWBjwmzIkxeCyy/7Y6MVCltVfM+JcIHnVw0vOLXNjcPCErGfR4XzWLfSaCz6q+JOctm/b57+V5B/oB8PmPOBOYq2tff75eVbARXz60c+jjuOz+RKVUkD1d17R0yQihGxBOSqQhX4/xOkCoUqnFHI8o/ksnlirq5DKJfw8j0KgY/qgsTtaruwihUJcypepy/m5gZ4A90Syz+dPo4vVGrkwOzZ0BCKVWqLC7Ax/0cgFlfi+GxGoNFVyiazcMyLEMoNKhfcVp5DSCrVSkOOzM6hMiUYjjWNum1wgr8aHU2CDzhB+cqpYoSjjliiUUj4ZPxAn0phitVLC97s30EGnV9RPF5aqUa/7KSJyiimp1ir5aD0yOTK10BdQkskRVmnKi/xsswoqNWoJ3fuWqBDc7YHCV2oUpTHDD9FiyUUKjULkGYF4CaOJx9xUwrbMbL5ErZOXFHodObQctOp1vpo6RZdUB1mcmVwx3g6IiZIYH1F7il6mxNsB0VIIm3k8ipN5Dqp/NA9/xaOP5l//fX14n3CMqr/YLQxuQMWtTxzO9XE9XqWwKIHNsQa3BxtTfWsrzlygNExtupb6FbjBzdFUn8To3K2b3Y/rMPQ2hYmdDP9FwlQ/BASEpBlZc833+KY8iAiBbBhad6x5IYRIs7R7AbWNcBBQtqjqrw0bAp3/wZ0dUTl9ff5VfYQKDa6mgBTIl5+3zy+U+HrwiDeHyDkRiTaOdwf240e3ARkImSaBiFAESo22MjAOgJYr1WlkAk88IOo816Ei7VUXApHFlWvKC4IwYjqqVVcICvwGhLeYaNB4lberpWADfbpPgKPlM4snDh64IwSqWOEfn2GOZdR54He5n2KWV/vD1GlMsUYpKvSNa0+dKSyt0ilLCgKtk/A5QTVegx+7Z+aIKlBvgf+NbsKYOaJRSoVIZmBqqMbjHSRUSpG82keeIqzQepztWQWV1YpSVFNPcwRV/kfIBZXVVWKvbwAhnGayJWqc+kaF4M4PeptSFHPBvTWIaz90tlSnLPEahfgbYm0qgWT8KVDpInW1PHBJ6hm+RKtTCDwu/ewihUYtCYiWQF8aByW2VKcJjGREjRiVt3ESkWicw2U+Fa6nr+ozKBUXGQ1fa2d3K0wXaUr3IcNLrL+Zhq3pzHpb+/xLXUWoOD5iXpGiQW8cWXA5bAM+B7sONyp1JxtG8Mi6oRWH89lNnz8f/UKSdf0rDueTVjaWt4OqT5D2LbjsAYJ3NNXH9QJhIRzHPWEgEBHaNavTZeup1ckV3kOD+uq3zc14/abwDPUtNzsHBoeGR4bGrGsuh6XF6wzw1KNb9XX4p0LknDfUNP+6qU0d4qOI7YGYf0Vw9VGj9fVHAyb/OC/iIyFeEW0cn8mMHNgfro6YHJlO49YYf5bQbt036Y76jbUqIV6kUWdAgEeUQKRmsyVytUrECRNSQPFpHjrkrZbGMaOPDcU0otxAKyFHrPTPzqKOZV+G3fTQvttnuGRxxWpduYBLz+Wxi0RCcaVCrVPKxDl4N6+/+CFYYXlQCjmFTDafwxeLpKpqdE6EGziaRzKpAlGVRl5SGHTdY11VlXOY3FyOgCeUSFAnuUrE8QzcsfG9LBc1FM5RS9TVYswvgrphypke6wGtqWpJKVqEAiG/RFah0mlUch7VhyUaBHcBMRcF3nwJ0dgiosCmMIJ87B5isTWVEHg9eUAnRw6k7L7oqX1sCj8wWiKTLcc5PKJSQqfw5V4bAnvvOboI7/WJmkL4/EfmdhI+TVvVp10Umw8OYecOGPWRvy3kywvt8z+oy0KpPlmJKrQ/jM59bmvlBbWnMILnFvhn3SFVn4a1rXCq/9iIG5+dcNUvarMdYIiS3DY3e6MfdK3oXL5jc33e9sRimbFYZuY3D636+f3vzx8mDv/s1eft86/bZ+ZKeKEaQ0x9QbRxvCewH1e5MSWLEIhYeJdbY3yPYB7+alGhexyM+o2DzAJEJFeX071j2dNUgUimkEgVSv/YOqglu4etaIzbKapY7nFfH7jHl4HAE7Rb1wYvDceG1Aque2oZdSwHmQWo46GC7w1Tx0yECrGkVCQpLRHzi/h0Kj3WUT6WmWy+UqNWikVoCkKhiMvhUrN9cosV5EwBT6KokMrloVexo4ZUtUKOZkBUJhCUcnIDouHQIWyV22eOqo47Wg1dCuGbBzldKFLrFLJyrAhlAr4gl56b6fe+uL3rESG4qWYLK7QqPi5WIHI/dvBTNHoD7w/HVVbUpnIwtYAraDXJ2UGxLwh+KM/iKYLdDFSh2m/wRaWEeQ4CLUg0TZ8vgRA1BVx5AzKfEtfTRfWVoWvrqNF8Ecf6WDdxBA+/6cmBSXqGybLjd1PHpPqcm1Z0Fjz0IoKoDZpEe8sefnSsv2Np4uSRyHTPEVCVdPnAknPH2qPAjewRk+XQqu8e61+Pe6xPIDIy85vVE6/avxrNCchhzLLHlERfoC/lH2qBPjZADIp/zhGjkW6eTX5Qh3C12GMBuFsF6oLG+UhPZechZ85l5sqqI+UBHaVVi4U8mUYpxsUQxAAEG0EGqT7mjfBNLWM+3oD4QXRE69c2bCR9QE5ieLXvW4AIVVECETJZCEI7hY3OfRPtvsexORGdQhjuu4YNN91IUZPLI94UgdI/B5HFk6Cz1/7IBlziWEOKBsF9PzrxoXU7FWJtfkEvwhkoQSlEbypBSQX9eTq3XKMtD6LnHsp7XfoHR+p0jgw3UxOVEjq7pAkI4Ed9CTqxz5MUNYV4mk1QAZP/T1D9I87rTyZsXh8pumbddtktvmA9Il3YZt12rQ7VekZ7Mak+GY2GW/bNZ/NMQ1PdelwoQJQ2SpZcZl1oiu+QePc/COovIvwZxuFBRAjoJL3dck2MyydXrlG6vR0EIr3RbHcu9pXhvqVs49ShPfyeef3DLt7DrMBDRfNFG8djgf1BE/MReAZ9RGWKNZoq3DZtp1lc1Ocv9m7clsuv0vkHzShMKlN8IDodi57zGwdnCnP9cXOeN2Zx5GhYljr+rKIz4gHBg5lMiVLrn2VHzQJ1oFogpXJ8odD5BU3AZoWnWXR6mMkIXIPxNS0s8wE5P3WmgO73rnupUsUKldgTQnialcvO83oUMNe0ImB5RWZOoXdtIRrA79nXCI1RV2IWDJ2NrQD05OE0Knj4ZQsEIpXCLPDNGUWHgJULM6G8swanczkF8QaCoIGZfgMoi5PL9HmYYm0qPqpBJ9g0iiogHDWLI1DgQkzQgBKdRuqNOCEiWexyhVZX7lsUGo0SIQuNEpD7o01pOSXKAE9S1BRCNY+ggpzcP1NX9TPy+dkCUbbgYsnYfk1nEwU955NZgdO6Rx3rEyimQ8fwkxjFRaUyYamscWrVuTioR8/FRQzftwshuGPyd5Ymu5r1tcamAcuay7E21eye1CcQkZhUn0iXD8xvu1atw92dvePWdbtzZVyPD/J/q+07OgRiXjWa/w3bWLfJ2NzU1jf5bMO5M98j9YByr2uwDpj0Cp3eeLNnyra5Y9/GjfUpHLEQZdswtILSw87F7NAEGDlt3x0lhh9T/YX4Y/ixBfoRxtCn0cA6d+z34foa1GjQ6hRiAZ2aR2UKhDI1uiDNt17f7TzHDzHREDO1RCBg+u7B2gmqi+pKPpvL5peVy/2x9P5cIeiL5AKfEHqVMnozQyc4NKpKAZuDUAty0UV3OoWI6/NtUAQqdDsBXDroPjkKCZfjE0UsBbWitIhHZxbmFoklVZpq/6q5GHKC2l46jaKcx+HSmTyOoFyu1inwCx/cb8cCFcV8HpNTWipX4IMhTlFFFVqdQiri5BbScwU8kUKpVXuWDmIB/O7AQDRG3T17gg76VUIm0+fGR8M5teryEkEus5DJKfXUlHeFZAwQ0GKeQqMgNeVCvjeHwdGI/vrCxrjpwwAAIABJREFU8cRfRMf6WmVpATe3QCyW41Z4xtxU8KkFnHsgS9g5rKwzTCRXUCrXaLS45STupRlaTUWJgE7n0IvKyxVKpVYtwAXJRqZEIKK2lEarFBVxc3IK2SWVFQo1ajJ6p6vQpSgROQdkOAyik3tPyqo+iXV372DkucokCqjCI6s+kccbeHm49frCLu8WPbi5/+0pY4BdgiibsF16nO5deroacJvwIKSGqbWtwCV/pd3WrY1gfz65WN9ldm9iszAzWM/DGRYBNGLoFo/7/pggELnya+5deuyb6/PWqcEmvD/fs4fP0uaO3bmzsfxkxNTS9/iZtd+zvpHr26IHHx9wINYPK3uWZ73+Ybfn43DuvmyfmcyNk9IpdAY9YIgZ1KGgMWsKUZwL9INrE93ZRqZCd79RVIpLhDn+rWMQAiIsr8L17GhgeR5foaoQH9gDJzOPh8W4KWRlgZv8uF93DlULlSQH170GlSXSn5msXKEM3SBIraqQlvM5ubhlAlS6SKUIjMbPYssUCrmAjRvNn2YxBbKKKo0G3YaoXFhUmB1nTk6dKeCJKhVqTbVKWS4p4+Xi8+BDSs8RVirVOmWVXHBgI6NMqkCI7vCjUVYpxCIRm0rzeAKyBZIqpXuuncyRK2TYmsbMAqFCVS4SUPz5pFI4YolCXa3WKORykVCQc8bn8I8NAtr8aFQ+RrKqUojnE3vLzMzliLFSyMsD9imKvamEf9dpbLG+dx8hlaSkvEKrk+Bjqk6zcksqlSgBmbCoIJsplleV5waEAkSghFXTmUK+FN3HqUIq4eXmUvkKD3B/rqKl4L/TV+8pcpKyqh+pc/FX59FVHyEKR5vmX70fbiY4+rx+irSk2IAndWHJtTZ0bz5t+HWY/pYTsiCX1DOvr98Lv3lDyMejjuPRPV/xa9BDvjopLp6iCMvV8e6KkxQ5T4HWe9KKQM2i5FIomJMDnZrxx2ectIKcvAYMqn+0eX20H+dwfvtd+9Pn50MGb4Pqh5S6JLyYY/oVug9/62EH+ug+/Lr49+E/RS2tkEcax5ML5HLc/nRJ2idmMil0gahK97Z+EChJsSRhO0++LGF78lRyYl5gCXV9RAKg+kdXfYSQVVs58erGw8lc7/Sbv1ZA9ZOvl/HXji9vWerzoy/bv5oO/VvJvtuinHDQ32GyLii1lxj5JWG3a4ySyMkbOqA/YcCRKRQKkSB4aXsI1KlYfCjmkQiE2DP/RH4LjgThDX4v0lz1WTJGnYladAy1ldOsHpjk4OJNPGmSxfoWk740iabSj6Gwb7CBvqHcZtVK7k0fYam9t5PKUgtu2Zq++uGj4c7D+wxSDy+UCAhEIkAlU7zRD5Fu837L4J6jEUhz1YdmBASAABAAAkAgjQiA6qdRZb+hcfPR7FDIJBAAAkAACCSOAKg+qD4QAAJAAAgAgXQhAKqfLjWdOMsRUgYCQAAIAIGTQgBUH1QfCAABIAAEgEC6EEhN1ddodci5cL+BkS5Ve1IMT8gnEAACQAAIvDECoPpgBAABIAAEgAAQSBcCoPrpUtNvzJCEFwEBIAAEgEDSEgDVB9UHAkAACAABIJAuBED1U72mEYOpt7u+NNWLCZsEAAEgAASAQAwEQPUTL4dksb7XbFvf2N7ZWJ4ZbHzDu/Pybtpc9scNsCVw4is66vct/3zR1p3K9doz5CTITNTcwg1AAAikIgFQ/UT3v3n6sSXnzpJluLuza/Dx4oZzfaqekeiX4tIH1U+G7y2ZnnW1RrB1p/JnUH1c40yGqoE8AIE0IwCqn+A+CGl+vONY6JWR3A2LLNO3GOWc0C+lcJRyja6Mc6xrDpNM9RNSxoAvLZ1dqqvWKIuQ0JDfRogNFXl0q/LnOxVbTe8+64Cx/tuoguRpDJATIPCWCYDqJ7gCIv7SblnvvNPlQI8V89DU0rb73GXr9E3DM3SmYcvCun3bZd9csU32NhThnMMkTZ/libnnWmu/2ba8Zd/eWrL0Gtn+G+j6qQ1P+p6UHc437u2PXkZiXlnLiGVxdXvHsb21ZJvqrg60iki8htZhsxW9wb65Yh3tMuDKiBCIxaYnGEOXY3NmZHTRW+SVkWo/igTXcoDZEeJdGXVy2nv8DDKSPdoKqg+qDwSAwFskAKofoo8+zvqIqPokhrhMqjOZUaHaXjH3t5kar3X3txkobhVBDP2LdueObeiasVphaGybWt5xrJlNRV6NIRnN2y5M7If7OntH0OkDl32hV+nxKxARmrShvmV82WW39hr1tQ3uoyxQU4+zsN6M4dOMUkYiIrxm3dxZtfSa6msb6q8NWtcd24t9cp9gM4yT6w7nlm2092aT0dQ6bF1zOdammtm4d1F4yjJF8+gKatOsPRlpbWluahvsbCjGZyNJzqOoPtIwtGLffNJdhitdkuQcsgEEgEBqEADVf5uqj7UhevXwqnPHYjogxsIu27ZrY7KB62tq7BbzJnrFMwWAqf7G4xavvJGVnc/szq2perxz+4gefrLkMutC4KGUkeKFFraMBMQ4ueVYGPBbKiTF4LLL/tjoK3We3GjCj/7Zxqk11+pQbVB8oqxn0eF81i30mQtxCGeRMriMmppsmg/7MZ5EU33UxNle7Cs7TCnirRS4HwgAgXQkAKqf4FqPONb3q/5itzBYpYpbnzic6+N6vABgUQKbYw3u0Tym+tZWnLlAaZjadC31K3CKeDTVf4fdu183G3iMjeCtiuBsh+SJqX6IMiIkzciaa77HN6NBRAhkw9C6Y81bxhCKi92wPKDzuTSwe1DVXxs2BF4MmZkDF7M/WA4u4+wytyjEq2Mq7IH0cU9FUX30TvphioB7RSKyDWkCASCQMgRA9SP10Uer5rwiRYPeOLLgctgGfA52HX5iHks/jCKSdUMrDuezmz5/PnozWde/4nA+aXX7tw+qPkHat+CyT+LX6R1N9Y9GwMc2TBmJCO2a1emy9dTq5ArvoUF99dvmZrz4kRiyamNra+9g//DI0PCUbcuxOWXE30AgulU/yBTwZSDBJ2TRRYbmcsBRIcoI8dIYVD/EU8dUC5AyEAACQAAB1U9YIyArUYX2h9G5z22tvKA3hlFEt8A/6w6p+jRsbBdO9R8bj22sf0x6E6aMRKSozXYAEQpq29zsCW4gcvW91jUs0G/hmdUyY7HMWJe3HNvJpPok1t29YG/B2H1KUEWjf4LqH1OLCsEWUgYCQCAWAqD6Ce4+juDhNz05MEnPMFl2/H7smFSfc9OKTpMfcjUgid17QM8mRqjxQgur+uhYf8fSxMkjkemeI9BZTaodX3NtWK4pvUYAQiCKO58dq+qTGxeCNXt2mSuI5fsT7z2g+vESg/uBABA4XgKg+vEKWJz3H171kaJr1m2X3eIL1iPShW3WbVwgW0yqT0bD5ZZ9E94809BUtx4XChC5PZGyK5pYFwIPZUjfdcR0wqo+obR7wWW3XBPjHufKNUq3M4NARNjoFIAVH+pIKm21HO9YP0NwMbiMF95ONF+gxYNjEmerg3SAABAAAmEIgOonuD8Nr/okRnFRqUxYKmucWnUuDurRc3ERA+ecd8fk7yxNdjXra41NA5agRWsxqT6RLh+Y33atWoe7O3vHret258q4Pu5wvENSil5GYl41mr0N21i3ydjc1NY3+WzDuTPfI/VyKL1p23GszfQ1anTVtabWAfPClh1d2e/18FM4YiGKrmFoBV3Rh52L2W+qgLEKM8IiifJIovycR62V65fOoed5pHxq8OOelXs3D4R2HpJ/cPphegG4DQgAgfQhAKqf4P40vOoLu7xb9ODm/n1i5mmCiLIJ26XH6d6lp6sBv0ENqWFqbStwyV9pt3VrI9ifTy7Wd5nRrX52NhZmBut5XkFNvAbEVEYiV37NvUuPfXN93jo12KTwLdtDa4emaB2dmV/bsjt37GuLlv6W1v4Zm6XXHa7P9W3Rg48PsLQEpPDWv88Zv25C9+INPCosklNBVYCt0XCuwMq9BH8rg7DDn0AgnQiA6ie4fwmv+m9diiADyUYA26tgI3C+I8HtM506u2SrbsgPEHgrBED1E9yrguqDrsRKgNto3ticaQ1YtRHrswluxpANIAAEUoUAqH6Cu0tQ/VT5qiTeKs8rqm0oS7aIBKg+IAAEUosAqH6CVZ8s1reY9KVvbio98eKUYGKp9QWD6gACQAAIJBUBUH3QMCAABIAAEAAC6UIAVD9dajqpjE3IDBAAAkAACLwVAqD6oPpAAAgAASAABNKFAKh+utT0WzEq4aVAAAgAASCQVARSU/WTCjFkBggAASAABIBAkhAA1YexPhAAAkAACACBdCEAqp8uNZ0kZiZkAwgAASAABN4iAVB9UH0gAASAABAAAulCIKVVP4tDzGK8RZMKXg0EgAAQAAJAIKkIpLLqn736vH3+9Y2Z57raSmJCdnxTjqgmftSix9ds1tus16xKXtvc+zOvbjy1CSjpYrG+TeAJaU5QcUAACACBhBNIZdUnEBlEioTT9vzG0+eS/ESgZPGRiousjuW62YWC/LcoQjnXv21/+lytVZ9llSTGvkkEPUgTCAABIAAE3jSB1FZ9jCZvqGn+lV6ZMFd/Rp3tLas+RzDwun2i/ywMQIEAEAACQAAIRCSQ+qpPrJ27Mf9tJe8w9hSD2viHyoldw+y+wfyi8nYbEsqNH0n1aSJ2x5xqYtcwvWcwv6i6e58leCegPlgyTodN/WDPMLunn1iWfFBDPkQ+Gbm//aHdOs3JOsSz8AgQAAJAAAikEYGUV31MEb+aZARobUwVTEJM64bpFxKTiaG8yGr8Q5V5X//Z7YOz5uFVn8Pu3a2bflF+4zbnQhO78X75xF7dxJdUmm8uQFTQv2uYsBU3XKYpLxd0LNTM7qluKDNiyp4vEQIRISqnr89/pxQmzJ8RPz189uAcCAABIAAEkoRAyqt+Scnw6/bhW5lx61a+qWJ6r6qR73uQpPm6ZvZHsZLku+I+Cav6tKaK6b2KBpzBQRNRRf4/M9AE14slvgRJ1I4XddNzhwgMZHU2zr+qr+UkSauCbAABIAAEgEByEkh51ecIhl8dZs4748KcIShGj3ZZYt5Xm2Qxq/5F8YP9mt7bSL5P1/GNgES7/WPd2P0A50HFl9pQhkXQGw/+icUu/EoLY/243ST4GoFzIAAEgEDKE0h51UcytdMfzb98/26/oCKe9XsU03qd2catUFL9R1v5g/2a2xeDRDfsWB8hkDVfqsz7dbO72s9tko577Ao+znvP4PTv1312n+ZPX0m98Aft7F75hZBWQui2SFEX1g/pH7668dUkJ8CAAP0DAkAACAABIBBMIPVVn5BVKRj47sb86/aHQ0iQYIf/k4TceFE3u3/wqOmMQ/XR9FkiRsN90d0F9YO9utk97V1TtqcO+NzPQ6RfN7tXURcY8RdcZwHyLxz9cP51+9Pv9LWSgOvhiwa3AQEgAASAQNoSSH3Vx9ayf6vWVmbGFeKOjfW/ZrHeyaCRMmgkIhJ2/B1hrB8ovaTsurma2RfeiXxGQf++od9ExtKP/IrAdIIaKzFHLbj7XfvT5+cTsidBRJsjYsaC8gl/AgEgAASAwFsnkPKqzztsNB82xS654A++I9I41AoRzkXvqbywqp9/WdT/NUfgNxcylH/Qzq4XizxX3JMIBUW4RpCvpOHC/WLX1Pz+9yGaL3ZccCcQAAJAIF0JpL7qC4Zft4/eIsdfwRxW54910z9W3r7HudDE+WCkfGyvbnrBL9I0BlkgyhaIkA8W6maXeRL0PLuI4TcLikzlD/brzOvlHVgKpq9V5n0Dfu0fq6ZkbK/OvCw2tbEvmArcN3x+H4l/eO1WfS3E8MePLv6GgbPS4HVAAAgAgRNGIOVVn8G49V27dbrwUJFuHHSXnrFd9xY6FZ332SLcjLtkRHtw4v/Bl1R8C8ivKbjt24RnveLgPj8sJafDpnqwZ5je1Y4tSDpMITcCiqZMmfW2Q+9EBBoGBIAAEAAC6UMg5VUfIVY8+mj+B11FCq9qYxTee9V+qJ2I0qehQ0mBABAAAkCAQERSX/UJ6Fr2lwnchz/aQDzx7YzDGzjUngRvP+d4vwicAwEgAASAQMIJpLLqE3MqGWWmyuGXh/bwJ16wj6eCyfW26/M/1F9vzhVWxr8L4fHk4aSwgnwCASAABNKZQCqr/tnLCx/N/NA0PCkQpnyYG49x+dHfP/zho5k53qEiGNL5OwBlBwJAAAikD4FUVv30qUUoKRAAAkAACACBWAiA6oN/GwgAASAABIBAuhAA1U+Xmo7FBoR7gAAQAAJAILUJgOqD6gMBIAAEgAAQSBcCqan6Gq0OOZeX2vYalA4IAAEgAASAQLwEQPXTxb6Lt2XA/UAACAABIJB6BED1QfWBABAAAkAACKQLAVD9dKnp1LNYoURAAAgAASAQLwFQ/bRXfcRg6u2uL017DpH3JwZKkfnAp0AACJwQAqD6iVc7sljfa7atb2zvbCzPDDaW0uM1zRJ7P++mzWV/3JAUuWJU/kfb/f9TFPLL83YxJgel07paseuOdLIkZJPg1/2vtu6/44SkF+UiS8ntXddOvNB+PseV+H5Yks+5uyy+cKgEE/+1ilIiyAAQAAKhCYDqh+YSslc91MU8/diSc2fJMtzd2TX4eHHDuT5Vz0j0S+NJPzn0jEBESO/+54XFv37R93eMEB3628b41ikh+Uh3o9h1p/LnsKrPqPzfXyz+zXLraZ9sx9hiSciNF/reJhJCIGm+rhkbQbD2Q66z6c0LBYIYE4HbgAAQOBEEQPXjEcgQahTtcaT58Y5joVdGcj9LlulbjHJOtKdCv4jOLtVVa5RF7k459D3xp/zW9cxdkKzTI1//9d7X/0mZFaoIcWBMRUpkfsEWqvflf2wUboVVfQIRkbX+z3sr/9OXlZS4ep932L176hsytCIE91TTNjaNQMxvKjfvVX0Q2u9yXG0P0gECQOCNEwDVD6Uxx1gNnFary/HYGG7zgOLqtnHrysa2y7G9tWQdu1kdYBAUm544nC702JwZGV3ccJ87V0aqyd5sM3SmYcvCun3bZd9csU32NhT5PiLSy9rM1plBU0vf5JP5tR375op1yOi1P9Ay0vVT3jSxt2Dpvx1vv6j1P+yt/PsRaRi5ioQxHSjRs/9Bfk6Xd4qcn7scSfUJmPG0//V/koU0nsI1bIppWf/ZbQrrnexGW83n9ygIg3X3RwN6ErP1ELWxxZ4U3AkEgEACCYDqJxAu2mNGkitu/diS07VhHTDpFTq9se/xusO5Mo73/1N4yjJF8+iKw+myrz0ZaW1pbmob7Gwo9vTFiKF/0e7csQ1dM1YrDI1tU8s7jjWzqcjTudP1Y6tOl3173Tra2905MGXbcjhdS0MavwlCkzbUt4wvu+zWXqO+tsF9lAVYHgnm485qFuEP/+9f7Y39H2GnkCNhRE4OJVYNt+M+qyhmKT0IP5rqExFG3d/urfy7ry+EsZ9CCz9NxLm9oH3wo/qzL9kCEknzB+30erHE46AK/UhQ3qI3Nm+jbRhasW8+6S6LKdmgt8CfQAAIHJUAqP5RCUbpwcPLFUkxuOxyLA8b/H1r6U3bjmN5QOe/gvaMsp5Fh/NZt9A/iPfkWdhl23ZtTDZwfXlgt5g30StuXcc64h1rqzd+kMRrtWw5tmdMNHyHe0QPP1lymXUh8FDKSPFRJan/t92Vv7HVZfsKEnwSHqP3zuSm5AFedLtq+kdRRWD9xsUquuoTKP/X3OJf7d7/u3hn970kWRdFE3vqG8qMuDIWW2MjIgTEOLnu2F7sKzvQnr0ZiOu9cDMQAALxEQDVj49X3B1TeLkq6513uuZ7pPgMYM7qlUF5QIeI6tka3jjwSEhx6xOHc31cj78Zm//eHGvAdAXriBf7cIMqevXwqnNrqh7/yNFU/x12737dbODhDQfD2xYRz2W3/v3+yn+4V4hHEXgeHqO3RpKakjeTb0T1iVn3Hv31/ux/VEZk7s1SIGci8g6144VhYoRKC3dDmOuxNTZPluhHsHuCMxwmP3AbEAACoQmA6ofmchxdSV6RokFvHFlwOWwDPv+5zjvvTq+fsjtdlqaA0Dy6fmzDuWNuxKsyNtZfGw5yACAEsm5oxeF8dtPrz8cKQtb1rzicT1rZaPd6sCNG2G1Wp8tqwi8iOJrqHwco5PL9v9lf+V9MoaeiI2P0VZ9b9ZOUEol1d++AbXQ/jllzXzFjGOsTKU2f/83+4t82hebpSyrUSYZkRD39QqSM308QW2M7lCFyLG0MEgECQMBNAFQ/VN93LH0TWYkKsD9Kzn1ua+W530ivRyPpglUfvbgTOBYPr/po+s+6Q6o+5sMP1RFfQ1W/FT9znwSq3/T5X+8v/u3lkCoVBaOv+sKqflJQwuZBmtiNX2tndytNTawLTSylKD4Xuruksag+crnv36FWVNxWBU1ZPLan7bxIoolYHXNVY+tVvSMsQWzj8tga27F8syARIAAEjkAAVN8nG4k5Ce+aFnbNO11L/Qr89jji1mcOZ4BP3jOvH2KsTyw2PbGj7nq8t4Bhsuz4pgNi64g5N60ue/hVBlGwkNi9B0axEyPUKE8FGd0elQqp+u7GHR6jN6kwqp8clLyZfDMe/kOO9UkU07LhwdcMFoliWtf340P6vfmPUK2xNbYjdFUx5CFC9uAjIAAEPARA9RPcFCLIlbRvweVYmzJSvF0hSYFeWehVBo6uwukZUnTNuu2yW1q8If1EurDNuu1aHap1WxKxdcRk4+QWLqiQZxqa6tbjnQHe7IXsdknZFdjI9QLu/7hHsbLW45rXP+DhJyYFJS+6oraKB+vFCY7mO+S8vuBe1fSPkgsMIsLg9O+pTYHL96N+TWJrbBHbkpdS1HfBDUAACByeAKj+4dnF1ElFUH1iXvXA/LbLbhu72Vjb0HhtxLrl2F4cqfaO3SkcsbD0/2/vbn/ayBY7jqvqP9A390WlvqjUvmDd7MSbdVwusXwdhwVyScCXkEBIuARwjK83srLU7UJWirdSTFBCu8tFSUpQIUQQJIgSRLqNq2AkILoK2QonEmukLAhdHrQQawXRfVG0b6jGj8PjNVkG2zPflV94yTBz5nPG/p05c86h5GShs2syODVQH3pfZIr+q3h0bXnzy4XlpYn+lnpbjauuwzclNiPqQw/1t3muv7mHX3PkrFiMN6Pdt5tbH45OLyxPPrRJjyL/N7VQFhrDf/l9xvCrROmDY0cFy1HBUpA9/e9nfCUHxfdHD2xZTe81ht+SfX/V1uoODSgJL9Unvtc6Rqx997Y8ysarIuHU14dn7t04uXEPMn8SORwCCIQESH2Zv2t2Sn19hibn7PpVes7Gx9nlxJbokQ4O8F2Jz9MTg19fXhdapWc5vEpPi9MUHwl4pKJjYvblbenXqzi1b84XHVsQPXftCVuLV1zqZ2nGP9R5KU/60CG6jawfmIMZj95zvr5KlDL/0Xez7P/E5fmkr8Ibxs1NT/PlvxLn61/Y1Xz9XHfxgxFzbCEBY3n2rWmr952171l2fFn+zceS/CThiy00zWR5kpl7+/LJkvVjy87TU4DUl/mz92dSX+ajp89FafkitJTs+6zNh6FEILY2X6pWfWiZihnfl0WSFoOk/KlabEqLgGIESH2Zv3FI/QS/xw/+wz1xHf6/tm45pg/GhBh15Td3XNg4oZ3I+onIqfXOzA551k08SX6pZD1ldo5AagmQ+jLXB3GV8He68Mnf+v/3L962bfW3YmFMgNF84Rfzk38Z+OLD9aNBZb7CEyiY5CbpaG6N81RCAwVSqtgUBgHlCJD6Mteltsh2xW2Lrokr+fqT+bi7+y5OlcIYTv/NSNvfHd9ceBg3m2z6yfGLvxj5OmOrv1OcKvXL9Y8AAkkXIPX5QkQAAQQQQEAtAqS+Wmo66Q1MCoAAAgggkHQBUp/URwABBBBAQC0CpL5aajrpDUwKgAACCCCQdAFSn9RHAAEEEEBALQLKTP2kN6YoAAIIIIAAAikoQOqrpX2XghcfRUIAAQQQ2GcBUp/URwABBBBAQC0CpL5aanqfm5McDgEEEEAgBQUUnfoHzZqDhhREp0gIIIAAAggkRUDJqf/xv3x3ffyna0PfVdeUaTYtX5oUbg6KAAIIIIBAEgWUnPoZGoNGV2xu+O7ai++Kj9GTjwACCCCAgNoFlJ36odrN66ob/5OtnK5+tV/rSWxcc2gEEEAgRQSUn/qampFr49+X5ZF5CCCAAAIIqF1A8alv+NXXP1z/n37+/GiKNDMpBgIIIIBAEgUUn/oFBd0/Xe+++SGj+RBAAAEEEFC9gOJT35zf/afrj9s/Vn1NJ7FpyaERQAABBFJEQPGpr/+wavDq+I//fKs9v5T5e2p/oJUinzqKgQACCCRLQPmpn3GwLL/jj9fGf7r+X1167vgRQAABBBBQsYDyU/+X//r99RffX6gq+/Agd7oIIIAAAgioWkDxqZ/HaL5k9SNxXAQQQACBVBNQfurnd/90vfemVsX9Oal2zVEeBBBAAIFkCSg+9Q2Gm3+8Pjr4iU7VXTrJurw4LgIIIIBASgkoPvX1mtL/vjr+Q3UpK/LS7kEAAQQQULuA8lM/Q1yH/0fW4U+pxiaFQQABBBBIioCSU1/zyzLDKXdZ94/08Cfl2uKgCCCAAAKpJqDk1P/4M//VoR/quvvzT5pTzZ3yIIAAAgggsP8CSk79/dfkiAgggAACCKSyAKmv9pEdqXx1UjYEEEAAgb0VIPVJfQQQQAABBNQiQOqrpab3trXI3hBAAAEE0lGA1Cf1EUAAAQQQUIsAqa+Wmk7HNillRgABBBDYWwFSn9RHAAEEEEBALQKkvlpqem9bi+wNAQQQQCAdBUj9nVJf0Dvu5TlKDuy0TTrW+j6XWTjtvtNaf0oPIwIIIIBAkgVI/Z0q4LCpdc3R3qDdaZt9TtDUO9zR2r6Jqek3U9MT/m6nsNVfNNa5vMsro24zjAgggADkHKOtAAALFElEQVQCSRYg9XeqAFI/kUZGVmF1RY27dzK4OOAi9RMRYxsEEEAgWQLqSX3jcX2pVZ9v2OpmdDv9vU39w1pLeWZpiTZru8P97J8fMRVWV1SW5yahL73I85LU36kF+bMrl50jgAACeyCg3NQ/cHHEPrzmGF5zDPqLGv3W8Pvhd8WVseA3ZNZ+U/b4nX14ze6dL2tq0BslX83FPVWRXwntJPw+3tsvGFtXHX33dJI60Dr9juERUzzUS070RX636taj4serYmGG1xwP7oZ/S6h8VNb+LM/RZGkPVHlX7U+mz3xuFSQ7/PMNlBPu58HlFfE1O9TT+3om/H55sqci+lRCMDubB8YCcwvLKwtTr33trhLdht2a7c0Do/7pmcWVhdnpcV/3jbOGaBnMN0ZXgqNfnpCwlNx5HZzt29yTv03qa6vbJyMljJRNLC29/VHhDXXB/yKAAAIyCyg39TVZZp2l3NA4LQatN1D0eYPJ0XTCXXco8oUr6N3T9sH5YrfbUP6psfab89412/2meIobLZmVnxU8WHP0PTJVfmoIv4rN0fpIJPUFIbdEX9pwxrvmGF6tau3JdtSZP+/JKT0c3om21u8YXrV758803s279qhUbBasltUejx5CkrXbhoQur/zUufpeMVkXpp73eK7U1zV0NjujOa13dk0uzL586HE5bU5388D44srM0yvRf9XoM7TVd14vLE+P9bZ46lz1dS09Y3PBxeee3HAZfn7qa46erHRe6hhbXhnvcrlsNc7Qq9oUbZTEzlE41+ZfWvB32Ld8RhDbjDcIIIAAAj9HQMGpH0rK0P33fEE0aOOBesxdOrh6XhKxQuUz6/DbonJp6uzQw59I6ocrxmp5smaLdxLEayuU+m+LYn0PRmtB35rjcU/mthkf/934iegzNOL99/LL2yc3RenJlrHFOW9d7N5dc6JuaGF5su1UdEvhdGdgZaLr3JHYngVz9dm86P/uQeqL55LIaD6hsjOwEpzqJvV3W/tsjwACCOxCQA2pP/jMGO91j8RbqP/fn30slnYZmqzPir1rF9wlkkDds9T/rdsi2W3koGLqD45Iy6Z1+u3DgZx8SakSqUsx9bfKS7H/f9HrknbpZ33pW14Z9cSG0+fdGFta8He7th4KsI+pL56yNtra2GzFTxBAAAEE9kJAramvc087vGM5peWZ8VfDmSdr1qZPJaz7nfqa8m+sw28tpdL+hgRaAOHUr974W1p713RwasBdca76bPRV0TK6uDJx53QsX4+eavBNLQWXl974n3t7Wz2XTufEj7jPqS+Rj5eBHyKAAAII7J2ASlNf0F+bj4ytWz9kz9qccOrfEkfzSUfLbxrNF44usYc/wXt9TfmjTU8ZEsi/7VLf2Tu3eSRdcHlloj2e+mJfgmCurm3o7B8aC4jbz4y12iPdAwaPOJqvQTIOIPQ0YRej+UJXaiI9/AmcZiLdHmyDAAIIILCTgEpTPyN0r//MaDx8IEs4kCVo9BtvlENxFXp4f78p+hRcmkxCZuO8w/vMIHl2kHKpL97rBzrsOv0RQRt5SU9hq/c5ZzvGF5e8deHWjNbVPxcMdEh7EcQWxm5TX3B5F1dGPXk7XYhbFYbtEUAAAQT2WECtqa8pfVQ1/Lb4YmwWX4Ymy5xZalm/+K6gD0W7MTKjz2xsfFZwMfKE/oDYGy8dcm/Jub+6fuZeOMmSdq+vOXppYEacxSfpkNAV2itig/U0et2520+H2mzx4X763IbRxSVvbeRXcmq9C8tzA7XRDXTiSPvdp/65zsDKTL8r8uzA5Ozs76jfPPaQ4EcAAQQQkFtAqamfZT6UbzmUb8l0BxyDY9kW8f2hY5Epc6H7eLOx+a1j8G1Z013zRXFC3Zm+VcegPzt3vXh+0/nBNduDb/I+v2tpn7cPvzvjiE3eO57d/s4x/Lb0WoOxsi7n1nTV43eS1BeE3OOhMtQVP1m70Php6P1xQdo3sGk03y57+HXmopOFJScLnV2TwamB+tD7IpMk4zPyPL654OKkt73BXevyNHf7AkvB2YH6rOgjIl1l29hScHF6tLfVU+uq93SIz/in+pyxDUIT6oKLkwPNV1yXXG2+yYmpuXWpLxiKcsUy2NtfBxeHPNEyxMYNhFupJZ7nC8tzY72ttyNl8NabomUIg4sHmlvwr+tX2OMW7vqaZecIIICAGgUUmvoHKp9FluiRPrZ/cDc6WT8cAGZxlZ6+d/bhVdvjQGnzPZNF2iyIhIRQ3FR0f942uGp77Lc41ncGGMtzmv0XwgvsuD/TO0esT0ZMkY4BS94DyfI+kWKsFlfGHyVonWPWJ+vnF5T2XPDOW9bNHtw+q3JiS/RIFsAJ+q5IhuNp9EKeK7JKz9JM4KWvt8WVu/6BhVDouhNexmdpZmpyrL914wammranLydmlxamXg40V9qbn89MxVfpOWIbiC4NFFosKFwSf0vJxmIbqj194mJBi3MTo93uzTf6Qs3D2RWxwRH3Wd8s2LhD/hUBBBBAYPcCCk393UMQKskVEJcWWBprXj/MMLlF4ugIIICA8gRIfTX28KTcday3d00ujLUk2MlBlSGAAAIIvKcAqf+ecCkXnGndvaE9UVFTHRtMgC0CCCCAgEwCpD6pjwACCCCAgFoESH211LRMzUZ2iwACCCCQRgKkPqmPAAIIIICAWgRIfbXUdBo1RSkqAggggIBMAqQ+qY8AAggggIBaBEh9tdS0TM1GdosAAgggkEYCe5/6/V882vmVRjoUFQEEEEAAASUJ7H3qf+X56rDetN3rK89XSuLjXBBAAAEEEEgjgb1P/cbGxr/XfrTdq7GxMY10KCoCCCCAAAJKEiD1ea6PAAIIIICAWgRkTP0PDuk/2HTTz72+ktqMnAsCCCCAQHoJyJf61rZLgTeXv/WdbyzRxTv8Sf30uj4oLQIIIICAkgTkS/2PPjikP2xwdToC42XW2E0/qa+kq4dzQQABBBBILwEZUz80oE9fdf7VG2ujKdrVT+qn1/VBaRFAAAEElCQgd+oX3rAFJs7/7iCpn9Z/CZfCI4AAAggoQkDm1NfXD1x+9TDPFJvIx72+ktqMnAsCCCCAQHoJyJz6xv94cXn4ayOj+dQyJyS9rn5KiwACCKhNQObUN/x+9PK3bWY99/pqu7A4XwQQQACBFBSQOfW1hdesrybsD2/82vkbvXjHTw9/Cl4EFAkBBBBAQCUCcqf+R4dN//ZUnLj/qjNbvOMn9VVyYXGaCCCAAAIpKCBz6ut+13kp8OK3V3+jj3Tyk/opeBFQJAQQQAABlQjInPriaL4/3GI0nyLme6jkI8FpIoAAAgoWkDv1fz96+Q+3TIzhZww/AggggAACyReQOfV1zofOgK+gkDH8Cm45cmoIIIAAAukiIHPqaz/5p6rAm6r6w6zNRyc/AggggAACyRaQO/XD6/BfZR3+dGkGUk4EEEAAAQULyJf6R7IMZed//Z8+5yt6+BV8AXFqCCCAAAJpJCBf6lfcsn/7wv60s8CaFe3eZ75+Gl0ZFBUBBBBAQHkC8qV+fNx+bCgfqa+8C4gzQgABBBBIIwFSP/nzKNLocqGoCCCAAAJpLUDqk/oIIIAAAgioRUCW1G/c8b+0biVReAQQQAABBNJXYO9TP30tKDkCCCCAAALKFiD11dKro+zrmLNDAAEEEEhEgNQn9RFAAAEEEFCLAKmvlppOpA3INggggAACyhYg9Ul9BBBAAAEE1CJA6qulppXdeuXsEEAAAQQSESD1SX0EEEAAAQTUIkDqq6WmE2kDsg0CCCCAgLIF/h+Bl++LJ9nnIQAAAABJRU5ErkJggg==;" vertex="1" parent="1">
                    <mxGeometry x="1970" y="1409.4" width="421" height="207.71" as="geometry"/>
                </mxCell>
                <mxCell id="102" value="a[-1]" style="rounded=0;whiteSpace=wrap;html=1;fillColor=#e3c800;strokeColor=#B09500;fontColor=#000000;" vertex="1" parent="1">
                    <mxGeometry x="1230" y="1750" width="90" height="90" as="geometry"/>
                </mxCell>
                <mxCell id="103" value="a[0]" style="rounded=0;whiteSpace=wrap;html=1;fillColor=#a0522d;strokeColor=#6D1F00;fontColor=#ffffff;" vertex="1" parent="1">
                    <mxGeometry x="1320" y="1750" width="90" height="90" as="geometry"/>
                </mxCell>
                <mxCell id="104" value="a[1]" style="rounded=0;whiteSpace=wrap;html=1;fillColor=#a0522d;strokeColor=#6D1F00;fontColor=#ffffff;" vertex="1" parent="1">
                    <mxGeometry x="1409" y="1750" width="90" height="90" as="geometry"/>
                </mxCell>
                <mxCell id="105" value="a[2]" style="rounded=0;whiteSpace=wrap;html=1;fillColor=#a0522d;strokeColor=#6D1F00;fontColor=#ffffff;" vertex="1" parent="1">
                    <mxGeometry x="1499" y="1750" width="90" height="90" as="geometry"/>
                </mxCell>
                <mxCell id="106" value="a[3]" style="rounded=0;whiteSpace=wrap;html=1;fillColor=#a0522d;strokeColor=#6D1F00;fontColor=#ffffff;" vertex="1" parent="1">
                    <mxGeometry x="1589" y="1750" width="90" height="90" as="geometry"/>
                </mxCell>
                <mxCell id="107" value="a[4]" style="rounded=0;whiteSpace=wrap;html=1;fillColor=#a0522d;strokeColor=#6D1F00;fontColor=#ffffff;" vertex="1" parent="1">
                    <mxGeometry x="1679" y="1750" width="90" height="90" as="geometry"/>
                </mxCell>
                <mxCell id="108" value="a[5]" style="rounded=0;whiteSpace=wrap;html=1;fillColor=#a0522d;strokeColor=#6D1F00;fontColor=#ffffff;" vertex="1" parent="1">
                    <mxGeometry x="1768" y="1750" width="90" height="90" as="geometry"/>
                </mxCell>
                <mxCell id="109" value="a[6]" style="rounded=0;whiteSpace=wrap;html=1;fillColor=#a0522d;strokeColor=#6D1F00;fontColor=#ffffff;" vertex="1" parent="1">
                    <mxGeometry x="1858" y="1750" width="90" height="90" as="geometry"/>
                </mxCell>
                <mxCell id="110" value="a[7]" style="rounded=0;whiteSpace=wrap;html=1;fillColor=#a0522d;strokeColor=#6D1F00;fontColor=#ffffff;" vertex="1" parent="1">
                    <mxGeometry x="1948" y="1750" width="90" height="90" as="geometry"/>
                </mxCell>
                <mxCell id="116" style="edgeStyle=none;html=1;exitX=0.5;exitY=0;exitDx=0;exitDy=0;startArrow=none;startFill=0;endArrow=classic;endFill=1;strokeWidth=1;" edge="1" parent="1" source="112">
                    <mxGeometry relative="1" as="geometry">
                        <mxPoint x="1280" y="1850" as="targetPoint"/>
                    </mxGeometry>
                </mxCell>
                <mxCell id="112" value="REAR" style="rounded=1;whiteSpace=wrap;html=1;fillColor=#e51400;strokeColor=#B20000;fontColor=#ffffff;" vertex="1" parent="1">
                    <mxGeometry x="1290" y="1943" width="50" height="20" as="geometry"/>
                </mxCell>
                <mxCell id="113" style="edgeStyle=none;html=1;strokeWidth=1;" edge="1" source="114" parent="1">
                    <mxGeometry relative="1" as="geometry">
                        <mxPoint x="1270" y="1850" as="targetPoint"/>
                    </mxGeometry>
                </mxCell>
                <mxCell id="114" value="FRONT" style="rounded=1;whiteSpace=wrap;html=1;fillColor=#76608a;strokeColor=#432D57;fontColor=#ffffff;" vertex="1" parent="1">
                    <mxGeometry x="1210" y="1943" width="50" height="20" as="geometry"/>
                </mxCell>
                <mxCell id="117" value="9" style="rounded=0;whiteSpace=wrap;html=1;fillColor=#008a00;strokeColor=#005700;fontColor=#ffffff;" vertex="1" parent="1">
                    <mxGeometry x="1240" y="1390" width="40" height="37" as="geometry"/>
                </mxCell>
                <mxCell id="118" value="8" style="rounded=0;whiteSpace=wrap;html=1;fillColor=#008a00;strokeColor=#005700;fontColor=#ffffff;" vertex="1" parent="1">
                    <mxGeometry x="1240" y="1347.9" width="40" height="37" as="geometry"/>
                </mxCell>
                <mxCell id="119" value="14" style="rounded=0;whiteSpace=wrap;html=1;fillColor=#008a00;strokeColor=#005700;fontColor=#ffffff;" vertex="1" parent="1">
                    <mxGeometry x="1240" y="1626.9" width="40" height="37" as="geometry"/>
                </mxCell>
                <mxCell id="120" value="13" style="rounded=0;whiteSpace=wrap;html=1;fillColor=#008a00;strokeColor=#005700;fontColor=#ffffff;" vertex="1" parent="1">
                    <mxGeometry x="1240" y="1580.1100000000001" width="40" height="37" as="geometry"/>
                </mxCell>
                <mxCell id="121" value="12" style="rounded=0;whiteSpace=wrap;html=1;fillColor=#008a00;strokeColor=#005700;fontColor=#ffffff;" vertex="1" parent="1">
                    <mxGeometry x="1240" y="1528.4" width="40" height="37" as="geometry"/>
                </mxCell>
                <mxCell id="122" value="11" style="rounded=0;whiteSpace=wrap;html=1;fillColor=#008a00;strokeColor=#005700;fontColor=#ffffff;" vertex="1" parent="1">
                    <mxGeometry x="1240" y="1480" width="40" height="37" as="geometry"/>
                </mxCell>
                <mxCell id="123" value="10" style="rounded=0;whiteSpace=wrap;html=1;fillColor=#008a00;strokeColor=#005700;fontColor=#ffffff;" vertex="1" parent="1">
                    <mxGeometry x="1240" y="1433.9" width="40" height="36.1" as="geometry"/>
                </mxCell>
                <mxCell id="125" value="2" style="rounded=0;whiteSpace=wrap;html=1;fillColor=#008a00;strokeColor=#005700;fontColor=#ffffff;" vertex="1" parent="1">
                    <mxGeometry x="1190" y="1390" width="40" height="37" as="geometry"/>
                </mxCell>
                <mxCell id="126" value="1" style="rounded=0;whiteSpace=wrap;html=1;fillColor=#008a00;strokeColor=#005700;fontColor=#ffffff;" vertex="1" parent="1">
                    <mxGeometry x="1190" y="1347.9" width="40" height="37" as="geometry"/>
                </mxCell>
                <mxCell id="127" value="7" style="rounded=0;whiteSpace=wrap;html=1;fillColor=#008a00;strokeColor=#005700;fontColor=#ffffff;" vertex="1" parent="1">
                    <mxGeometry x="1190" y="1626.9" width="40" height="37" as="geometry"/>
                </mxCell>
                <mxCell id="128" value="6" style="rounded=0;whiteSpace=wrap;html=1;fillColor=#008a00;strokeColor=#005700;fontColor=#ffffff;" vertex="1" parent="1">
                    <mxGeometry x="1190" y="1580.1100000000001" width="40" height="37" as="geometry"/>
                </mxCell>
                <mxCell id="129" value="5" style="rounded=0;whiteSpace=wrap;html=1;fillColor=#008a00;strokeColor=#005700;fontColor=#ffffff;" vertex="1" parent="1">
                    <mxGeometry x="1190" y="1528.4" width="40" height="37" as="geometry"/>
                </mxCell>
                <mxCell id="130" value="4" style="rounded=0;whiteSpace=wrap;html=1;fillColor=#008a00;strokeColor=#005700;fontColor=#ffffff;" vertex="1" parent="1">
                    <mxGeometry x="1190" y="1480" width="40" height="37" as="geometry"/>
                </mxCell>
                <mxCell id="131" value="3" style="rounded=0;whiteSpace=wrap;html=1;fillColor=#008a00;strokeColor=#005700;fontColor=#ffffff;" vertex="1" parent="1">
                    <mxGeometry x="1190" y="1433.9" width="40" height="37" as="geometry"/>
                </mxCell>
            </root>
        </mxGraphModel>
    </diagram>
</mxfile>